ChironHeiHK-Italic.glyphspackage
{
glyphname = quotedbl;
kernLeft = quotesingle;
kernRight = quotesingle;
layers = (
{
layerId = m01;
shapes = (
{
closed = 1;
nodes = (
(153,510,o),
(163,510,o),
(170,510,o),
(170,510,q),
(170,510,o),
(177,539,o),
(187,581,o),
(196,623,o),
(203,652,o),
(203,652,q),
(203,652,o),
(206,666,o),
(209,687,o),
(213,707,o),
(216,721,o),
(216,721,q),
(216,721,o),
(210,721,o),
(201,721,o),
(191,721,o),
(185,721,o),
(185,721,q),
(185,721,o),
(182,707,o),
(179,686,o),
(175,666,o),
(172,652,o),
(172,652,q),
(172,652,o),
(167,623,o),
(159,581,o),
(151,539,o),
(146,510,o),
(146,510,q),
(146,510,o)
);
},
{
closed = 1;
nodes = (
(286,510,o),
(296,510,o),
(303,510,o),
(303,510,q),
(303,510,o),
(310,539,o),
(320,581,o),
(329,623,o),
(336,652,o),
(336,652,q),
(336,652,o),
(339,666,o),
(343,687,o),
(346,707,o),
(349,721,o),
(349,721,q),
(349,721,o),
(343,721,o),
(334,721,o),
(324,721,o),
(318,721,o),
(318,721,q),
(318,721,o),
(315,707,o),
(312,686,o),
(308,666,o),
(305,652,o),
(305,652,q),
(305,652,o),
(300,623,o),
(292,581,o),
(284,539,o),
(279,510,o),
(279,510,q),
(279,510,o)
);
}
);
width = 353;
},
{
layerId = "0C2271EE-6BB0-42BD-9F3A-E5D7E2C847CD";
shapes = (
{
closed = 1;
nodes = (
(168,382,o),
(211,382,o),
(245,382,o),
(245,382,q),
(245,382,o),
(259,425,o),
(279,489,o),
(299,552,o),
(313,595,o),
(313,595,q),
(313,595,o),
(320,626,o),
(331,671,o),
(340.714,715.118,o),
(348,746,o),
(348,746,q),
(348,746,o),
(314.4,746,o),
(264,746,o),
(214,746,o),
(180,746,o),
(180,746,q),
(180,746,o),
(175,715,o),
(169,671,o),
(162.143,626.294,o),
(157,595,o),
(157,595,q),
(157,595,o),
(152,552,o),
(146,489,o),
(139,425,o),
(134,382,o),
(134,382,q),
(134,382,o)
);
},
{
closed = 1;
nodes = (
(430,382,o),
(474,382,o),
(507,382,o),
(507,382,q),
(507,382,o),
(521,425,o),
(541,489,o),
(561,552,o),
(575,595,o),
(575,595,q),
(575,595,o),
(582,626,o),
(593,671,o),
(603,715,o),
(610,746,o),
(610,746,q),
(610,746,o),
(576.4,746,o),
(526,746,o),
(476,746,o),
(442,746,o),
(442,746,q),
(442,746,o),
(437,715,o),
(431,671,o),
(424.143,626.294,o),
(419,595,o),
(419,595,q),
(419,595,o),
(415,552,o),
(408,488.5,o),
(401,425,o),
(397,382,o),
(397,382,q),
(397,382,o)
);
}
);
width = 603;
}
);
note = uni0022;
unicode = 34;
}
{
glyphname = numbersign;
layers = (
{
layerId = m01;
shapes = (
{
closed = 1;
nodes = (
(55,-11,o),
(67,-11,o),
(76,-11,o),
(76,-11,q),
(76,-11,o),
(91,37,o),
(113,108,o),
(135,179,o),
(150,227,o),
(150,227,q),
(150,227,o),
(182,227,o),
(230,227,o),
(278,227,o),
(310,227,o),
(310,227,q),
(310,227,o),
(295,179,o),
(273,108,o),
(250,37,o),
(235,-11,o),
(235,-11,q),
(235,-11,o),
(244,-11,o),
(257,-11,o),
(266,-11,o),
(266,-11,q),
(266,-11,o),
(281,37,o),
(303,108,o),
(325,179,o),
(340,227,o),
(340,227,q),
(340,227,o),
(368,227,o),
(406,227,o),
(434,227,o),
(434,227,q),
(434,227,o),
(437,236,o),
(440,248,o),
(443,257,o),
(443,257,q),
(443,257,o),
(415,257,o),
(379,257,o),
(351,257,o),
(351,257,q),
(351,257,o),
(363,296,o),
(381,354,o),
(398,412,o),
(410,451,o),
(410,451,q),
(410,451,o),
(437,451,o),
(472,451,o),
(499,451,o),
(499,451,q),
(499,451,o),
(502,460,o),
(505,473,o),
(508,482,o),
(508,482,q),
(508,482,o),
(481,482,o),
(446,482,o),
(419,482,o),
(419,482,q),
(419,482,o),
(433,526,o),
(453,590,o),
(472,654,o),
(486,698,o),
(486,698,q),
(486,698,o),
(477,698,o),
(465,698,o),
(456,698,o),
(456,698,q),
(456,698,o),
(442,654,o),
(422,590,o),
(402,526,o),
(388,482,o),
(388,482,q),
(388,482,o),
(356,482,o),
(308,482,o),
(261,482,o),
(229,482,o),
(229,482,q),
(229,482,o),
(243,526,o),
(263,590,o),
(282,654,o),
(296,698,o),
(296,698,q),
(296,698,o),
(287,698,o),
(275,698,o),
(266,698,o),
(266,698,q),
(266,698,o),
(252,654,o),
(232,590,o),
(212,526,o),
(198,482,o),
(198,482,q),
(198,482,o),
(170,482,o),
(133,482,o),
(105,482,o),
(105,482,q),
(105,482,o),
(102,473,o),
(99,460,o),
(96,451,o),
(96,451,q),
(96,451,o),
(123,451,o),
(160,451,o),
(187,451,o),
(187,451,q),
(187,451,o),
(175,412,o),
(158,354,o),
(141,296,o),
(129,257,o),
(129,257,q),
(129,257,o),
(102,257,o),
(66,257,o),
(39,257,o),
(39,257,q),
(39,257,o),
(37,248,o),
(33,236,o),
(31,227,o),
(31,227,q),
(31,227,o),
(58,227,o),
(93,227,o),
(120,227,o),
(120,227,q),
(120,227,o),
(105,179,o),
(83,108,o),
(61,37,o),
(46,-11,o),
(46,-11,q),
(46,-11,o)
);
},
{
closed = 1;
nodes = (
(171,296,o),
(189,354,o),
(206,412,o),
(218,451,o),
(218,451,q),
(218,451,o),
(251,451,o),
(299,451,o),
(346,451,o),
(379,451,o),
(379,451,q),
(379,451,o),
(367,412,o),
(350,354,o),
(332,296,o),
(320,257,o),
(320,257,q),
(320,257,o),
(287,257,o),
(240,257,o),
(192,257,o),
(159,257,o),
(159,257,q),
(159,257,o)
);
}
);
width = 499;
},
{
layerId = "0C2271EE-6BB0-42BD-9F3A-E5D7E2C847CD";
shapes = (
{
closed = 1;
nodes = (
(67,-11,o),
(106,-11,o),
(137,-11,o),
(137,-11,q),
(137,-11,o),
(150.176,30.95,o),
(169.5,93,o),
(188.824,155.05,o),
(202,197,o),
(202,197,q),
(202,197,o),
(223,197,o),
(254.5,197,o),
(286,197,o),
(307,197,o),
(307,197,q),
(307,197,o),
(293.8,155.05,o),
(274.44,93,o),
(254.2,30.95,o),
(241,-11,o),
(241,-11,q),
(241,-11,o),
(271,-11,o),
(311,-11,o),
(341,-11,o),
(341,-11,q),
(341,-11,o),
(354.581,30.95,o),
(374.5,93,o),
(394.419,155.05,o),
(408,197,o),
(408,197,q),
(408,197,o),
(435.702,197,o),
(473.298,197,o),
(501,197,o),
(501,197,q),
(501,197,o),
(509,231,o),
(519,274,o),
(527,308,o),
(527,308,q),
(527,308,o),
(501.13,308,o),
(467.87,308,o),
(442,308,o),
(442,308,q),
(442,308,o),
(449.6,332.124,o),
(461,368,o),
(472.138,403.278,o),
(480,427,o),
(480,427,q),
(480,427,o),
(507.91,427,o),
(544.09,427,o),
(572,427,o),
(572,427,q),
(572,427,o),
(580,461,o),
(590,504,o),
(598,538,o),
(598,538,q),
(598,538,o),
(572.517,538,o),
(539.483,538,o),
(514,538,o),
(514,538,q),
(514,538,o),
(526,576,o),
(544.462,631,o),
(562,686,o),
(574,724,o),
(574,724,q),
(574,724,o),
(543,724,o),
(504,724,o),
(473,724,o),
(473,724,q),
(473,724,o),
(461.059,686.111,o),
(444,631,o),
(426.941,575.889,o),
(415,538,o),
(415,538,q),
(415,538,o),
(393.868,538,o),
(362.17,538,o),
(331.132,538,o),
(310,538,o),
(310,538,q),
(310,538,o),
(322,576,o),
(340.462,631,o),
(358,686,o),
(370,724,o),
(370,724,q),
(370,724,o),
(339,724,o),
(300,724,o),
(269,724,o),
(269,724,q),
(269,724,o),
(256.647,686.111,o),
(239,631,o),
(221.353,575.889,o),
(209,538,o),
(209,538,q),
(209,538,o),
(181,538,o),
(144,538,o),
(116,538,o),
(116,538,q),
(116,538,o),
(108,504,o),
(98,461,o),
(90,427,o),
(90,427,q),
(90,427,o),
(116,427,o),
(149,427,o),
(175,427,o),
(175,427,q),
(175,427,o),
(167.138,403.077,o),
(156,367.5,o),
(144.862,331.923,o),
(137,308,o),
(137,308,q),
(137,308,o),
(109.4,308,o),
(72.6,308,o),
(45,308,o),
(45,308,q),
(45,308,o),
(37,274,o),
(27,231,o),
(19,197,o),
(19,197,q),
(19,197,o),
(44.483,197,o),
(77.517,197,o),
(103,197,o),
(103,197,q),
(103,197,o),
(89.419,155.05,o),
(69.5,93,o),
(49.581,30.95,o),
(36,-11,o),
(36,-11,q),
(36,-11,o)
);
},
{
closed = 1;
nodes = (
(244.6,332.124,o),
(256,368,o),
(266.968,403.278,o),
(274.71,427,o),
(274.71,427,q),
(274.71,427,o),
(296,427,o),
(328,427,o),
(358.55,427,o),
(380,427,o),
(380,427,q),
(380,427,o),
(372.138,403.278,o),
(361,368,o),
(349.571,332.124,o),
(341.952,308,o),
(341.952,308,q),
(341.952,308,o),
(321,308,o),
(289,308,o),
(258.185,308,o),
(237,308,o),
(237,308,q),
(237,308,o)
);
}
);
width = 579;
}
);
note = uni0023;
unicode = 35;
}
{
glyphname = dollar;
layers = (
{
layerId = m01;
shapes = (
{
closed = 1;
nodes = (
(362,30,o),
(412,119,o),
(412,174,qs),
(412,224,o),
(377,294,o),
(322,347,o),
(260,391,o),
(205,436,o),
(170,493,o),
(170,532,qs),
(170,594,o),
(256,671,o),
(320,671,qs),
(363,671,o),
(431,623,o),
(453,589,q),
(453,589,o),
(460,595,o),
(470,602,o),
(477,608,o),
(477,608,q),
(455,644,o),
(370,700,o),
(323,700,qs),
(271,700,o),
(188,655,o),
(140,576,o),
(140,525,qs),
(140,483,o),
(175,423,o),
(230,376,o),
(292,332,o),
(347,281,o),
(382,215,o),
(382,168,qs),
(382,120,o),
(337,46,o),
(259,4,o),
(211,4,qs),
(158,4,o),
(75,62,o),
(50,96,q),
(50,96,o),
(43,89,o),
(34,81,o),
(27,74,o),
(27,74,q),
(45,51,o),
(101,6,o),
(171,-24,o),
(211,-24,qs),
(271,-24,o)
);
},
{
closed = 1;
nodes = (
(170,-131,o),
(183,-131,o),
(192,-131,o),
(192,-131,q),
(192,-131,o),
(196,-109,o),
(203,-75,o),
(210,-42,o),
(214,-20,o),
(214,-20,q),
(214,-20,o),
(205,-20,o),
(192,-20,o),
(183,-20,o),
(183,-20,q),
(183,-20,o),
(179,-42,o),
(172,-75,o),
(165,-109,o),
(161,-131,o),
(161,-131,q),
(161,-131,o)
);
},
{
closed = 1;
nodes = (
(326,680,o),
(339,680,o),
(348,680,o),
(348,680,q),
(348,680,o),
(353,706,o),
(361,744,o),
(369,781,o),
(374,807,o),
(374,807,q),
(374,807,o),
(365,807,o),
(352,807,o),
(343,807,o),
(343,807,q),
(343,807,o),
(338,781,o),
(330,744,o),
(322,706,o),
(317,680,o),
(317,680,q),
(317,680,o)
);
}
);
width = 497;
},
{
layerId = "0C2271EE-6BB0-42BD-9F3A-E5D7E2C847CD";
shapes = (
{
closed = 1;
nodes = (
(448,35,o),
(513,141,o),
(513,208,qs),
(513,252,o),
(480,317,o),
(429,368,o),
(371,410,o),
(320,448,o),
(287,489,o),
(287,514,qs),
(287,544,o),
(327,583,o),
(364,583,qs),
(393,583,o),
(453,548,o),
(477,520,q),
(477,520,o),
(507,548,o),
(545,586,o),
(575,614,o),
(575,614,q),
(530,666,o),
(433,719,o),
(368,719,qs),
(294,719,o),
(182,662,o),
(120,560,o),
(120,494,qs),
(120,453,o),
(152,391,o),
(204,342,o),
(261,300,o),
(312,260,o),
(345,215,o),
(345,187,qs),
(345,164,o),
(325,130,o),
(286,112,o),
(257,112,qs),
(219,112,o),
(146,155,o),
(119,183,q),
(119,183,o),
(90,155,o),
(52,118,o),
(23,90,o),
(23,90,q),
(53,55,o),
(127,3,o),
(210,-25,o),
(253,-25,qs),
(332,-25,o)
);
},
{
closed = 1;
nodes = (
(194,-135,o),
(238,-135,o),
(272,-135,o),
(272,-135,q),
(272,-135,o),
(280,-98,o),
(291,-44,o),
(302,9,o),
(310,46,o),
(310,46,q),
(310,46,o),
(276,46,o),
(231,46,o),
(197,46,o),
(197,46,q),
(197,46,o),
(190,9,o),
(179,-45,o),
(167,-98,o),
(160,-135,o),
(160,-135,q),
(160,-135,o)
);
},
{
closed = 1;
nodes = (
(357,676,o),
(401,676,o),
(435,676,o),
(435,676,q),
(435,676,o),
(441,709,o),
(451,759,o),
(461,808,o),
(467,841,o),
(467,841,q),
(467,841,o),
(433,841,o),
(389,841,o),
(355,841,o),
(355,841,q),
(355,841,o),
(349,808,o),
(339,758,o),
(329,709,o),
(323,676,o),
(323,676,q),
(323,676,o)
);
}
);
width = 582;
}
);
note = uni0024;
unicode = 36;
}
{
glyphname = percent;
layers = (
{
layerId = m01;
shapes = (
{
closed = 1;
nodes = (
(312,326,o),
(360,415,o),
(384,516,o),
(384,562,qs),
(384,606,o),
(359,678,o),
(306,721,o),
(264,721,qs),
(216,721,o),
(145,665,o),
(98,576,o),
(74,475,o),
(74,429,qs),
(74,386,o),
(99,313,o),
(153,270,o),
(194,270,qs),
(241,270,o)
);
},
{
closed = 1;
nodes = (
(105,378,o),
(105,436,qs),
(105,474,o),
(125,564,o),
(164,644,o),
(223,695,o),
(262,695,qs),
(312,695,o),
(353,614,o),
(353,556,qs),
(353,517,o),
(333,428,o),
(294,347,o),
(235,296,o),
(196,296,qs),
(147,296,o)
);
},
{
closed = 1;
nodes = (
(152,-24,o),
(164,-24,o),
(174,-24,o),
(174,-24,q),
(174,-24,o),
(219,39,o),
(296,145,o),
(392,278,o),
(493,419,o),
(589,552,o),
(666,658,o),
(711,721,o),
(711,721,q),
(711,721,o),
(701,721,o),
(688,721,o),
(678,721,o),
(678,721,q),
(678,721,o),
(633,658,o),
(556,552,o),
(461,419,o),
(359,278,o),
(264,145,o),
(187,39,o),
(142,-24,o),
(142,-24,q),
(142,-24,o)
);
},
{
closed = 1;
nodes = (
(711,32,o),
(759,121,o),
(783,222,o),
(783,268,qs),
(783,312,o),
(758,384,o),
(705,427,o),
(663,427,qs),
(615,427,o),
(544,371,o),
(497,282,o),
(473,181,o),
(473,135,qs),
(473,92,o),
(498,19,o),
(552,-24,o),
(593,-24,qs),
(640,-24,o)
);
},
{
closed = 1;
nodes = (
(504,84,o),
(504,142,qs),
(504,180,o),
(524,270,o),
(563,350,o),
(622,401,o),
(661,401,qs),
(711,401,o),
(752,320,o),
(752,262,qs),
(752,223,o),
(732,134,o),
(693,53,o),
(634,2,o),
(595,2,qs),
(546,2,o)
);
}
);
width = 828;
},
{
layerId = "0C2271EE-6BB0-42BD-9F3A-E5D7E2C847CD";
shapes = (
{
closed = 1;
nodes = (
(348,324,o),
(406,402,o),
(438,506,o),
(438,566,qs),
(438,622,o),
(395,704,o),
(322,748,o),
(278,748,qs),
(229,748,o),
(148,705,o),
(90,627,o),
(59,523,o),
(59,462,qs),
(59,407,o),
(102,325,o),
(174,281,o),
(218,281,qs),
(267,281,o)
);
},
{
closed = 1;
nodes = (
(179,426,o),
(179,465,qs),
(179,506,o),
(193,574,o),
(217,622,o),
(249,648,o),
(268,648,qs),
(294,648,o),
(319,603,o),
(319,564,qs),
(319,522,o),
(305,455,o),
(280,407,o),
(248,381,o),
(229,381,qs),
(203,381,o)
);
},
{
closed = 1;
nodes = (
(191,-25,o),
(229,-25,o),
(258,-25,o),
(258,-25,q),
(258,-25,o),
(303,40,o),
(379,151,o),
(474,288,o),
(575,435,o),
(670,572,o),
(746,683,o),
(791,748,o),
(791,748,q),
(791,748,o),
(762,748,o),
(723,748,o),
(694,748,o),
(694,748,q),
(694,748,o),
(649,683,o),
(573,572,o),
(478,435,o),
(378,288,o),
(283,151,o),
(207,40,o),
(162,-25,o),
(162,-25,q),
(162,-25,o)
);
},
{
closed = 1;
nodes = (
(818,19,o),
(877,97,o),
(909,201,o),
(909,261,qs),
(909,317,o),
(865,399,o),
(792,443,o),
(748,443,qs),
(699,443,o),
(618,400,o),
(560,322,o),
(529,218,o),
(529,157,qs),
(529,102,o),
(572,20,o),
(644,-25,o),
(688,-25,qs),
(737,-25,o)
);
},
{
closed = 1;
nodes = (
(649,121,o),
(649,160,qs),
(649,201,o),
(663,269,o),
(687,317,o),
(719,343,o),
(738,343,qs),
(764,343,o),
(789,298,o),
(789,259,qs),
(789,217,o),
(775,150,o),
(750,102,o),
(718,76,o),
(699,76,qs),
(673,76,o)
);
}
);
width = 947;
}
);
note = uni0025;
unicode = 37;
}
{
glyphname = ampersand;
layers = (
{
layerId = m01;
shapes = (
{
closed = 1;
nodes = (
(350,33,o),
(397,81,qs),
(453,137,o),
(545,281,o),
(582,361,q),
(582,361,o),
(576,361,o),
(567,361,o),
(558,361,o),
(552,361,o),
(552,361,q),
(516,284,o),
(433,153,o),
(378,100,qs),
(336,60,o),
(236,4,o),
(185,4,qs),
(127,4,o),
(50,80,o),
(50,142,qs),
(50,189,o),
(93,263,o),
(165,326,o),
(250,382,o),
(336,439,o),
(408,502,o),
(451,578,o),
(451,626,qs),
(451,664,o),
(407,721,o),
(358,721,qs),
(316,721,o),
(240,670,o),
(192,577,o),
(192,514,qs),
(192,459,o),
(221,341,o),
(272,226,o),
(338,122,o),
(374,81,qs),
(409,41,o),
(475,-11,o),
(506,-24,q),
(506,-24,o),
(509,-19,o),
(514,-11,o),
(518,-3,o),
(521,2,o),
(521,2,q),
(491,16,o),
(429,67,o),
(397,102,qs),
(349,155,o),
(269,296,o),
(222,449,o),
(222,519,qs),
(222,569,o),
(256,647,o),
(317,693,o),
(355,693,qs),
(390,693,o),
(421,647,o),
(421,618,qs),
(421,575,o),
(377,507,o),
(305,448,o),
(219,393,o),
(133,336,o),
(61,269,o),
(17,187,o),
(17,135,qs),
(17,62,o),
(109,-24,o),
(178,-24,qs),
(239,-24,o)
);
}
);
width = 591;
},
{
layerId = "0C2271EE-6BB0-42BD-9F3A-E5D7E2C847CD";
shapes = (
{
closed = 1;
nodes = (
(463,41,o),
(523,99,qs),
(594,167,o),
(697,324,o),
(736,407,q),
(736,407,o),
(705,407,o),
(659,407,o),
(613,407,o),
(582,407,o),
(582,407,q),
(554,340,o),
(477,224,o),
(423,173,qs),
(383,138,o),
(300,103,o),
(261,103,qs),
(222,103,o),
(180,146,o),
(180,179,qs),
(180,211,o),
(220,264,o),
(286,310,o),
(364,355,o),
(443,405,o),
(509,463,o),
(549,537,o),
(549,583,qs),
(549,654,o),
(468,738,o),
(392,738,qs),
(327,738,o),
(222,678,o),
(162,578,o),
(162,517,qs),
(162,463,o),
(200,345,o),
(267,227,o),
(357,120,o),
(409,77,qs),
(456,38,o),
(561,-14,o),
(612,-25,q),
(612,-25,o),
(625,2,o),
(645,43,o),
(665,83,o),
(678,110,o),
(678,110,q),
(647,117,o),
(566,150,o),
(527,179,qs),
(470,222,o),
(367,335,o),
(302,461,o),
(302,521,qs),
(302,555,o),
(324,601,o),
(361,626,o),
(381,626,qs),
(400,626,o),
(418,607,o),
(418,587,qs),
(418,551,o),
(374,498,o),
(303,455,o),
(217,414,o),
(131,367,o),
(60,305,o),
(16,220,o),
(16,162,qs),
(16,79,o),
(129,-25,o),
(232,-25,qs),
(318,-25,o)
);
}
);
width = 728;
}
);
note = uni0026;
unicode = 38;
}
{
glyphname = quotesingle;
kernLeft = quotesingle;
kernRight = quotesingle;
layers = (
{
layerId = m01;
shapes = (
{
closed = 1;
nodes = (
(153,510,o),
(163,510,o),
(170,510,o),
(170,510,q),
(170,510,o),
(177,539,o),
(187,581,o),
(196,623,o),
(203,652,o),
(203,652,q),
(203,652,o),
(206,666,o),
(209,687,o),
(213,707,o),
(216,721,o),
(216,721,q),
(216,721,o),
(210,721,o),
(201,721,o),
(191,721,o),
(185,721,o),
(185,721,q),
(185,721,o),
(182,707,o),
(179,686,o),
(175,666,o),
(172,652,o),
(172,652,q),
(172,652,o),
(167,623,o),
(159,581,o),
(151,539,o),
(146,510,o),
(146,510,q),
(146,510,o)
);
}
);
width = 220;
},
{
layerId = "0C2271EE-6BB0-42BD-9F3A-E5D7E2C847CD";
shapes = (
{
closed = 1;
nodes = (
(168,382,o),
(211,382,o),
(245,382,o),
(245,382,q),
(245,382,o),
(259,425,o),
(279,489,o),
(299,552,o),
(313,595,o),
(313,595,q),
(313,595,o),
(320,626,o),
(331,671,o),
(340.714,715.118,o),
(348,746,o),
(348,746,q),
(348,746,o),
(314.4,746,o),
(264,746,o),
(214,746,o),
(180,746,o),
(180,746,q),
(180,746,o),
(175,715,o),
(169,671,o),
(162.143,626.294,o),
(157,595,o),
(157,595,q),
(157,595,o),
(152,552,o),
(146,489,o),
(139,425,o),
(134,382,o),
(134,382,q),
(134,382,o)
);
}
);
width = 341;
}
);
note = uni0027;
unicode = 39;
}
{
glyphname = parenleft;
kernRight = parenleft;
layers = (
{
layerId = m01;
shapes = (
{
closed = 1;
nodes = (
(146,-199,o),
(155,-196,o),
(161,-194,o),
(161,-194,q),
(144,-150,o),
(120,-42,o),
(109,75,o),
(109,129,qs),
(109,255,o),
(165,494,o),
(274,698,o),
(351,769,q),
(351,769,o),
(345,774,o),
(337,780,o),
(331,785,o),
(331,785,q),
(253,711,o),
(139,509,o),
(78,268,o),
(78,135,qs),
(78,75,o),
(93,-48,o),
(121,-158,o),
(140,-201,q),
(140,-201,o)
);
}
);
width = 283;
},
{
layerId = "0C2271EE-6BB0-42BD-9F3A-E5D7E2C847CD";
shapes = (
{
closed = 1;
nodes = (
(166,-205,o),
(209,-187,o),
(241,-174,o),
(241,-174,q),
(227,-133,o),
(207,-38,o),
(197,70,o),
(197,129,qs),
(197,241,o),
(245,468,o),
(346,677,o),
(425,761,q),
(425,761,o),
(395,778,o),
(357,801,o),
(327,818,o),
(327,818,q),
(240,732,o),
(121,518,o),
(60,268,o),
(60,126,qs),
(60,59,o),
(80,-63,o),
(114,-171,o),
(134,-218,q),
(134,-218,o)
);
}
);
width = 382;
}
);
note = uni0028;
unicode = 40;
}
{
glyphname = parenright;
kernLeft = parenright;
layers = (
{
layerId = m01;
shapes = (
{
closed = 1;
nodes = (
(153,75,o),
(214,316,o),
(214,449,qs),
(214,509,o),
(199,632,o),
(172,743,o),
(153,785,q),
(153,785,o),
(146,783,o),
(138,780,o),
(131,778,o),
(131,778,q),
(149,735,o),
(172,626,o),
(183,511,o),
(183,456,qs),
(183,330,o),
(127,90,o),
(19,-114,o),
(-59,-185,q),
(-59,-185,o),
(-53,-190,o),
(-45,-196,o),
(-39,-201,o),
(-39,-201,q),
(40,-127,o)
);
}
);
width = 286;
},
{
layerId = "0C2271EE-6BB0-42BD-9F3A-E5D7E2C847CD";
shapes = (
{
closed = 1;
nodes = (
(270,81,o),
(331,332,o),
(331,474,qs),
(331,542,o),
(311,663,o),
(277,771,o),
(257,818,q),
(257,818,o),
(225,804,o),
(182,787,o),
(150,773,o),
(150,773,q),
(165,734,o),
(184,639,o),
(194,530,o),
(194,470,qs),
(194,359,o),
(146,133,o),
(45,-76,o),
(-34,-160,q),
(-34,-160,o),
(-4,-178,o),
(34,-200,o),
(64,-218,o),
(64,-218,q),
(151,-132,o)
);
}
);
width = 384;
}
);
note = uni0029;
unicode = 41;
}
{
glyphname = asterisk;
kernLeft = asterisk;
layers = (
{
layerId = m01;
shapes = (
{
closed = 1;
nodes = (
(210,537,o),
(235,560,o),
(259,583,o),
(275,599,o),
(275,599,q),
(275,599,o),
(290,572,o),
(310,535,o),
(325,508,o),
(325,508,q),
(325,508,o),
(332,512,o),
(340,517,o),
(347,521,o),
(347,521,q),
(347,521,o),
(334,551,o),
(318,589,o),
(305,619,o),
(305,619,q),
(305,619,o),
(337,627,o),
(378,639,o),
(410,647,o),
(410,647,q),
(410,647,o),
(408,654,o),
(407,664,o),
(405,671,o),
(405,671,q),
(405,671,o),
(374,666,o),
(334,661,o),
(303,656,o),
(303,656,q),
(303,656,o),
(305,678,o),
(307,710,o),
(310,741,o),
(312,763,o),
(312,763,q),
(312,763,o),
(305,764,o),
(295,764,o),
(288,765,o),
(288,765,q),
(288,765,o),
(284,743,o),
(277,711,o),
(270,680,o),
(266,658,o),
(266,658,q),
(266,658,o),
(236,669,o),
(196,682,o),
(166,693,o),
(166,693,q),
(166,693,o),
(163,686,o),
(160,678,o),
(157,671,o),
(157,671,q),
(157,671,o),
(184,657,o),
(219,638,o),
(246,623,o),
(246,623,q),
(246,623,o),
(232,605,o),
(212,580,o),
(191,554,o),
(177,536,o),
(177,536,q),
(177,536,o),
(182,531,o),
(189,526,o),
(194,521,o),
(194,521,q),
(194,521,o)
);
}
);
width = 408;
},
{
layerId = "0C2271EE-6BB0-42BD-9F3A-E5D7E2C847CD";
shapes = (
{
closed = 1;
nodes = (
(213.902,405.282,o),
(245,433,o),
(275,460.128,o),
(295,479,o),
(295,479,q),
(295,479,o),
(316.3,447.253,o),
(344.7,403.747,o),
(366,372,o),
(366,372,q),
(366,372,o),
(390,385,o),
(421,403,o),
(445,416,o),
(445,416,q),
(445,416,o),
(432,453,o),
(415,502,o),
(402,539,o),
(402,539,q),
(402,539,o),
(441.01,551.571,o),
(490.99,570.429,o),
(530,583,o),
(530,583,q),
(530,583,o),
(526,609,o),
(520,643,o),
(516,669,o),
(516,669,q),
(516,669,o),
(476,664,o),
(425,658,o),
(385,653,o),
(385,653,q),
(385,653,o),
(387,679.857,o),
(389,721,o),
(392,762,o),
(394,789,o),
(394,789,q),
(394,789,o),
(367,791,o),
(333,794,o),
(306,796,o),
(306,796,q),
(306,796,o),
(299.455,769.111,o),
(288,730,o),
(275.909,691.396,o),
(269,664,o),
(269,664,q),
(269,664,o),
(232,675,o),
(184,691,o),
(147,702,o),
(147,702,q),
(147,702,o),
(135,678,o),
(120,647,o),
(108,623,o),
(108,623,q),
(108,623,o),
(141,604,o),
(185,578,o),
(218,559,o),
(218,559,q),
(218,559,o),
(200,536,o),
(175.122,503.157,o),
(149,469,o),
(131,446,o),
(131,446,q),
(131,446,o),
(150,428,o),
(175,404,o),
(194,386,o),
(194,386,q),
(194,386,o)
);
}
);
width = 504;
}
);
note = uni002A;
unicode = 42;
}
{
glyphname = plus;
layers = (
{
layerId = m01;
shapes = (
{
closed = 1;
nodes = (
(258,109,o),
(270,109,o),
(279,109,o),
(279,109,q),
(279,109,o),
(279,155,o),
(279,223,o),
(279,290,o),
(279,336,o),
(279,336,q),
(279,336,o),
(319,336,o),
(377,336,o),
(435,336,o),
(475,336,o),
(475,336,q),
(475,336,o),
(475,344,o),
(475,356,o),
(475,364,o),
(475,364,q),
(475,364,o),
(435,364,o),
(377,364,o),
(319,364,o),
(279,364,o),
(279,364,q),
(279,364,o),
(279,408,o),
(279,474,o),
(279,540,o),
(279,584,o),
(279,584,q),
(279,584,o),
(270,584,o),
(258,584,o),
(249,584,o),
(249,584,q),
(249,584,o),
(249,540,o),
(249,474,o),
(249,408,o),
(249,364,o),
(249,364,q),
(249,364,o),
(209,364,o),
(151,364,o),
(92,364,o),
(52,364,o),
(52,364,q),
(52,364,o),
(52,356,o),
(52,344,o),
(52,336,o),
(52,336,q),
(52,336,o),
(92,336,o),
(151,336,o),
(209,336,o),
(249,336,o),
(249,336,q),
(249,336,o),
(249,290,o),
(249,223,o),
(249,155,o),
(249,109,o),
(249,109,q),
(249,109,o)
);
}
);
width = 497;
},
{
layerId = "0C2271EE-6BB0-42BD-9F3A-E5D7E2C847CD";
shapes = (
{
closed = 1;
nodes = (
(278.2,94,o),
(327.8,94,o),
(365,94,o),
(365,94,q),
(365,94,o),
(365,136.15,o),
(365,198.458,o),
(365,259.85,o),
(365,302,o),
(365,302,q),
(365,302,o),
(403.98,302,o),
(460.5,302,o),
(517.02,302,o),
(556,302,o),
(556,302,q),
(556,302,o),
(556,338,o),
(556,386,o),
(556,422,o),
(556,422,q),
(556,422,o),
(518,422,o),
(461.5,422,o),
(405,422,o),
(367,422,o),
(367,422,q),
(367,422,o),
(367,464,o),
(367,525.5,o),
(367,587,o),
(367,629,o),
(367,629,q),
(367,629,o),
(329.8,629,o),
(280.2,629,o),
(243,629,o),
(243,629,q),
(243,629,o),
(243,587,o),
(243,526,o),
(243,463.6,o),
(243,422,o),
(243,422,q),
(243,422,o),
(205,422,o),
(148,422,o),
(91.98,422,o),
(54,422,o),
(54,422,q),
(54,422,o),
(54,386,o),
(54,338,o),
(54,302,o),
(54,302,q),
(54,302,o),
(91.98,302,o),
(148,302,o),
(203.041,302,o),
(241,302,o),
(241,302,q),
(241,302,o),
(241,259.812,o),
(241,198.365,o),
(241,136,o),
(241,94,o),
(241,94,q),
(241,94,o)
);
}
);
width = 582;
}
);
note = uni002B;
unicode = 43;
}
{
glyphname = hyphen;
kernLeft = hyphen;
kernRight = hyphen;
layers = (
{
layerId = m01;
shapes = (
{
closed = 1;
nodes = (
(71,246,o),
(123,246,o),
(180,246,o),
(231,246,o),
(264,246,o),
(264,246,q),
(264,246,o),
(266,255,o),
(268,268,o),
(270,277,o),
(270,277,q),
(270,277,o),
(238,277,o),
(187,277,o),
(129,277,o),
(78,277,o),
(46,277,o),
(46,277,q),
(46,277,o),
(44,268,o),
(41,255,o),
(39,246,o),
(39,246,q),
(39,246,o)
);
}
);
width = 307;
},
{
layerId = "0C2271EE-6BB0-42BD-9F3A-E5D7E2C847CD";
shapes = (
{
closed = 1;
nodes = (
(75,216,o),
(136,216,o),
(205,216,o),
(265.714,216,o),
(305,216,o),
(305,216,q),
(305,216,o),
(313,252,o),
(323,300,o),
(331,336,o),
(331,336,q),
(331,336,o),
(292,336,o),
(231.174,336,o),
(162,336,o),
(100.554,336,o),
(62,336,o),
(62,336,q),
(62,336,o),
(54,300,o),
(44,252,o),
(36,216,o),
(36,216,q),
(36,216,o)
);
}
);
width = 367;
}
);
note = uni002D;
unicode = (45,8208,8209);
}
{
glyphname = period;
kernLeft = period;
kernRight = period;
layers = (
{
layerId = m01;
shapes = (
{
closed = 1;
nodes = (
(86,-10,o),
(98,12,o),
(98,24,qs),
(98,39,o),
(84,59,o),
(70,59,qs),
(58,59,o),
(37,44,o),
(24,21,o),
(24,9,qs),
(24,-4,o),
(40,-24,o),
(55,-24,qs),
(67,-24,o)
);
}
);
width = 220;
},
{
layerId = "0C2271EE-6BB0-42BD-9F3A-E5D7E2C847CD";
shapes = (
{
closed = 1;
nodes = (
(202,11,o),
(232,66,o),
(232,96,qs),
(232,135,o),
(185,187,o),
(146,187,qs),
(111,187,o),
(57,151,o),
(27,96,o),
(27,66,qs),
(27,26,o),
(74,-25,o),
(113,-25,qs),
(149,-25,o)
);
}
);
width = 341;
}
);
note = uni002E;
unicode = 46;
}
{
glyphname = slash;
kernLeft = slash;
kernRight = slash;
layers = (
{
layerId = m01;
shapes = (
{
closed = 1;
nodes = (
(-72,-185,o),
(-59,-185,o),
(-50,-185,o),
(-50,-185,q),
(-50,-185,o),
(-14,-121,o),
(47,-10,o),
(126,131,o),
(214,289,o),
(301,447,o),
(380,588,o),
(441,699,o),
(477,763,o),
(477,763,q),
(477,763,o),
(468,763,o),
(456,763,o),
(447,763,o),
(447,763,q),
(447,763,o),
(411,699,o),
(350,588,o),
(271,447,o),
(183,289,o),
(95,131,o),
(16,-10,o),
(-45,-121,o),
(-81,-185,o),
(-81,-185,q),
(-81,-185,o)
);
}
);
width = 382;
},
{
layerId = "0C2271EE-6BB0-42BD-9F3A-E5D7E2C847CD";
shapes = (
{
closed = 1;
nodes = (
(-44,-192,o),
(-1,-192,o),
(32,-192,o),
(32,-192,q),
(32,-192,o),
(59,-126,o),
(107,-11,o),
(168,136,o),
(235,299,o),
(302.084,463.341,o),
(363,610,o),
(411,725,o),
(438,791,o),
(438,791,q),
(438,791,o),
(404,791,o),
(361,791,o),
(327,791,o),
(327,791,q),
(327,791,o),
(300,725,o),
(252.943,609.595,o),
(192,463,o),
(125,299.5,o),
(58,136,o),
(-2.943,-10.595,o),
(-50,-126,o),
(-77,-192,o),
(-77,-192,q),
(-77,-192,o)
);
}
);
width = 368;
}
);
note = uni002F;
unicode = 47;
}
{
glyphname = zero;
layers = (
{
layerId = m01;
shapes = (
{
closed = 1;
nodes = (
(334,35,o),
(401,137,o),
(449,265,o),
(475,404,o),
(475,471,qs),
(475,527,o),
(443,632,o),
(376,700,o),
(323,700,qs),
(275,700,o),
(192,640,o),
(124,538,o),
(76,409,o),
(50,270,o),
(50,203,qs),
(50,146,o),
(81,42,o),
(149,-24,o),
(203,-24,qs),
(251,-24,o)
);
},
{
closed = 1;
nodes = (
(106,63,o),
(81,157,o),
(81,209,qs),
(81,266,o),
(104,393,o),
(146,514,o),
(205,612,o),
(278,671,o),
(320,671,qs),
(364,671,o),
(419,612,o),
(445,518,o),
(445,464,qs),
(445,406,o),
(422,279,o),
(378,159,o),
(318,62,o),
(245,4,o),
(203,4,qs),
(160,4,o)
);
}
);
width = 497;
},
{
layerId = "0C2271EE-6BB0-42BD-9F3A-E5D7E2C847CD";
shapes = (
{
closed = 1;
nodes = (
(387,12,o),
(468,88,o),
(532,203,o),
(568,358,o),
(568,457,qs),
(568,546,o),
(514,662,o),
(421,719,o),
(362,719,qs),
(316,719,o),
(224,682,o),
(142,606,o),
(79,490,o),
(42,334,o),
(42,235,qs),
(42,147,o),
(97,32,o),
(192,-25,o),
(250,-25,qs),
(296,-25,o)
);
},
{
closed = 1;
nodes = (
(214,125,o),
(199,174,o),
(199,217,qs),
(199,281,o),
(216,394,o),
(247,486,o),
(285,553,o),
(329,589,o),
(351,589,qs),
(370,589,o),
(397,568,o),
(412,518,o),
(412,475,qs),
(412,411,o),
(395,298,o),
(365,207,o),
(326,141,o),
(283,105,o),
(261,105,qs),
(242,105,o)
);
}
);
width = 582;
}
);
note = uni0030;
unicode = 48;
}
{
glyphname = one;
layers = (
{
layerId = m01;
shapes = (
{
closed = 1;
nodes = (
(199,-11,o),
(208,-11,o),
(217,-11,o),
(223,-11,o),
(223,-11,q),
(223,-11,o),
(235,48,o),
(255,148,o),
(280,272,o),
(307,404,o),
(332,528,o),
(352,628,o),
(364,687,o),
(364,687,q),
(364,687,o),
(356,687,o),
(346,687,o),
(338,687,o),
(338,687,q),
(313,672,o),
(242,650,o),
(203,645,q),
(203,645,o),
(201,638,o),
(200,630,o),
(198,623,o),
(198,623,q),
(198,623,o),
(235,623,o),
(283,623,o),
(320,623,o),
(320,623,q),
(320,623,o),
(306,554,o),
(284,441,o),
(257,306,o),
(229,171,o),
(207,58,o),
(193,-11,o),
(193,-11,q),
(193,-11,o)
);
}
);
width = 497;
},
{
layerId = "0C2271EE-6BB0-42BD-9F3A-E5D7E2C847CD";
shapes = (
{
closed = 1;
nodes = (
(200,-11,o),
(250.5,-11,o),
(301,-11,o),
(336,-11,o),
(336,-11,q),
(336,-11,o),
(348,49,o),
(369,152,o),
(394,279,o),
(421.75,414.708,o),
(447.444,542.191,o),
(468,645,o),
(480,705,o),
(480,705,q),
(480,705,o),
(441.538,705,o),
(393.462,705,o),
(355,705,o),
(355,705,q),
(313,681,o),
(227,650,o),
(166,640,q),
(166,640,o),
(160,608,o),
(151,566,o),
(145,534,o),
(145,534,q),
(145,534,o),
(184.73,534,o),
(236.27,534,o),
(276,534,o),
(276,534,q),
(276,534,o),
(263.556,474.857,o),
(244,378,o),
(221,262,o),
(197,145,o),
(177.444,48.143,o),
(165,-11,o),
(165,-11,q),
(165,-11,o)
);
}
);
width = 582;
}
);
note = uni0031;
unicode = 49;
}
{
glyphname = two;
layers = (
{
layerId = m01;
shapes = (
{
closed = 1;
nodes = (
(35,-11,o),
(107,-11,o),
(193,-11,o),
(279,-11,o),
(351,-11,o),
(395,-11,o),
(395,-11,q),
(395,-11,o),
(396,-5,o),
(397,3,o),
(398,11,o),
(399,17,o),
(399,17,q),
(399,17,o),
(350,17,o),
(278,17,o),
(206,17,o),
(157,17,o),
(157,17,q),
(128,17,o),
(68,15,o),
(39,13,q),
(150,108,o),
(312,251,o),
(417,369,o),
(469,480,o),
(469,541,qs),
(469,608,o),
(385,700,o),
(303,700,qs),
(251,700,o),
(163,654,o),
(116,610,q),
(116,610,o),
(122,604,o),
(129,597,o),
(135,591,o),
(135,591,q),
(178,632,o),
(262,671,o),
(301,671,qs),
(372,671,o),
(438,590,o),
(438,534,qs),
(438,479,o),
(389,378,o),
(283,263,o),
(113,113,o),
(-7,9,q),
(-7,9,o),
(-8,3,o),
(-8,-5,o),
(-9,-11,o),
(-9,-11,q),
(-9,-11,o)
);
}
);
width = 497;
},
{
layerId = "0C2271EE-6BB0-42BD-9F3A-E5D7E2C847CD";
shapes = (
{
closed = 1;
nodes = (
(37,-11,o),
(125,-11,o),
(230,-11,o),
(334,-11,o),
(422,-11,o),
(475,-11,o),
(475,-11,q),
(475,-11,o),
(480,18,o),
(489,60,o),
(497,102,o),
(502,131,o),
(502,131,q),
(502,131,o),
(476,131,o),
(437,131,o),
(399,131,o),
(373,131,o),
(373,131,q),
(348,131,o),
(280,126,o),
(252,123,q),
(315,176,o),
(423,274,o),
(504,369,o),
(549,468,o),
(549,523,qs),
(549,612,o),
(428,719,o),
(324,719,qs),
(272,719,o),
(168,672,o),
(115,626,q),
(115,626,o),
(138,597,o),
(169,560,o),
(192,531,o),
(192,531,q),
(223,554,o),
(274,586,o),
(304,586,qs),
(342,586,o),
(383,541,o),
(383,505,qs),
(383,461,o),
(327,369,o),
(226,269,o),
(88,158,o),
(6,95,q),
(6,95,o),
(-1,63,o),
(-9,21,o),
(-16,-11,o),
(-16,-11,q),
(-16,-11,o)
);
}
);
width = 582;
}
);
note = uni0032;
unicode = 50;
}
{
glyphname = three;
layers = (
{
layerId = m01;
shapes = (
{
closed = 1;
nodes = (
(370,31,o),
(432,130,o),
(432,194,qs),
(432,253,o),
(358,333,o),
(301,349,q),
(301,349,o),
(301,353,o),
(301,353,q),
(381,373,o),
(473,480,o),
(473,547,qs),
(473,593,o),
(439,662,o),
(369,700,o),
(314,700,qs),
(267,700,o),
(173,661,o),
(135,630,q),
(135,630,o),
(141,623,o),
(149,613,o),
(155,606,o),
(155,606,q),
(184,635,o),
(275,671,o),
(312,671,qs),
(380,671,o),
(443,598,o),
(443,541,qs),
(443,514,o),
(415,454,o),
(354,401,o),
(254,368,o),
(181,368,q),
(181,368,o),
(179,360,o),
(176,348,o),
(174,340,o),
(174,340,q),
(254,340,o),
(354,299,o),
(401,230,o),
(401,187,qs),
(401,136,o),
(348,53,o),
(254,4,o),
(194,4,qs),
(150,4,o),
(83,37,o),
(36,85,o),
(20,109,q),
(20,109,o),
(15,105,o),
(8,100,o),
(1,95,o),
(-4,91,o),
(-4,91,q),
(11,68,o),
(63,14,o),
(140,-24,o),
(190,-24,qs),
(261,-24,o)
);
}
);
width = 497;
},
{
layerId = "0C2271EE-6BB0-42BD-9F3A-E5D7E2C847CD";
shapes = (
{
closed = 1;
nodes = (
(440,26,o),
(514,126,o),
(514,199,qs),
(514,246,o),
(462,326,o),
(405,349,q),
(405,349,o),
(405,354,o),
(405,354,q),
(490,383,o),
(556,476,o),
(556,545,qs),
(556,598,o),
(499,676,o),
(398,719,o),
(332,719,qs),
(274,719,o),
(167,690,o),
(111,651,q),
(111,651,o),
(135,618,o),
(168,576,o),
(192,543,o),
(192,543,q),
(226,564,o),
(276,586,o),
(301,586,qs),
(339,586,o),
(381,549,o),
(381,517,qs),
(381,495,o),
(364,458,o),
(323,430,o),
(252,414,o),
(198,414,q),
(198,414,o),
(191,378,o),
(181,330,o),
(174,294,o),
(174,294,q),
(242,294,o),
(316,272,o),
(345,231,o),
(345,201,qs),
(345,173,o),
(317,133,o),
(265,112,o),
(228,112,qs),
(205,112,o),
(154,131,o),
(106,168,o),
(87,194,q),
(87,194,o),
(66,176,o),
(34,150,o),
(2,123,o),
(-19,105,o),
(-19,105,q),
(15,59,o),
(99,1,o),
(189,-25,o),
(233,-25,qs),
(313,-25,o)
);
}
);
width = 582;
}
);
note = uni0033;
unicode = 51;
}
{
glyphname = four;
layers = (
{
layerId = m01;
shapes = (
{
closed = 1;
nodes = (
(331,32,o),
(344,95,o),
(357,157,o),
(365,200,o),
(365,200,q),
(365,200,o),
(395,200,o),
(434,200,o),
(464,200,o),
(464,200,q),
(464,200,o),
(466,209,o),
(469,220,o),
(471,229,o),
(471,229,q),
(471,229,o),
(441,229,o),
(401,229,o),
(371,229,o),
(371,229,q),
(371,229,o),
(381,279,o),
(397,360,o),
(416,458,o),
(436,556,o),
(452,637,o),
(462,687,o),
(462,687,q),
(462,687,o),
(458,687,o),
(451,687,o),
(444,687,o),
(440,687,o),
(440,687,q),
(440,687,o),
(395,636,o),
(321,553,o),
(232,453,o),
(143,352,o),
(69,269,o),
(24,218,o),
(24,218,q),
(24,218,o),
(23,213,o),
(23,205,o),
(22,200,o),
(22,200,q),
(22,200,o),
(67,200,o),
(139,200,o),
(218,200,o),
(290,200,o),
(335,200,o),
(335,200,q),
(335,200,o),
(326,157,o),
(314,95,o),
(301,32,o),
(292,-11,o),
(292,-11,q),
(292,-11,o),
(298,-11,o),
(307,-11,o),
(317,-11,o),
(323,-11,o),
(323,-11,q),
(323,-11,o)
);
},
{
closed = 1;
nodes = (
(110,271,o),
(170,338,o),
(236,414,o),
(296,481,o),
(334,523,o),
(334,523,q),
(354,546,o),
(398,599,o),
(421,628,q),
(421,628,o),
(425,628,o),
(425,628,q),
(417,594,o),
(400,527,o),
(395,501,q),
(395,501,o),
(387,462,o),
(375,400,o),
(360,330,o),
(348,268,o),
(340,229,o),
(340,229,q),
(340,229,o),
(301,229,o),
(240,229,o),
(172,229,o),
(111,229,o),
(72,229,o),
(72,229,q),
(72,229,o)
);
}
);
width = 497;
},
{
layerId = "0C2271EE-6BB0-42BD-9F3A-E5D7E2C847CD";
shapes = (
{
closed = 1;
nodes = (
(440,23,o),
(450,73.4,o),
(460,123,o),
(466.505,157,o),
(466.505,157,q),
(466.505,157,o),
(490.897,157,o),
(522.607,157,o),
(547,157,o),
(547,157,q),
(547,157,o),
(555,197,o),
(564,248,o),
(572,288,o),
(572,288,q),
(572,288,o),
(548.3,288,o),
(516.7,288,o),
(493,288,o),
(493,288,q),
(493,288,o),
(502,333,o),
(517,408,o),
(534,496,o),
(551,585,o),
(566,660,o),
(575,705,o),
(575,705,q),
(575,705,o),
(534,705,o),
(473,705,o),
(412,705,o),
(371,705,o),
(371,705,q),
(371,705,o),
(334,659,o),
(274,582,o),
(202,491,o),
(129,400,o),
(69,323,o),
(32,277,o),
(32,277,q),
(32,277,o),
(25,241,o),
(15,193,o),
(8,157,o),
(8,157,q),
(8,157,o),
(51.562,157,o),
(121.262,157,o),
(197.738,157,o),
(267.438,157,o),
(311,157,o),
(311,157,q),
(311,157,o),
(304.093,122.763,o),
(294.884,73.398,o),
(284.907,23.237,o),
(278,-11,o),
(278,-11,q),
(278,-11,o),
(309.2,-11,o),
(356,-11,o),
(402,-11,o),
(433,-11,o),
(433,-11,q),
(433,-11,o)
);
},
{
closed = 1;
nodes = (
(214,308,o),
(238.194,339.586,o),
(264.806,375.414,o),
(289,407,o),
(304,427,o),
(304,427,q),
(329,461,o),
(372,527,o),
(392,561,q),
(392,561,o),
(397,561,o),
(397,561,q),
(388,521,o),
(367,438,o),
(358,398,q),
(358,398,o),
(354.945,382.228,o),
(350.364,357.154,o),
(344.636,328.846,o),
(340.055,303.772,o),
(337,288,o),
(337,288,q),
(337,288,o),
(316.918,288,o),
(285.507,288,o),
(250.493,288,o),
(219.082,288,o),
(199,288,o),
(199,288,q),
(199,288,o)
);
}
);
width = 582;
}
);
note = uni0034;
unicode = 52;
}
{
glyphname = five;
layers = (
{
layerId = m01;
shapes = (
{
closed = 1;
nodes = (
(329,14,o),
(398,84,o),
(438,182,o),
(438,242,qs),
(438,303,o),
(391,384,o),
(310,425,o),
(257,425,qs),
(223,425,o),
(167,408,o),
(146,397,q),
(146,397,o),
(156,435,o),
(173,494,o),
(191,561,o),
(208,620,o),
(218,658,o),
(218,658,q),
(218,658,o),
(256,658,o),
(316,658,o),
(382,658,o),
(442,658,o),
(480,658,o),
(480,658,q),
(480,658,o),
(481,664,o),
(483,673,o),
(485,681,o),
(486,687,o),
(486,687,q),
(486,687,o),
(444,687,o),
(378,687,o),
(304,687,o),
(238,687,o),
(196,687,o),
(196,687,q),
(196,687,o),
(183,642,o),
(164,570,o),
(141,490,o),
(122,418,o),
(109,373,o),
(109,373,q),
(109,373,o),
(115,368,o),
(123,362,o),
(129,357,o),
(129,357,q),
(161,375,o),
(218,397,o),
(257,397,qs),
(325,397,o),
(408,317,o),
(408,235,qs),
(408,167,o),
(348,62,o),
(252,4,o),
(196,4,qs),
(146,4,o),
(81,36,o),
(41,84,o),
(26,107,q),
(26,107,o),
(21,103,o),
(14,98,o),
(7,93,o),
(2,89,o),
(2,89,q),
(17,64,o),
(65,12,o),
(139,-24,o),
(190,-24,qs),
(240,-24,o)
);
}
);
width = 497;
},
{
layerId = "0C2271EE-6BB0-42BD-9F3A-E5D7E2C847CD";
shapes = (
{
closed = 1;
nodes = (
(397,14,o),
(481.193,89.417,o),
(530,195,o),
(530,261,qs),
(530,324,o),
(479.328,408.32,o),
(392,451,o),
(338,451,qs),
(321,451,o),
(291,447,o),
(276,439,q),
(276,439,o),
(280.722,457.054,o),
(288.75,485.084,o),
(297.25,516.916,o),
(305.278,544.946,o),
(310,563,o),
(310,563,q),
(310,563,o),
(346,563,o),
(403.419,563,o),
(466.581,563,o),
(524,563,o),
(560,563,o),
(560,563,q),
(560,563,o),
(566,592,o),
(574,634,o),
(582,676,o),
(588,705,o),
(588,705,q),
(588,705,o),
(530.503,705,o),
(440.152,705,o),
(338.848,705,o),
(248.497,705,o),
(191,705,o),
(191,705,q),
(191,705,o),
(178,653,o),
(158,571,o),
(136,479,o),
(116,397,o),
(103,345,o),
(103,345,q),
(103,345,o),
(121.6,328.75,o),
(146.4,309.25,o),
(165,293,o),
(165,293,q),
(203,313,o),
(241,326,o),
(267,326,qs),
(309,326,o),
(357,279,o),
(357,234,qs),
(357,195,o),
(324,141,o),
(271.248,112,o),
(240.475,112,qs),
(213,112,o),
(164,131,o),
(122,167,o),
(103,192,q),
(103,192,o),
(81,174,o),
(49,148.5,o),
(17,123,o),
(-5,105,o),
(-5,105,q),
(29,59,o),
(108,1,o),
(193,-25,o),
(236,-25,qs),
(292,-25,o)
);
}
);
width = 582;
}
);
note = uni0035;
unicode = 53;
}
{
glyphname = seven;
layers = (
{
layerId = m01;
shapes = (
{
closed = 1;
nodes = (
(155,-11,o),
(166,-11,o),
(176,-11,o),
(183,-11,o),
(183,-11,q),
(204,81,o),
(257,251,o),
(336,415,o),
(450,579,o),
(532,665,q),
(532,665,o),
(533,672,o),
(535,680,o),
(536,687,o),
(536,687,q),
(536,687,o),
(492,687,o),
(420,687,o),
(333,687,o),
(247,687,o),
(175,687,o),
(131,687,o),
(131,687,q),
(131,687,o),
(130,681,o),
(128,673,o),
(125,664,o),
(124,658,o),
(124,658,q),
(124,658,o),
(177,658,o),
(261,658,o),
(354,658,o),
(438,658,o),
(491,658,o),
(491,658,q),
(392,550,o),
(262,340,o),
(179,117,o),
(148,-11,q),
(148,-11,o)
);
}
);
width = 497;
},
{
layerId = "0C2271EE-6BB0-42BD-9F3A-E5D7E2C847CD";
shapes = (
{
closed = 1;
nodes = (
(143,-11,o),
(195,-11,o),
(246.765,-11,o),
(283,-11,o),
(283,-11,q),
(300,60,o),
(343,210,o),
(414,363,o),
(524,520,o),
(606,599,q),
(606,599,o),
(612,631,o),
(621,673,o),
(627,705,o),
(627,705,q),
(627,705,o),
(573.246,705,o),
(485.286,705,o),
(379,705,o),
(273.416,705,o),
(185.02,705,o),
(131,705,o),
(131,705,q),
(131,705,o),
(126,676,o),
(118,634,o),
(109,592,o),
(104,563,o),
(104,563,q),
(104,563,o),
(148.191,563,o),
(218.229,563,o),
(295.771,563,o),
(365.809,563,o),
(410,563,o),
(410,563,q),
(336,484,o),
(225,307,o),
(141,106,o),
(107,-11,q),
(107,-11,o)
);
}
);
width = 582;
}
);
note = uni0037;
unicode = 55;
}
{
glyphname = nine;
layers = (
{
layerId = m01;
shapes = (
{
closed = 1;
nodes = (
(339,51,o),
(422,186,o),
(469,367,o),
(469,473,qs),
(469,539,o),
(427,641,o),
(349,700,o),
(294,700,qs),
(250,700,o),
(173,663,o),
(114,596,o),
(81,507,o),
(81,456,qs),
(81,404,o),
(120,322,o),
(196,275,o),
(249,275,qs),
(292,275,o),
(398,321,o),
(438,373,q),
(438,373,o),
(439,385,o),
(439,402,o),
(440,414,o),
(440,414,q),
(407,370,o),
(335,323,o),
(271,305,o),
(251,305,qs),
(182,305,o),
(111,393,o),
(111,466,qs),
(111,521,o),
(162,614,o),
(245,671,o),
(292,671,qs),
(338,671,o),
(403,618,o),
(438,525,o),
(438,466,qs),
(438,372,o),
(395,204,o),
(319,77,o),
(220,4,o),
(164,4,qs),
(124,4,o),
(68,39,o),
(48,76,q),
(48,76,o),
(43,73,o),
(35,67,o),
(27,62,o),
(22,59,o),
(22,59,q),
(36,34,o),
(75,-4,o),
(127,-24,o),
(161,-24,qs),
(227,-24,o)
);
}
);
width = 497;
},
{
layerId = "0C2271EE-6BB0-42BD-9F3A-E5D7E2C847CD";
shapes = (
{
closed = 1;
nodes = (
(405,44,o),
(503,172,o),
(557,351,o),
(557,461,qs),
(557,538,o),
(501,654,o),
(399,719,o),
(328,719,qs),
(271,719,o),
(177,673,o),
(108,594,o),
(71,495,o),
(71,443,qs),
(71,378,o),
(118,295,o),
(200,256,o),
(250,256,qs),
(279,256,o),
(360,292,o),
(390,326,q),
(390,326,o),
(395,363,o),
(401,410,o),
(406,447,o),
(406,447,q),
(385,418,o),
(346,385,o),
(311,371,o),
(296,371,qs),
(262,371,o),
(226,418,o),
(226,458,qs),
(226,487,o),
(247,550,o),
(289,594,o),
(320,594,qs),
(343,594,o),
(379,568,o),
(400,516,o),
(400,478,qs),
(400,385,o),
(368,247,o),
(313,156,o),
(242,112,o),
(203,112,qs),
(174,112,o),
(133,143,o),
(116,165,q),
(116,165,o),
(95,147,o),
(63,121,o),
(31,94,o),
(10,76,o),
(10,76,q),
(26,54,o),
(76,7,o),
(146,-25,o),
(192,-25,qs),
(272,-25,o)
);
}
);
width = 582;
}
);
note = uni0039;
unicode = 57;
}
{
glyphname = colon;
kernLeft = colon;
kernRight = colon;
layers = (
{
layerId = m01;
shapes = (
{
closed = 1;
nodes = (
(174,415,o),
(185,437,o),
(185,449,qs),
(185,464,o),
(172,484,o),
(157,484,qs),
(145,484,o),
(124,469,o),
(111,446,o),
(111,434,qs),
(111,421,o),
(127,401,o),
(142,401,qs),
(154,401,o)
);
},
{
closed = 1;
nodes = (
(86,-10,o),
(98,12,o),
(98,24,qs),
(98,39,o),
(84,59,o),
(70,59,qs),
(58,59,o),
(37,44,o),
(24,21,o),
(24,9,qs),
(24,-4,o),
(40,-24,o),
(55,-24,qs),
(67,-24,o)
);
}
);
width = 220;
},
{
layerId = "0C2271EE-6BB0-42BD-9F3A-E5D7E2C847CD";
shapes = (
{
closed = 1;
nodes = (
(271,378,o),
(301,434,o),
(301,464,qs),
(301,503,o),
(254,554,o),
(215,554,qs),
(180,554,o),
(126,518,o),
(96,463,o),
(96,433,qs),
(96,393,o),
(143,343,o),
(182,343,qs),
(218,343,o)
);
},
{
closed = 1;
nodes = (
(202,11,o),
(232,66,o),
(232,96,qs),
(232,135,o),
(185,187,o),
(146,187,qs),
(111,187,o),
(57,151,o),
(27,96,o),
(27,66,qs),
(27,26,o),
(74,-25,o),
(113,-25,qs),
(149,-25,o)
);
}
);
width = 341;
}
);
note = uni003A;
unicode = 58;
}
{
glyphname = less;
layers = (
{
layerId = m01;
shapes = (
{
closed = 1;
nodes = (
(475,165,o),
(475,175,o),
(475,184,o),
(475,190,o),
(475,190,q),
(475,190,o),
(439,205,o),
(382,228,o),
(318,254,o),
(261,277,o),
(225,292,o),
(225,292,q),
(225,292,o),
(198,303,o),
(159,320,o),
(119,336,o),
(92,347,o),
(92,347,q),
(92,347,o),
(92,351,o),
(92,351,q),
(92,351,o),
(119,362,o),
(159,378,o),
(198,394,o),
(225,405,o),
(225,405,q),
(225,405,o),
(261,420,o),
(318,443,o),
(382,470,o),
(439,493,o),
(475,508,o),
(475,508,q),
(475,508,o),
(475,514,o),
(475,523,o),
(475,532,o),
(475,538,o),
(475,538,q),
(475,538,o),
(429,519,o),
(353,488,o),
(263,451,o),
(172,414,o),
(96,383,o),
(50,364,o),
(50,364,q),
(50,364,o),
(50,355,o),
(50,342,o),
(50,333,o),
(50,333,q),
(50,333,o),
(96,314,o),
(172,283,o),
(262,246,o),
(353,209,o),
(429,178,o),
(475,159,o),
(475,159,q),
(475,159,o)
);
}
);
width = 497;
},
{
layerId = "0C2271EE-6BB0-42BD-9F3A-E5D7E2C847CD";
shapes = (
{
closed = 1;
nodes = (
(556,133,o),
(556,175,o),
(556,217,o),
(556,246,o),
(556,246,q),
(556,246,o),
(529,255,o),
(487.051,269.694,o),
(439.949,286.306,o),
(398,301,o),
(371,310,o),
(371,310,q),
(371,310,o),
(342,321,o),
(298,336,o),
(254,351,o),
(225,362,o),
(225,362,q),
(225,362,o),
(225,366,o),
(225,366,q),
(225,366,o),
(254,377,o),
(298,392,o),
(342,407,o),
(371,418,o),
(371,418,q),
(371,418,o),
(398,427,o),
(439.949,441.808,o),
(487.051,459.192,o),
(529,474,o),
(556,483,o),
(556,483,q),
(556,483,o),
(556,510.8,o),
(556,552.5,o),
(556,594.2,o),
(556,622,o),
(556,622,q),
(556,622,o),
(501,600,o),
(412,565,o),
(304,522,o),
(196,479,o),
(107,444,o),
(52,422,o),
(52,422,q),
(52,422,o),
(52,386,o),
(52,340,o),
(52,304,o),
(52,304,q),
(52,304,o),
(107,282,o),
(196,247,o),
(304,204,o),
(412,161,o),
(501,126,o),
(556,104,o),
(556,104,q),
(556,104,o)
);
}
);
width = 582;
}
);
note = uni003C;
unicode = 60;
}
{
glyphname = equal;
layers = (
{
layerId = m01;
shapes = (
{
closed = 1;
nodes = (
(98,442,o),
(173,442,o),
(264,442,o),
(354,442,o),
(429,442,o),
(475,442,o),
(475,442,q),
(475,442,o),
(475,451,o),
(475,462,o),
(475,471,o),
(475,471,q),
(475,471,o),
(429,471,o),
(354,471,o),
(264,471,o),
(173,471,o),
(98,471,o),
(52,471,o),
(52,471,q),
(52,471,o),
(52,462,o),
(52,451,o),
(52,442,o),
(52,442,q),
(52,442,o)
);
},
{
closed = 1;
nodes = (
(98,227,o),
(173,227,o),
(264,227,o),
(354,227,o),
(429,227,o),
(475,227,o),
(475,227,q),
(475,227,o),
(475,235,o),
(475,247,o),
(475,255,o),
(475,255,q),
(475,255,o),
(429,255,o),
(354,255,o),
(264,255,o),
(173,255,o),
(98,255,o),
(52,255,o),
(52,255,q),
(52,255,o),
(52,247,o),
(52,235,o),
(52,227,o),
(52,227,q),
(52,227,o)
);
}
);
width = 497;
},
{
layerId = "0C2271EE-6BB0-42BD-9F3A-E5D7E2C847CD";
shapes = (
{
closed = 1;
nodes = (
(108,435,o),
(198,435,o),
(305,435,o),
(412.455,435,o),
(502,435,o),
(556,435,o),
(556,435,q),
(556,435,o),
(556,471,o),
(556,519,o),
(556,555,o),
(556,555,q),
(556,555,o),
(502,555,o),
(412.455,555,o),
(305,555,o),
(198,555,o),
(108,555,o),
(54,555,o),
(54,555,q),
(54,555,o),
(54,519,o),
(54,471,o),
(54,435,o),
(54,435,q),
(54,435,o)
);
},
{
closed = 1;
nodes = (
(108,168,o),
(198,168,o),
(305,168,o),
(412.455,168,o),
(502,168,o),
(556,168,o),
(556,168,q),
(556,168,o),
(556,204,o),
(556,251,o),
(556,287,o),
(556,287,q),
(556,287,o),
(502,287,o),
(412.455,287,o),
(305,287,o),
(198,287,o),
(108,287,o),
(54,287,o),
(54,287,q),
(54,287,o),
(54,251,o),
(54,204,o),
(54,168,o),
(54,168,q),
(54,168,o)
);
}
);
width = 582;
}
);
note = uni003D;
unicode = 61;
}
{
glyphname = greater;
layers = (
{
layerId = m01;
shapes = (
{
closed = 1;
nodes = (
(98,178,o),
(174,209,o),
(264,246,o),
(355,283,o),
(431,314,o),
(477,333,o),
(477,333,q),
(477,333,o),
(477,342,o),
(477,355,o),
(477,364,o),
(477,364,q),
(477,364,o),
(431,383,o),
(355,414,o),
(265,451,o),
(174,488,o),
(98,519,o),
(52,538,o),
(52,538,q),
(52,538,o),
(52,532,o),
(52,523,o),
(52,514,o),
(52,508,o),
(52,508,q),
(52,508,o),
(88,493,o),
(145,470,o),
(210,443,o),
(267,420,o),
(303,405,o),
(303,405,q),
(303,405,o),
(330,394,o),
(370,378,o),
(409,362,o),
(436,351,o),
(436,351,q),
(436,351,o),
(436,347,o),
(436,347,q),
(436,347,o),
(409,336,o),
(369,320,o),
(330,303,o),
(303,292,o),
(303,292,q),
(303,292,o),
(267,277,o),
(210,254,o),
(145,228,o),
(88,205,o),
(52,190,o),
(52,190,q),
(52,190,o),
(52,184,o),
(52,175,o),
(52,165,o),
(52,159,o),
(52,159,q),
(52,159,o)
);
}
);
width = 497;
},
{
layerId = "0C2271EE-6BB0-42BD-9F3A-E5D7E2C847CD";
shapes = (
{
closed = 1;
nodes = (
(109,126,o),
(198,161,o),
(306,204,o),
(414,247,o),
(503,282,o),
(558,304,o),
(558,304,q),
(558,304,o),
(558,340,o),
(558,386,o),
(558,422,o),
(558,422,q),
(558,422,o),
(503,444,o),
(414,479,o),
(306,522,o),
(198,565,o),
(109,600,o),
(54,622,o),
(54,622,q),
(54,622,o),
(54,594.2,o),
(54,552.5,o),
(54,510.8,o),
(54,483,o),
(54,483,q),
(54,483,o),
(81,474,o),
(122.397,459.192,o),
(169.603,441.808,o),
(211,427,o),
(238,418,o),
(238,418,q),
(238,418,o),
(267.842,407.407,o),
(312.053,392,o),
(355.158,376.593,o),
(385,366,o),
(385,366,q),
(385,366,o),
(385,362,o),
(385,362,q),
(385,362,o),
(355,351,o),
(310.949,336.455,o),
(268,321,o),
(238,310,o),
(238,310,q),
(238,310,o),
(211,301,o),
(170,286,o),
(122,270,o),
(81,255,o),
(54,246,o),
(54,246,q),
(54,246,o),
(54,217,o),
(54,175,o),
(54,133,o),
(54,104,o),
(54,104,q),
(54,104,o)
);
}
);
width = 582;
}
);
note = uni003E;
unicode = 62;
}
{
glyphname = question;
kernLeft = question;
kernRight = question;
layers = (
{
layerId = m01;
shapes = (
{
closed = 1;
nodes = (
(163,181,o),
(171,180,o),
(179,179,o),
(185,179,o),
(185,179,q),
(187,224,o),
(223,295,o),
(277,356,o),
(336,414,o),
(388,475,o),
(421,548,o),
(421,593,qs),
(421,658,o),
(346,732,o),
(281,732,qs),
(232,732,o),
(146,688,o),
(120,658,q),
(120,658,o),
(126,651,o),
(134,643,o),
(140,636,o),
(140,636,q),
(166,666,o),
(240,704,o),
(279,704,qs),
(332,704,o),
(390,642,o),
(390,586,qs),
(390,546,o),
(357,482,o),
(305,424,o),
(247,368,o),
(194,305,o),
(159,229,o),
(157,181,q),
(157,181,o)
);
},
{
closed = 1;
nodes = (
(169,-10,o),
(181,12,o),
(181,24,qs),
(181,39,o),
(167,59,o),
(153,59,qs),
(141,59,o),
(120,44,o),
(107,21,o),
(107,9,qs),
(107,-4,o),
(123,-24,o),
(137,-24,qs),
(149,-24,o)
);
}
);
width = 414;
},
{
layerId = "0C2271EE-6BB0-42BD-9F3A-E5D7E2C847CD";
shapes = (
{
closed = 1;
nodes = (
(194,257,o),
(238,253,o),
(281,249,o),
(310,247,o),
(310,247,q),
(316,284,o),
(352,340,o),
(401,385,o),
(453,428,o),
(499,478,o),
(527,542,o),
(527,586,qs),
(527,668,o),
(409,760,o),
(314,760,qs),
(263,760,o),
(170,718,o),
(129,678,q),
(129,678,o),
(155,649,o),
(188,611,o),
(214,582,o),
(214,582,q),
(235,604,o),
(274,623,o),
(294,623,qs),
(324,623,o),
(360,589,o),
(360,560,qs),
(360,535,o),
(334,495,o),
(293,459,o),
(246,419,o),
(202,370,o),
(170,304,o),
(165,259,q),
(165,259,o)
);
},
{
closed = 1;
nodes = (
(276,11,o),
(305,66,o),
(305,96,qs),
(305,135,o),
(258,187,o),
(219,187,qs),
(184,187,o),
(130,151,o),
(101,96,o),
(101,66,qs),
(101,26,o),
(147,-25,o),
(186,-25,qs),
(222,-25,o)
);
}
);
width = 511;
}
);
note = uni003F;
unicode = 63;
}
{
glyphname = at;
layers = (
{
layerId = m01;
shapes = (
{
closed = 1;
nodes = (
(494,-145,o),
(536,-120,q),
(536,-120,o),
(532,-113,o),
(527,-103,o),
(523,-96,o),
(523,-96,q),
(487,-117,o),
(409,-137,o),
(362,-137,qs),
(300,-137,o),
(197,-95,o),
(122,-14,o),
(81,101,o),
(81,174,qs),
(81,274,o),
(152,445,o),
(272,572,o),
(422,643,o),
(501,643,qs),
(567,643,o),
(667,602,o),
(735,525,o),
(770,418,o),
(770,353,qs),
(770,266,o),
(719,142,o),
(642,76,o),
(602,76,qs),
(553,76,o),
(525,152,o),
(538,207,q),
(538,207,o),
(546,240,o),
(558,293,o),
(571,352,o),
(583,405,o),
(591,438,o),
(591,438,q),
(591,438,o),
(583,438,o),
(573,438,o),
(565,438,o),
(565,438,q),
(565,438,o),
(559,414,o),
(552,390,o),
(552,390,q),
(552,390,o),
(549,390,o),
(549,390,q),
(535,416,o),
(493,447,o),
(467,447,qs),
(424,447,o),
(348,404,o),
(291,331,o),
(259,242,o),
(259,196,qs),
(259,149,o),
(293,87,o),
(348,57,o),
(377,57,qs),
(415,57,o),
(476,100,o),
(504,131,q),
(504,131,o),
(506,131,o),
(506,131,q),
(512,95,o),
(558,48,o),
(597,48,qs),
(648,48,o),
(741,121,o),
(800,261,o),
(800,360,qs),
(800,453,o),
(731,593,o),
(599,671,o),
(504,671,qs),
(435,671,o),
(303,622,o),
(188,533,o),
(100,408,o),
(50,255,o),
(50,168,qs),
(50,91,o),
(96,-32,o),
(179,-120,o),
(292,-166,o),
(360,-166,qs),
(404,-166,o)
);
},
{
closed = 1;
nodes = (
(290,142,o),
(290,203,qs),
(290,239,o),
(315,314,o),
(362,379,o),
(426,418,o),
(464,418,qs),
(484,418,o),
(524,393,o),
(543,357,q),
(543,357,o),
(534,318,o),
(521,260,o),
(508,202,o),
(499,163,o),
(499,163,q),
(441,85,o),
(379,85,qs),
(343,85,o)
);
}
);
width = 841;
},
{
layerId = "0C2271EE-6BB0-42BD-9F3A-E5D7E2C847CD";
shapes = (
{
closed = 1;
nodes = (
(580,-182,o),
(625,-157,q),
(625,-157,o),
(612,-131,o),
(596,-97,o),
(583,-71,o),
(583,-71,q),
(554,-87,o),
(482,-103,o),
(451,-103,qs),
(399,-103,o),
(297,-67,o),
(214,5,o),
(165,116,o),
(165,191,qs),
(165,288,o),
(235,454,o),
(349,578,o),
(488,647,o),
(557,647,qs),
(638,647,o),
(748,602,o),
(814,525,o),
(843,430,o),
(843,379,qs),
(843,299,o),
(799,191,o),
(735,137,o),
(706,137,qs),
(672,137,o),
(651,181,o),
(661,227,q),
(661,227,o),
(670,264,o),
(683,322,o),
(698,386,o),
(711,444,o),
(720,481,o),
(720,481,q),
(720,481,o),
(688,481,o),
(646,481,o),
(614,481,o),
(614,481,q),
(614,481,o),
(606,458,o),
(598,436,o),
(598,436,q),
(598,436,o),
(594,436,o),
(594,436,q),
(583,465,o),
(544,491,o),
(518,491,qs),
(470,491,o),
(386,444,o),
(322,363,o),
(285,262,o),
(285,208,qs),
(285,158,o),
(323,83,o),
(388,41,o),
(428,41,qs),
(463,41,o),
(535,81,o),
(555,114,q),
(555,114,o),
(559,114,o),
(559,114,q),
(570,72,o),
(635,31,o),
(673,31,qs),
(749,31,o),
(876,112,o),
(953,275,o),
(953,397,qs),
(953,494,o),
(864,653,o),
(695,747,o),
(574,747,qs),
(490,747,o),
(334,690,o),
(201,586,o),
(102,443,o),
(46,269,o),
(46,172,qs),
(46,77,o),
(109,-66,o),
(219,-161,o),
(359,-208,o),
(436,-208,qs),
(487,-208,o)
);
},
{
closed = 1;
nodes = (
(414,185,o),
(414,217,qs),
(414,243,o),
(430,300,o),
(459,350,o),
(498,381,o),
(521,381,qs),
(537,381,o),
(559,367,o),
(566,351,q),
(566,351,o),
(559,320,o),
(549,275,o),
(538,230,o),
(531,199,o),
(531,199,q),
(496,148,o),
(464,148,qs),
(439,148,o)
);
}
);
width = 992;
}
);
note = uni0040;
unicode = 64;
}
{
glyphname = C;
kernLeft = C;
kernRight = C;
layers = (
{
layerId = m01;
shapes = (
{
closed = 1;
nodes = (
(455,17,o),
(499,57,q),
(499,57,o),
(494,62,o),
(489,69,o),
(484,74,o),
(484,74,q),
(447,43,o),
(358,4,o),
(305,4,qs),
(232,4,o),
(140,73,o),
(96,191,o),
(96,264,qs),
(96,319,o),
(124,438,o),
(178,550,o),
(257,640,o),
(360,693,o),
(423,693,qs),
(476,693,o),
(548,647,o),
(567,606,q),
(567,606,o),
(574,609,o),
(584,614,o),
(591,617,o),
(591,617,q),
(573,661,o),
(486,721,o),
(425,721,qs),
(356,721,o),
(243,666,o),
(155,571,o),
(94,450,o),
(63,320,o),
(63,257,qs),
(63,178,o),
(116,50,o),
(223,-24,o),
(303,-24,qs),
(362,-24,o)
);
}
);
width = 584;
},
{
layerId = "0C2271EE-6BB0-42BD-9F3A-E5D7E2C847CD";
shapes = (
{
closed = 1;
nodes = (
(535,32,o),
(572,67,q),
(572,67,o),
(551,99,o),
(523,141,o),
(502,173,o),
(502,173,q),
(476,151,o),
(412,122,o),
(375,122,qs),
(328,122,o),
(266,164,o),
(237,242,o),
(237,296,qs),
(237,344,o),
(259,432,o),
(297,506,o),
(349,561,o),
(410,591,o),
(443,591,qs),
(477,591,o),
(535,567,o),
(558,535,q),
(558,535,o),
(586,564,o),
(622,603,o),
(650,632,o),
(650,632,q),
(620,684,o),
(518,738,o),
(453,738,qs),
(389,738,o),
(272,694,o),
(174,613,o),
(102,501,o),
(63,364,o),
(63,286,qs),
(63,188,o),
(134,49,o),
(260,-25,o),
(344,-25,qs),
(425,-25,o)
);
}
);
width = 645;
}
);
note = uni0043;
unicode = 67;
}
{
glyphname = K;
kernRight = K;
layers = (
{
layerId = m01;
shapes = (
{
closed = 1;
nodes = (
(50,-11,o),
(60,-11,o),
(70,-11,o),
(76,-11,o),
(76,-11,q),
(76,-11,o),
(84,27,o),
(96,88,o),
(111,156,o),
(123,217,o),
(131,255,o),
(131,255,q),
(131,255,o),
(168,290,o),
(223,341,o),
(277,392,o),
(314,427,o),
(314,427,q),
(314,427,o),
(331,380,o),
(359,301,o),
(393,208,o),
(426,115,o),
(454,36,o),
(471,-11,o),
(471,-11,q),
(471,-11,o),
(478,-11,o),
(489,-11,o),
(499,-11,o),
(506,-11,o),
(506,-11,q),
(506,-11,o),
(488,39,o),
(458,121,o),
(423,219,o),
(388,317,o),
(358,399,o),
(340,449,o),
(340,449,q),
(340,449,o),
(380,486,o),
(442,545,o),
(513,612,o),
(575,671,o),
(615,708,o),
(615,708,q),
(615,708,o),
(607,708,o),
(594,708,o),
(581,708,o),
(573,708,o),
(573,708,q),
(573,708,o),
(526,664,o),
(449,592,o),
(358,507,o),
(266,421,o),
(189,349,o),
(142,305,o),
(142,305,q),
(142,305,o),
(140,305,o),
(140,305,q),
(140,305,o),
(152,363,o),
(170,455,o),
(190,558,o),
(208,650,o),
(220,708,o),
(220,708,q),
(220,708,o),
(213,708,o),
(204,708,o),
(194,708,o),
(187,708,o),
(187,708,q),
(187,708,o),
(175,647,o),
(155,545,o),
(129,417,o),
(102,280,o),
(76,152,o),
(56,50,o),
(44,-11,o),
(44,-11,q),
(44,-11,o)
);
}
);
width = 569;
},
{
layerId = "0C2271EE-6BB0-42BD-9F3A-E5D7E2C847CD";
shapes = (
{
closed = 1;
nodes = (
(65,-11,o),
(116,-11,o),
(167,-11,o),
(201,-11,o),
(201,-11,q),
(201,-11,o),
(207.4,18.939,o),
(217,67,o),
(227,120,o),
(236.6,168.061,o),
(243,198,o),
(243,198,q),
(243,198,o),
(264,221,o),
(294,255,o),
(324.264,288.209,o),
(345,311,o),
(345,311,q),
(345,311,o),
(357,276,o),
(377,219,o),
(401.358,150,o),
(425,81,o),
(445,24,o),
(457,-11,o),
(457,-11,q),
(457,-11,o),
(493,-11,o),
(545,-11,o),
(598,-11,o),
(634,-11,o),
(634,-11,q),
(634,-11,o),
(616,35,o),
(587,112,o),
(552,203,o),
(517,294,o),
(488,371,o),
(470,417,o),
(470,417,q),
(470,417,o),
(508,461,o),
(569,532,o),
(637,610,o),
(698,681,o),
(736,725,o),
(736,725,q),
(736,725,o),
(698,725,o),
(643,725,o),
(588,725,o),
(550,725,o),
(550,725,q),
(550,725,o),
(522,694,o),
(476.625,641.72,o),
(423,580,o),
(368,519,o),
(323,467,o),
(295,436,o),
(295,436,q),
(295,436,o),
(290,436,o),
(290,436,q),
(290,436,o),
(298,478,o),
(312,544,o),
(326,617,o),
(340,683,o),
(348,725,o),
(348,725,q),
(348,725,o),
(313,725,o),
(263,725,o),
(212.412,725,o),
(177,725,o),
(177,725,q),
(177,725,o),
(165,663,o),
(144,558,o),
(117.532,427.007,o),
(90.045,286.804,o),
(63.577,155.811,o),
(43.216,51.426,o),
(31,-11,o),
(31,-11,q),
(31,-11,o)
);
}
);
width = 685;
}
);
note = uni004B;
unicode = 75;
}
{
glyphname = Q;
kernLeft = C;
kernRight = D;
layers = (
{
layerId = m01;
shapes = (
{
closed = 1;
nodes = (
(470,31,o),
(552,125,o),
(608,241,o),
(637,365,o),
(637,423,qs),
(637,510,o),
(586,645,o),
(484,721,o),
(405,721,qs),
(341,721,o),
(234,666,o),
(153,572,o),
(97,456,o),
(68,332,o),
(68,275,qs),
(68,188,o),
(118,53,o),
(221,-24,o),
(299,-24,qs),
(364,-24,o)
);
},
{
closed = 1;
nodes = (
(141,74,o),
(100,199,o),
(100,279,qs),
(100,330,o),
(125,444,o),
(175,552,o),
(248,640,o),
(344,693,o),
(403,693,qs),
(474,693,o),
(563,623,o),
(604,499,o),
(604,418,qs),
(604,367,o),
(579,253,o),
(529,145,o),
(456,57,o),
(360,4,o),
(301,4,qs),
(230,4,o)
);
},
{
closed = 1;
nodes = (
(522,-170,o),
(536,-166,q),
(536,-166,o),
(534,-157,o),
(532,-146,o),
(530,-137,o),
(530,-137,q),
(518,-141,o),
(495,-144,o),
(482,-144,qs),
(434,-144,o),
(356,-115,o),
(304,-55,o),
(296,-11,q),
(296,-11,o),
(290,-10,o),
(280,-7,o),
(270,-5,o),
(264,-4,o),
(264,-4,q),
(273,-63,o),
(335,-138,o),
(427,-174,o),
(480,-174,qs),
(496,-174,o)
);
}
);
width = 667;
},
{
layerId = "0C2271EE-6BB0-42BD-9F3A-E5D7E2C847CD";
shapes = (
{
closed = 1;
nodes = (
(515,17,o),
(611,96,o),
(683,208,o),
(723,346,o),
(723,426,qs),
(723,525,o),
(653,665,o),
(526,738,o),
(442,738,qs),
(383,738,o),
(271,696,o),
(176,617,o),
(104,506,o),
(63,367,o),
(63,287,qs),
(63,189,o),
(134,49,o),
(261,-25,o),
(346,-25,qs),
(405,-25,o)
);
},
{
closed = 1;
nodes = (
(265,157,o),
(238,238,o),
(238,297,qs),
(238,348,o),
(260,438,o),
(299,511,o),
(349,563,o),
(405,591,o),
(433,591,qs),
(470,591,o),
(521,549,o),
(548,471,o),
(548,415,qs),
(548,361,o),
(526,269,o),
(487,196,o),
(437,144,o),
(382,116,o),
(354,116,qs),
(317,116,o)
);
},
{
closed = 1;
nodes = (
(638,-209,o),
(657,-199,q),
(657,-199,o),
(649,-161,o),
(637,-111,o),
(629,-73,o),
(629,-73,q),
(613,-78,o),
(583,-83,o),
(563,-83,qs),
(531,-83,o),
(460,-62,o),
(406,-15,o),
(396,23,q),
(396,23,o),
(361,23,o),
(310,23,o),
(258,23,o),
(223,23,o),
(223,23,q),
(250,-60,o),
(343,-168,o),
(469,-220,o),
(544,-220,qs),
(576,-220,o)
);
}
);
width = 753;
}
);
note = uni0051;
unicode = 81;
}
{
glyphname = bracketleft;
kernRight = parenleft;
layers = (
{
layerId = m01;
shapes = (
{
closed = 1;
nodes = (
(52,-177,o),
(99,-177,o),
(145,-177,o),
(177,-177,o),
(177,-177,q),
(177,-177,o),
(179,-170,o),
(181,-160,o),
(183,-153,o),
(183,-153,q),
(183,-153,o),
(143,-153,o),
(90,-153,o),
(50,-153,o),
(50,-153,q),
(50,-153,o),
(65,-78,o),
(90,49,o),
(122,208,o),
(155,376,o),
(187,535,o),
(212,662,o),
(227,737,o),
(227,737,q),
(227,737,o),
(268,737,o),
(321,737,o),
(362,737,o),
(362,737,q),
(362,737,o),
(363,744,o),
(363,754,o),
(364,761,o),
(364,761,q),
(364,761,o),
(332,761,o),
(286,761,o),
(239,761,o),
(207,761,o),
(207,761,q),
(207,761,o),
(194,698,o),
(173,588,o),
(145,448,o),
(114,292,o),
(82,136,o),
(54,-4,o),
(33,-114,o),
(20,-177,o),
(20,-177,q),
(20,-177,o)
);
}
);
width = 286;
},
{
layerId = "0C2271EE-6BB0-42BD-9F3A-E5D7E2C847CD";
shapes = (
{
closed = 1;
nodes = (
(40.392,-183,o),
(110,-183,o),
(180,-183,o),
(227,-183,o),
(227,-183,q),
(227,-183,o),
(233,-156,o),
(240,-119,o),
(246,-92,o),
(246,-92,q),
(246,-92,o),
(213,-92,o),
(171,-92,o),
(138,-92,o),
(138,-92,q),
(138,-92,o),
(151,-25,o),
(174,88,o),
(202,228,o),
(232,379,o),
(260,519,o),
(283,632,o),
(296,699,o),
(296,699,q),
(296,699,o),
(329.104,699,o),
(371.896,699,o),
(405,699,o),
(405,699,q),
(405,699,o),
(410,726,o),
(416,762,o),
(421,789,o),
(421,789,q),
(421,789,o),
(373.51,789,o),
(305.242,789,o),
(235.49,789,o),
(188,789,o),
(188,789,q),
(188,789,o),
(175,723,o),
(152,610,o),
(123.059,464.797,o),
(91.017,303,o),
(57.941,141.203,o),
(29,-4,o),
(6,-117,o),
(-7,-183,o),
(-7,-183,q),
(-7,-183,o)
);
}
);
width = 382;
}
);
note = uni005B;
unicode = 91;
}
{
glyphname = backslash;
kernLeft = backslash;
kernRight = backslash;
layers = (
{
layerId = m01;
shapes = (
{
closed = 1;
nodes = (
(267,-185,o),
(278,-185,o),
(286,-185,o),
(286,-185,q),
(286,-185,o),
(275,-121,o),
(256,-10,o),
(232,131,o),
(205,289,o),
(178,447,o),
(154,588,o),
(135,699,o),
(124,763,o),
(124,763,q),
(124,763,o),
(116,763,o),
(106,763,o),
(98,763,o),
(98,763,q),
(98,763,o),
(109,699,o),
(128,588,o),
(152,447,o),
(179,289,o),
(205,131,o),
(229,-10,o),
(248,-121,o),
(259,-185,o),
(259,-185,q),
(259,-185,o)
);
}
);
width = 382;
},
{
layerId = "0C2271EE-6BB0-42BD-9F3A-E5D7E2C847CD";
shapes = (
{
closed = 1;
nodes = (
(203.593,-192,o),
(248.407,-192,o),
(281,-192,o),
(281,-192,q),
(281,-192,o),
(276,-126,o),
(267.163,-10.595,o),
(256,136,o),
(243,299,o),
(230.294,463.341,o),
(219,610,o),
(210.133,724.806,o),
(205,791,o),
(205,791,q),
(205,791,o),
(172,791,o),
(128,791,o),
(95,791,o),
(95,791,q),
(95,791,o),
(100,725,o),
(108.837,609.595,o),
(120,463,o),
(133,300,o),
(146,136,o),
(157,-11,o),
(165.867,-125.806,o),
(171,-192,o),
(171,-192,q),
(171,-192,o)
);
}
);
width = 368;
}
);
note = uni005C;
unicode = 92;
}
{
glyphname = bracketright;
kernLeft = parenright;
layers = (
{
layerId = m01;
shapes = (
{
closed = 1;
nodes = (
(-38,-177,o),
(10,-177,o),
(57,-177,o),
(89,-177,o),
(89,-177,q),
(89,-177,o),
(102,-114,o),
(124,-4,o),
(152,136,o),
(183,292,o),
(214,448,o),
(242,588,o),
(264,698,o),
(277,761,o),
(277,761,q),
(277,761,o),
(245,761,o),
(197,761,o),
(150,761,o),
(118,761,o),
(118,761,q),
(118,761,o),
(116,754,o),
(115,744,o),
(113,737,o),
(113,737,q),
(113,737,o),
(154,737,o),
(208,737,o),
(249,737,o),
(249,737,q),
(249,737,o),
(234,662,o),
(208,535,o),
(176,376,o),
(141,208,o),
(109,49,o),
(83,-78,o),
(68,-153,o),
(68,-153,q),
(68,-153,o),
(28,-153,o),
(-25,-153,o),
(-65,-153,o),
(-65,-153,q),
(-65,-153,o),
(-67,-160,o),
(-68,-170,o),
(-70,-177,o),
(-70,-177,q),
(-70,-177,o)
);
}
);
width = 286;
},
{
layerId = "0C2271EE-6BB0-42BD-9F3A-E5D7E2C847CD";
shapes = (
{
closed = 1;
nodes = (
(18.8,-183,o),
(89,-183,o),
(158.608,-183,o),
(206,-183,o),
(206,-183,q),
(206,-183,o),
(219,-117,o),
(242,-4,o),
(271,142,o),
(302.992,303.491,o),
(334.984,464.982,o),
(363.88,609.91,o),
(386.584,723.782,o),
(400,789,o),
(400,789,q),
(400,789,o),
(353.2,789,o),
(283,789,o),
(213.392,789,o),
(166,789,o),
(166,789,q),
(166,789,o),
(161,762,o),
(154,726,o),
(149,699,o),
(149,699,q),
(149,699,o),
(180.956,699,o),
(223.044,699,o),
(255,699,o),
(255,699,q),
(255,699,o),
(241.829,632.168,o),
(219,519,o),
(191,379,o),
(161,228,o),
(133,88,o),
(110.171,-25.168,o),
(97,-92,o),
(97,-92,q),
(97,-92,o),
(65.12,-92,o),
(22.88,-92,o),
(-9,-92,o),
(-9,-92,q),
(-9,-92,o),
(-15,-119,o),
(-22,-156,o),
(-28,-183,o),
(-28,-183,q),
(-28,-183,o)
);
}
);
width = 382;
}
);
note = uni005D;
unicode = 93;
}
{
glyphname = asciicircum;
layers = (
{
layerId = m01;
shapes = (
{
closed = 1;
nodes = (
(106,305,o),
(116,305,o),
(125,305,o),
(131,305,o),
(131,305,q),
(131,305,o),
(149,352,o),
(175,421,o),
(200,489,o),
(218,536,o),
(218,536,q),
(218,536,o),
(229,565,o),
(244,608,o),
(259,651,o),
(270,680,o),
(270,680,q),
(270,680,o),
(273,680,o),
(273,680,q),
(273,680,o),
(284,651,o),
(299,608,o),
(314,565,o),
(325,536,o),
(325,536,q),
(325,536,o),
(343,489,o),
(369,421,o),
(394,352,o),
(412,305,o),
(412,305,q),
(412,305,o),
(418,305,o),
(426,305,o),
(434,305,o),
(440,305,o),
(440,305,q),
(440,305,o),
(423,350,o),
(395,424,o),
(362,512,o),
(328,600,o),
(300,674,o),
(283,719,o),
(283,719,q),
(283,719,o),
(275,719,o),
(265,719,o),
(257,719,o),
(257,719,q),
(257,719,o),
(240,674,o),
(212,600,o),
(179,512,o),
(145,424,o),
(117,350,o),
(100,305,o),
(100,305,q),
(100,305,o)
);
}
);
width = 499;
},
{
layerId = "0C2271EE-6BB0-42BD-9F3A-E5D7E2C847CD";
shapes = (
{
closed = 1;
nodes = (
(107,297,o),
(148,297,o),
(189.4,297,o),
(217,297,o),
(217,297,q),
(217,297,o),
(226,326,o),
(240.275,368.307,o),
(254,410,o),
(263,439,o),
(263,439,q),
(263,439,o),
(273,470,o),
(289,516,o),
(304,561,o),
(314,592,o),
(314,592,q),
(314,592,o),
(319,592,o),
(319,592,q),
(319,592,o),
(328,561,o),
(343,516,o),
(357,470,o),
(366,439,o),
(366,439,q),
(366,439,o),
(375,410,o),
(389.275,368.307,o),
(403,326,o),
(412,297,o),
(412,297,q),
(412,297,o),
(440,297,o),
(481.5,297,o),
(523,297,o),
(551,297,o),
(551,297,q),
(551,297,o),
(533,346,o),
(502.705,426.395,o),
(467,522,o),
(430.418,617.227,o),
(400.291,697.304,o),
(382,746,o),
(382,746,q),
(382,746,o),
(341,746,o),
(288,746,o),
(247,746,o),
(247,746,q),
(247,746,o),
(229,697,o),
(198.705,617.062,o),
(163,522,o),
(126.848,426.348,o),
(97.076,345.913,o),
(79,297,o),
(79,297,q),
(79,297,o)
);
}
);
width = 579;
}
);
note = uni005E;
unicode = 94;
}
{
glyphname = underscore;
layers = (
{
layerId = m01;
shapes = (
{
closed = 1;
nodes = (
(26,-133,o),
(115,-133,o),
(222,-133,o),
(328,-133,o),
(417,-133,o),
(471,-133,o),
(471,-133,q),
(471,-133,o),
(473,-124,o),
(475,-112,o),
(477,-103,o),
(477,-103,q),
(477,-103,o),
(423,-103,o),
(334,-103,o),
(228,-103,o),
(121,-103,o),
(32,-103,o),
(-22,-103,o),
(-22,-103,q),
(-22,-103,o),
(-24,-112,o),
(-26,-124,o),
(-28,-133,o),
(-28,-133,q),
(-28,-133,o)
);
}
);
width = 528;
},
{
layerId = "0C2271EE-6BB0-42BD-9F3A-E5D7E2C847CD";
shapes = (
{
closed = 1;
nodes = (
(-0.269,-171,o),
(91.585,-171,o),
(202.016,-171,o),
(311.415,-171,o),
(403.269,-171,o),
(459,-171,o),
(459,-171,q),
(459,-171,o),
(465.333,-142.8,o),
(471.667,-105.2,o),
(478,-77,o),
(478,-77,q),
(478,-77,o),
(422.048,-77,o),
(329.831,-77,o),
(220,-77,o),
(111,-77,o),
(18.888,-77,o),
(-37,-77,o),
(-37,-77,q),
(-37,-77,o),
(-43.333,-105.2,o),
(-49.667,-142.8,o),
(-56,-171,o),
(-56,-171,q),
(-56,-171,o)
);
}
);
width = 542;
}
);
note = uni005F;
unicode = 95;
}
{
glyphname = grave;
layers = (
{
layerId = m01;
shapes = (
{
closed = 1;
nodes = (
(420,610,o),
(432,610,o),
(440,610,o),
(440,610,q),
(440,610,o),
(415,643,o),
(377,692,o),
(339,741,o),
(314,774,o),
(314,774,q),
(314,774,o),
(307,774,o),
(297,774,o),
(286,774,o),
(279,774,o),
(279,774,q),
(279,774,o),
(277,769,o),
(277,769,q),
(277,769,o),
(304,737,o),
(344,690,o),
(385,642,o),
(412,610,o),
(412,610,q),
(412,610,o)
);
}
);
width = 549;
},
{
layerId = "0C2271EE-6BB0-42BD-9F3A-E5D7E2C847CD";
shapes = (
{
closed = 1;
nodes = (
(374,633,o),
(425,633,o),
(463,633,o),
(463,633,q),
(463,633,o),
(446,676,o),
(422,738.5,o),
(398,801,o),
(381,844,o),
(381,844,q),
(381,844,o),
(343.941,844,o),
(291,844,o),
(237,844,o),
(199.667,844,o),
(199.667,844,q),
(199.667,844,o),
(189,825,o),
(189,825,q),
(189,825,o),
(218.821,786.114,o),
(263,729,o),
(306,672,o),
(336,633,o),
(336,633,q),
(336,633,o)
);
}
);
width = 607;
}
);
note = uni0060;
unicode = 96;
}
{
glyphname = a;
kernLeft = a;
kernRight = a;
layers = (
{
layerId = m01;
shapes = (
{
closed = 1;
nodes = (
(358,31,o),
(399,74,q),
(399,74,o),
(403,74,o),
(403,74,q),
(403,74,o),
(399,48,o),
(394,15,o),
(390,-11,o),
(390,-11,q),
(390,-11,o),
(395,-11,o),
(403,-11,o),
(411,-11,o),
(416,-11,o),
(416,-11,q),
(416,-11,o),
(427,45,o),
(446,138,o),
(468,249,o),
(491,361,o),
(510,454,o),
(521,510,o),
(521,510,q),
(521,510,o),
(516,510,o),
(508,510,o),
(500,510,o),
(495,510,o),
(495,510,q),
(495,510,o),
(489,488,o),
(481,458,o),
(475,436,o),
(475,436,q),
(475,436,o),
(471,436,o),
(471,436,q),
(450,475,o),
(381,523,o),
(334,523,qs),
(280,523,o),
(178,468,o),
(98,369,o),
(50,238,o),
(50,163,qs),
(50,72,o),
(134,-24,o),
(203,-24,qs),
(259,-24,o)
);
},
{
closed = 1;
nodes = (
(81,87,o),
(81,170,qs),
(81,230,o),
(122,346,o),
(193,440,o),
(282,495,o),
(331,495,qs),
(371,495,o),
(438,448,o),
(469,394,q),
(469,394,o),
(461,355,o),
(448,293,o),
(433,223,o),
(420,161,o),
(412,122,o),
(412,122,q),
(363,67,o),
(259,4,o),
(205,4,qs),
(148,4,o)
);
}
);
width = 571;
},
{
layerId = "0C2271EE-6BB0-42BD-9F3A-E5D7E2C847CD";
shapes = (
{
closed = 1;
nodes = (
(326,21,o),
(363,60,q),
(363,60,o),
(366,60,o),
(366,60,q),
(366,60,o),
(366,39,o),
(365,10,o),
(365,-11,o),
(365,-11,q),
(365,-11,o),
(393,-11,o),
(434,-11,o),
(475,-11,o),
(503,-11,o),
(503,-11,q),
(503,-11,o),
(515,50,o),
(535,150,o),
(560,270,o),
(584.095,390.741,o),
(604,491,o),
(616,552,o),
(616,552,q),
(616,552,o),
(588,552,o),
(547.5,552,o),
(507,552,o),
(479,552,o),
(479,552,q),
(479,552,o),
(472,534,o),
(462,512,o),
(455,494,o),
(455,494,q),
(455,494,o),
(453,494,o),
(453,494,q),
(437,527,o),
(370,565,o),
(333,565,qs),
(275,565,o),
(167,506,o),
(82,402,o),
(33,263,o),
(33,181.675,qs),
(33,83,o),
(118,-25,o),
(191,-25,qs),
(233,-25,o)
);
},
{
closed = 1;
nodes = (
(209,158.5,o),
(209,204,qs),
(209,253,o),
(232,334,o),
(270,394,o),
(319.014,427,o),
(346,427,qs),
(363,427,o),
(401,405,o),
(412,380,q),
(412,380,o),
(406.807,353.044,o),
(398.368,310.191,o),
(388.632,261.809,o),
(380.193,218.956,o),
(375,192,o),
(375,192,q),
(350,146,o),
(291,113,o),
(266.676,113,qs),
(241,113,o)
);
}
);
width = 627;
}
);
note = uni0061;
unicode = 97;
}
{
glyphname = f;
kernLeft = f;
kernRight = f;
layers = (
{
layerId = m01;
shapes = (
{
closed = 1;
nodes = (
(58,-11,o),
(68,-11,o),
(77,-11,o),
(83,-11,o),
(83,-11,q),
(83,-11,o),
(94,42,o),
(111,130,o),
(132,235,o),
(153,341,o),
(170,429,o),
(181,482,o),
(181,482,q),
(181,482,o),
(217,482,o),
(263,482,o),
(299,482,o),
(299,482,q),
(299,482,o),
(301,490,o),
(303,502,o),
(305,510,o),
(305,510,q),
(305,510,o),
(269,510,o),
(223,510,o),
(187,510,o),
(187,510,q),
(187,510,o),
(195,550,o),
(206,601,o),
(214,641,o),
(214,641,q),
(224,688,o),
(276,761,o),
(316,761,qs),
(339,761,o),
(369,751,o),
(382,743,q),
(382,743,o),
(386,750,o),
(391,758,o),
(395,765,o),
(395,765,q),
(382,775,o),
(344,789,o),
(318,789,qs),
(288,789,o),
(234,758,o),
(194,692,o),
(183,641,q),
(183,641,o),
(175,601,o),
(165,550,o),
(157,510,o),
(157,510,q),
(157,510,o),
(135,509,o),
(105,507,o),
(83,506,o),
(83,506,q),
(83,506,o),
(81,499,o),
(78,489,o),
(76,482,o),
(76,482,q),
(76,482,o),
(98,482,o),
(128,482,o),
(150,482,o),
(150,482,q),
(150,482,o),
(139,429,o),
(122,341,o),
(101,236,o),
(80,130,o),
(63,42,o),
(52,-11,o),
(52,-11,q),
(52,-11,o)
);
}
);
width = 268;
},
{
layerId = "0C2271EE-6BB0-42BD-9F3A-E5D7E2C847CD";
shapes = (
{
closed = 1;
nodes = (
(74,-11,o),
(125,-11,o),
(176,-11,o),
(210,-11,o),
(210,-11,q),
(210,-11,o),
(219,36,o),
(234.211,113.057,o),
(253,205,o),
(271,296,o),
(286,373,o),
(294.953,420,o),
(294.953,420,q),
(294.953,420,o),
(324.256,420,o),
(361.698,420,o),
(391,420,o),
(391,420,q),
(391,420,o),
(399,460,o),
(409,512,o),
(417,552,o),
(417,552,q),
(417,552,o),
(388.017,552,o),
(350.983,552,o),
(322,552,o),
(322,552,q),
(322,552,o),
(324.074,561.466,o),
(326.926,573.534,o),
(329,583,o),
(329,583,q),
(337,629,o),
(373.174,657,o),
(401,657,qs),
(415,657,o),
(447,648,o),
(457,643,q),
(457,643,o),
(473,678,o),
(494,725,o),
(510,760,o),
(510,760,q),
(482,775,o),
(418,791,o),
(384,791,qs),
(316,791,o),
(224,732,o),
(170,635,o),
(158,577,q),
(158,577,o),
(157.077,569.366,o),
(155.923,559.634,o),
(155,552,o),
(155,552,q),
(155,552,o),
(131,550,o),
(100,548,o),
(76,546,o),
(76,546,q),
(76,546,o),
(68,508,o),
(58,458,o),
(50,420,o),
(50,420,q),
(50,420,o),
(72.892,420,o),
(104.108,420,o),
(127,420,o),
(127,420,q),
(127,420,o),
(118,373,o),
(102,296,o),
(83,205,o),
(65,113,o),
(49,36,o),
(40,-11,o),
(40,-11,q),
(40,-11,o)
);
}
);
width = 381;
}
);
note = uni0066;
unicode = 102;
}
{
glyphname = q;
kernLeft = a;
kernRight = q;
layers = (
{
layerId = m01;
shapes = (
{
closed = 1;
nodes = (
(344,-253,o),
(353,-253,o),
(362,-253,o),
(368,-253,o),
(368,-253,q),
(368,-253,o),
(381,-189,o),
(403,-80,o),
(430,56,o),
(459,201,o),
(486,337,o),
(508,446,o),
(521,510,o),
(521,510,q),
(521,510,o),
(516,510,o),
(508,510,o),
(500,510,o),
(495,510,o),
(495,510,q),
(495,510,o),
(489,488,o),
(481,458,o),
(475,436,o),
(475,436,q),
(475,436,o),
(471,436,o),
(471,436,q),
(450,475,o),
(381,523,o),
(334,523,qs),
(280,523,o),
(178,468,o),
(98,369,o),
(50,238,o),
(50,163,qs),
(50,72,o),
(134,-24,o),
(203,-24,qs),
(259,-24,o),
(358,32,o),
(401,76,q),
(401,76,o),
(403,76,o),
(403,76,q),
(403,76,o),
(398,49,o),
(390,9,o),
(382,-30,o),
(377,-57,o),
(377,-57,q),
(377,-57,o),
(369,-97,o),
(357,-155,o),
(346,-213,o),
(338,-253,o),
(338,-253,q),
(338,-253,o)
);
},
{
closed = 1;
nodes = (
(81,87,o),
(81,170,qs),
(81,230,o),
(122,346,o),
(193,440,o),
(282,495,o),
(331,495,qs),
(371,495,o),
(438,448,o),
(469,394,q),
(469,394,o),
(461,355,o),
(448,293,o),
(433,223,o),
(420,161,o),
(412,122,o),
(412,122,q),
(363,67,o),
(259,4,o),
(205,4,qs),
(148,4,o)
);
}
);
width = 567;
},
{
layerId = "0C2271EE-6BB0-42BD-9F3A-E5D7E2C847CD";
shapes = (
{
closed = 1;
nodes = (
(326,-213,o),
(377,-213,o),
(428,-213,o),
(462,-213,o),
(462,-213,q),
(462,-213,o),
(475,-148.63,o),
(497,-39,o),
(524.482,97,o),
(554,242,o),
(581,378.44,o),
(603,487.793,o),
(616,552,o),
(616,552,q),
(616,552,o),
(588,552,o),
(547.5,552,o),
(507,552,o),
(479,552,o),
(479,552,q),
(479,552,o),
(472,534,o),
(462,512,o),
(455,494,o),
(455,494,q),
(455,494,o),
(452.12,494,o),
(452.12,494,q),
(437,527,o),
(370,565,o),
(333,565,qs),
(275,565,o),
(167,506,o),
(82,402,o),
(33,263,o),
(33,181.675,qs),
(33,83,o),
(118,-25,o),
(191,-25,qs),
(233,-25,o),
(326,21,o),
(364,60,q),
(364,60,o),
(366,60,o),
(366,60,q),
(366,60,o),
(357,34,o),
(344,-4,o),
(331,-43,o),
(322,-69,o),
(322,-69,q),
(322,-69,o),
(315.846,-98.388,o),
(306.615,-141,o),
(298.154,-183.612,o),
(292,-213,o),
(292,-213,q),
(292,-213,o)
);
},
{
closed = 1;
nodes = (
(209,158,o),
(209,204,qs),
(209,253,o),
(232,334,o),
(270,394,o),
(319.014,427,o),
(346,427,qs),
(363,427,o),
(401,405,o),
(412,380,q),
(412,380,o),
(406.807,353.044,o),
(398.368,310.191,o),
(388.632,261.809,o),
(380.193,218.956,o),
(375,192,o),
(375,192,q),
(349,146,o),
(291,114,o),
(266.676,114,qs),
(241,114,o)
);
}
);
width = 627;
}
);
note = uni0071;
unicode = 113;
}
{
glyphname = r;
kernLeft = m;
kernRight = r;
layers = (
{
layerId = m01;
shapes = (
{
closed = 1;
nodes = (
(54,-11,o),
(63,-11,o),
(72,-11,o),
(78,-11,o),
(78,-11,q),
(78,-11,o),
(88,40,o),
(104,120,o),
(122,209,o),
(138,289,o),
(148,340,o),
(148,340,q),
(184,412,o),
(280,493,o),
(323,493,qs),
(337,493,o),
(355,489,o),
(362,486,q),
(362,486,o),
(365,492,o),
(369,500,o),
(372,508,o),
(375,514,o),
(375,514,q),
(364,519,o),
(339,523,o),
(329,523,qs),
(279,523,o),
(198,458,o),
(166,412,q),
(166,412,o),
(161,412,o),
(161,412,q),
(161,412,o),
(166,442,o),
(174,480,o),
(179,510,o),
(179,510,q),
(179,510,o),
(174,510,o),
(166,510,o),
(158,510,o),
(153,510,o),
(153,510,q),
(153,510,o),
(142,454,o),
(123,361,o),
(101,250,o),
(78,138,o),
(59,45,o),
(48,-11,o),
(48,-11,q),
(48,-11,o)
);
}
);
width = 336;
},
{
layerId = "0C2271EE-6BB0-42BD-9F3A-E5D7E2C847CD";
shapes = (
{
closed = 1;
nodes = (
(46,-11,o),
(97,-11,o),
(148,-11,o),
(182,-11,o),
(182,-11,q),
(182,-11,o),
(191,35,o),
(205.118,108.373,o),
(221,190,o),
(235.154,262.672,o),
(244,309,o),
(244,309,q),
(276,367,o),
(342,416,o),
(379,416,qs),
(393,416,o),
(424,414,o),
(436,408,q),
(436,408,o),
(447,438,o),
(464,482,o),
(481,525,o),
(492,555,o),
(492,555,q),
(483,560,o),
(455,565,o),
(432,565,qs),
(383,565,o),
(294,495,o),
(262,442,q),
(262,442,o),
(258,442,o),
(258,442,q),
(258,442,o),
(260,475,o),
(261,519,o),
(263,552,o),
(263,552,q),
(263,552,o),
(235,552,o),
(193.5,552,o),
(152,552,o),
(124,552,o),
(124,552,q),
(124,552,o),
(112,491,o),
(91.61,390.706,o),
(68,271,o),
(43.905,150.259,o),
(24,50,o),
(12,-11,o),
(12,-11,q),
(12,-11,o)
);
}
);
width = 444;
}
);
note = uni0072;
unicode = 114;
}
{
glyphname = v;
kernLeft = v;
kernRight = v;
layers = (
{
layerId = m01;
shapes = (
{
closed = 1;
nodes = (
(156,-11,o),
(169,-11,o),
(182,-11,o),
(190,-11,o),
(190,-11,q),
(190,-11,o),
(221,45,o),
(272,138,o),
(334,249,o),
(395,361,o),
(446,454,o),
(477,510,o),
(477,510,q),
(477,510,o),
(471,510,o),
(461,510,o),
(451,510,o),
(445,510,o),
(445,510,q),
(445,510,o),
(418,461,o),
(376,383,o),
(328,297,o),
(286,219,o),
(259,170,o),
(259,170,q),
(238,133,o),
(197,55,o),
(177,17,q),
(177,17,o),
(172,17,o),
(172,17,q),
(166,53,o),
(155,133,o),
(148,170,q),
(148,170,o),
(140,219,o),
(128,297,o),
(114,383,o),
(102,461,o),
(94,510,o),
(94,510,q),
(94,510,o),
(88,510,o),
(79,510,o),
(69,510,o),
(63,510,o),
(63,510,q),
(63,510,o),
(72,454,o),
(87,361,o),
(106,250,o),
(124,138,o),
(139,45,o),
(148,-11,o),
(148,-11,q),
(148,-11,o)
);
}
);
width = 445;
},
{
layerId = "0C2271EE-6BB0-42BD-9F3A-E5D7E2C847CD";
shapes = (
{
closed = 1;
nodes = (
(177,-11,o),
(235,-11,o),
(293,-11,o),
(333,-11,o),
(333,-11,q),
(333,-11,o),
(364,50,o),
(414.32,150.276,o),
(475.493,269.961,o),
(535.68,390.724,o),
(586,491,o),
(617,552,o),
(617,552,q),
(617,552,o),
(583,552,o),
(534,552,o),
(485,552,o),
(451,552,o),
(451,552,q),
(451,552,o),
(433.783,513.803,o),
(407,453,o),
(378,386,o),
(351.217,325.197,o),
(334,287,o),
(334,287,q),
(315,244,o),
(280,158,o),
(261,114,q),
(261,114,o),
(257,114,o),
(257,114,q),
(256,159,o),
(254,246,o),
(252,287,q),
(252,287,o),
(249.778,325.191,o),
(246.444,385.985,o),
(242.556,453.015,o),
(239.222,513.809,o),
(237,552,o),
(237,552,q),
(237,552,o),
(203.4,552,o),
(153,552,o),
(102,552,o),
(68,552,o),
(68,552,q),
(68,552,o),
(75,491,o),
(88,391,o),
(102,271,o),
(117.273,150.259,o),
(130,50,o),
(137,-11,o),
(137,-11,q),
(137,-11,o)
);
}
);
width = 576;
}
);
note = uni0076;
unicode = 118;
}
{
glyphname = x;
kernLeft = x;
kernRight = x;
layers = (
{
layerId = m01;
shapes = (
{
closed = 1;
nodes = (
(-45,-11,o),
(-33,-11,o),
(-22,-11,o),
(-15,-11,o),
(-15,-11,q),
(-15,-11,o),
(12,19,o),
(52,64,o),
(91,109,o),
(118,139,o),
(118,139,q),
(142,165,o),
(186,213,o),
(205,238,q),
(205,238,o),
(209,238,o),
(209,238,q),
(221,213,o),
(243,162,o),
(253,137,q),
(253,137,o),
(265,107,o),
(283,63,o),
(300,19,o),
(312,-11,o),
(312,-11,q),
(312,-11,o),
(318,-11,o),
(328,-11,o),
(338,-11,o),
(344,-11,o),
(344,-11,q),
(344,-11,o),
(328,28,o),
(302,89,o),
(273,157,o),
(247,218,o),
(231,257,o),
(231,257,q),
(231,257,o),
(263,294,o),
(314,351,o),
(370,416,o),
(421,473,o),
(453,510,o),
(453,510,q),
(453,510,o),
(446,510,o),
(436,510,o),
(426,510,o),
(419,510,o),
(419,510,q),
(419,510,o),
(394,482,o),
(358,442,o),
(321,401,o),
(296,373,o),
(296,373,q),
(277,350,o),
(238,307,o),
(218,285,q),
(218,285,o),
(214,285,o),
(214,285,q),
(204,308,o),
(189,348,o),
(179,373,q),
(179,373,o),
(167,401,o),
(151,442,o),
(134,482,o),
(122,510,o),
(122,510,q),
(122,510,o),
(115,510,o),
(106,510,o),
(96,510,o),
(89,510,o),
(89,510,q),
(89,510,o),
(104,474,o),
(128,418,o),
(155,356,o),
(179,300,o),
(194,264,o),
(194,264,q),
(194,264,o),
(158,224,o),
(102,162,o),
(40,91,o),
(-16,29,o),
(-52,-11,o),
(-52,-11,q),
(-52,-11,o)
);
}
);
width = 414;
},
{
layerId = "0C2271EE-6BB0-42BD-9F3A-E5D7E2C847CD";
shapes = (
{
closed = 1;
nodes = (
(-7,-11,o),
(47,-11,o),
(101,-11,o),
(138,-11,o),
(138,-11,q),
(138,-11,o),
(149.977,7,o),
(167.722,34,o),
(185.023,61,o),
(197,79,o),
(197,79,q),
(212,105,o),
(242,154,o),
(257,178,q),
(257,178,o),
(261,178,o),
(261,178,q),
(269,154,o),
(284,103,o),
(292,79,q),
(292,79,o),
(298,60.757,o),
(307,34,o),
(317,7,o),
(323,-11,o),
(323,-11,q),
(323,-11,o),
(358,-11,o),
(410,-11,o),
(462,-11,o),
(497,-11,o),
(497,-11,q),
(497,-11,o),
(482.416,27.272,o),
(458.717,87.134,o),
(432.283,153.866,o),
(408.584,213.728,o),
(394,252,o),
(394,252,q),
(394,252,o),
(425,295,o),
(475,364,o),
(531,440,o),
(581,509,o),
(612,552,o),
(612,552,q),
(612,552,o),
(576,552,o),
(522,552,o),
(468,552,o),
(432,552,o),
(432,552,q),
(432,552,o),
(422.041,533.197,o),
(407.699,506.336,o),
(392.959,478.803,o),
(383,460,o),
(383,460,q),
(370,437,o),
(342.237,389.369,o),
(328,365,q),
(328,365,o),
(323,365,o),
(323,365,q),
(317,389,o),
(304,437,o),
(297,460,q),
(297,460,o),
(290.684,478.803,o),
(282.263,506.336,o),
(273.316,533.197,o),
(267,552,o),
(267,552,q),
(267,552,o),
(232,552,o),
(181,552,o),
(130.412,552,o),
(95,552,o),
(95,552,q),
(95,552,o),
(108.846,514.043,o),
(131,455,o),
(155,388,o),
(177.154,328.957,o),
(191,291,o),
(191,291,q),
(191,291,o),
(156.957,247.078,o),
(104,179,o),
(43,101,o),
(-9.957,32.922,o),
(-44,-11,o),
(-44,-11,q),
(-44,-11,o)
);
}
);
width = 570;
}
);
note = uni0078;
unicode = 120;
}
{
glyphname = z;
kernLeft = z;
kernRight = z;
layers = (
{
layerId = m01;
shapes = (
{
closed = 1;
nodes = (
(28,-11,o),
(92,-11,o),
(168,-11,o),
(244,-11,o),
(308,-11,o),
(347,-11,o),
(347,-11,q),
(347,-11,o),
(349,-3,o),
(351,9,o),
(353,17,o),
(353,17,q),
(353,17,o),
(307,17,o),
(235,17,o),
(153,17,o),
(81,17,o),
(35,17,o),
(35,17,q),
(35,17,o),
(79,68,o),
(151,153,o),
(238,254,o),
(324,354,o),
(396,439,o),
(440,490,o),
(440,490,q),
(440,490,o),
(441,496,o),
(442,504,o),
(443,510,o),
(443,510,q),
(443,510,o),
(397,510,o),
(325,510,o),
(244,510,o),
(172,510,o),
(126,510,o),
(126,510,q),
(126,510,o),
(124,502,o),
(122,490,o),
(120,482,o),
(120,482,q),
(120,482,o),
(160,482,o),
(223,482,o),
(294,482,o),
(357,482,o),
(397,482,o),
(397,482,q),
(397,482,o),
(353,431,o),
(281,346,o),
(194,246,o),
(107,145,o),
(35,60,o),
(-9,9,o),
(-9,9,q),
(-9,9,o),
(-10,3,o),
(-10,-5,o),
(-11,-11,o),
(-11,-11,q),
(-11,-11,o)
);
}
);
width = 419;
},
{
layerId = "0C2271EE-6BB0-42BD-9F3A-E5D7E2C847CD";
shapes = (
{
closed = 1;
nodes = (
(36.497,-11,o),
(114.441,-11,o),
(207,-11,o),
(299.559,-11,o),
(377.503,-11,o),
(425,-11,o),
(425,-11,q),
(425,-11,o),
(433,29,o),
(442,81,o),
(450,121,o),
(450,121,q),
(450,121,o),
(417.742,121,o),
(367.252,121,o),
(309.748,121,o),
(259.258,121,o),
(227,121,o),
(227,121,q),
(227,121,o),
(257.637,157.013,o),
(307.77,217.034,o),
(368.348,288.353,o),
(428.23,358.966,o),
(478.363,418.987,o),
(509,455,o),
(509,455,q),
(509,455,o),
(515.333,484.1,o),
(521.667,522.9,o),
(528,552,o),
(528,552,q),
(528,552,o),
(470,552,o),
(377,552,o),
(273.613,552,o),
(181.714,552,o),
(123,552,o),
(123,552,q),
(123,552,o),
(115,512,o),
(105,460,o),
(97,420,o),
(97,420,q),
(97,420,o),
(124.726,420,o),
(168.394,420,o),
(217.606,420,o),
(261.274,420,o),
(289,420,o),
(289,420,q),
(289,420,o),
(259,384,o),
(208,324,o),
(149,253,o),
(89,181,o),
(38,121,o),
(8,85,o),
(8,85,q),
(8,85,o),
(2,56,o),
(-5,18,o),
(-11,-11,o),
(-11,-11,q),
(-11,-11,o)
);
}
);
width = 510;
}
);
note = uni007A;
unicode = 122;
}
{
glyphname = braceleft;
kernRight = parenleft;
layers = (
{
layerId = m01;
shapes = (
{
closed = 1;
nodes = (
(152,-177,o),
(164,-177,o),
(174,-177,o),
(174,-177,q),
(174,-177,o),
(176,-170,o),
(179,-160,o),
(181,-153,o),
(181,-153,q),
(181,-153,o),
(164,-153,o),
(148,-153,o),
(148,-153,q),
(108,-153,o),
(78,-120,o),
(78,-87,qs),
(78,-59,o),
(97,24,o),
(123,116,o),
(142,201,o),
(142,229,qs),
(142,246,o),
(128,277,o),
(102,288,q),
(102,288,o),
(102,292,o),
(102,292,q),
(137,302,o),
(171,360,o),
(181,408,qs),
(191,460,o),
(206,570,o),
(216,619,qs),
(227,678,o),
(272,737,o),
(323,737,q),
(323,737,o),
(341,737,o),
(358,737,o),
(358,737,q),
(358,737,o),
(359,744,o),
(361,754,o),
(362,761,o),
(362,761,q),
(362,761,o),
(351,761,o),
(338,761,o),
(327,761,o),
(327,761,q),
(289,761,o),
(235,737,o),
(201,678,o),
(190,623,qs),
(182,586,o),
(170,507,o),
(160,429,o),
(153,394,qs),
(149,373,o),
(127,332,o),
(84,305,o),
(46,305,q),
(46,305,o),
(44,297,o),
(41,287,o),
(39,279,o),
(39,279,q),
(72,279,o),
(105,261,o),
(116,235,o),
(116,222,qs),
(116,195,o),
(96,111,o),
(70,18,o),
(50,-67,o),
(50,-96,qs),
(50,-139,o),
(96,-177,o),
(142,-177,q),
(142,-177,o)
);
}
);
width = 283;
},
{
layerId = "0C2271EE-6BB0-42BD-9F3A-E5D7E2C847CD";
shapes = (
{
closed = 1;
nodes = (
(184,-183,o),
(213,-183,o),
(235,-183,o),
(235,-183,q),
(235,-183,o),
(240,-156,o),
(248,-119,o),
(253,-92,o),
(253,-92,q),
(253,-92,o),
(244,-92,o),
(235,-92,o),
(235,-92,q),
(209,-92,o),
(191,-75,o),
(191,-53,qs),
(191,-30,o),
(206,38,o),
(227,114,o),
(242,187,o),
(242,215,qs),
(242,253,o),
(208,289,o),
(174,296,q),
(174,296,o),
(175,301,o),
(175,301,q),
(221,311,o),
(277,373,o),
(290,440,qs),
(300,489,o),
(313,576,o),
(321,620,qs),
(330,664,o),
(359,699,o),
(392,699,q),
(392,699,o),
(402,699,o),
(411,699,o),
(411,699,q),
(411,699,o),
(417,726,o),
(425,762,o),
(431,789,o),
(431,789,q),
(431,789,o),
(408,789,o),
(378,789,o),
(355,789,o),
(355,789,q),
(304,789,o),
(238,759,o),
(199,687,o),
(186,625,qs),
(179,586,o),
(173,529,o),
(167,474,o),
(160,439,qs),
(157,420,o),
(133,380,o),
(87,354,o),
(50,353,q),
(50,353,o),
(43,323,o),
(35,283,o),
(28,253,o),
(28,253,q),
(59,253,o),
(93,234,o),
(107,204,o),
(107,187,qs),
(107,168,o),
(90,104,o),
(67,29,o),
(50,-49,o),
(50,-82,qs),
(50,-131,o),
(100,-183,o),
(162,-183,q),
(162,-183,o)
);
}
);
width = 380;
}
);
note = uni007B;
unicode = 123;
}
{
glyphname = bar;
layers = (
{
layerId = m01;
shapes = (
{
closed = 1;
nodes = (
(117,-283,o),
(129,-283,o),
(137,-283,o),
(137,-283,q),
(137,-283,o),
(137,-210,o),
(137,-82,o),
(137,81,o),
(137,262,o),
(137,443,o),
(137,606,o),
(137,734,o),
(137,807,o),
(137,807,q),
(137,807,o),
(129,807,o),
(117,807,o),
(109,807,o),
(109,807,q),
(109,807,o),
(109,734,o),
(109,606,o),
(109,443,o),
(109,262,o),
(109,81,o),
(109,-82,o),
(109,-210,o),
(109,-283,o),
(109,-283,q),
(109,-283,o)
);
}
);
width = 231;
},
{
layerId = "0C2271EE-6BB0-42BD-9F3A-E5D7E2C847CD";
shapes = (
{
closed = 1;
nodes = (
(130,-293,o),
(171,-293,o),
(203,-293,o),
(203,-293,q),
(203,-293,o),
(203,-217.321,o),
(203,-84.624,o),
(203,84.358,o),
(203,272,o),
(203,459.642,o),
(203,628.624,o),
(203,761.321,o),
(203,837,o),
(203,837,q),
(203,837,o),
(171,837,o),
(130,837,o),
(98,837,o),
(98,837,q),
(98,837,o),
(98,761.321,o),
(98,628.624,o),
(98,459.642,o),
(98,272,o),
(98,84.358,o),
(98,-84.624,o),
(98,-217.321,o),
(98,-293,o),
(98,-293,q),
(98,-293,o)
);
}
);
width = 294;
}
);
note = uni007C;
unicode = 124;
}
{
glyphname = braceright;
kernLeft = parenright;
layers = (
{
layerId = m01;
shapes = (
{
closed = 1;
nodes = (
(-59,-177,o),
(-46,-177,o),
(-35,-177,o),
(-35,-177,q),
(4,-177,o),
(57,-153,o),
(92,-93,o),
(102,-39,qs),
(110,-2,o),
(122,77,o),
(133,155,o),
(140,190,qs),
(144,212,o),
(165,252,o),
(208,279,o),
(246,279,q),
(246,279,o),
(248,287,o),
(251,297,o),
(253,305,o),
(253,305,q),
(220,305,o),
(188,323,o),
(177,349,o),
(177,362,qs),
(177,389,o),
(197,473,o),
(222,566,o),
(242,652,o),
(242,680,qs),
(242,723,o),
(197,761,o),
(150,761,q),
(150,761,o),
(140,761,o),
(128,761,o),
(118,761,o),
(118,761,q),
(118,761,o),
(116,754,o),
(113,744,o),
(111,737,o),
(111,737,q),
(111,737,o),
(127,737,o),
(144,737,o),
(144,737,q),
(185,737,o),
(214,704,o),
(214,671,qs),
(214,643,o),
(195,560,o),
(169,468,o),
(150,384,o),
(150,355,qs),
(150,339,o),
(164,307,o),
(190,296,q),
(190,296,o),
(190,292,o),
(190,292,q),
(156,282,o),
(121,224,o),
(111,176,qs),
(101,124,o),
(86,14,o),
(76,-35,qs),
(65,-93,o),
(20,-153,o),
(-31,-153,q),
(-31,-153,o),
(-48,-153,o),
(-65,-153,o),
(-65,-153,q),
(-65,-153,o),
(-67,-160,o),
(-68,-170,o),
(-70,-177,o),
(-70,-177,q),
(-70,-177,o)
);
}
);
width = 286;
},
{
layerId = "0C2271EE-6BB0-42BD-9F3A-E5D7E2C847CD";
shapes = (
{
closed = 1;
nodes = (
(-15,-183,o),
(14,-183,o),
(37,-183,o),
(37,-183,q),
(88,-183,o),
(154,-153,o),
(194,-81,o),
(206,-19,qs),
(214,20,o),
(219,77,o),
(225,133,o),
(232,168,qs),
(236,187,o),
(260,226,o),
(305,253,o),
(342,253,q),
(342,253,o),
(349,283,o),
(357,323,o),
(364,353,o),
(364,353,q),
(334,354,o),
(299,373,o),
(285,403,o),
(285,420,qs),
(285,440,o),
(302,503,o),
(325,578,o),
(342,655,o),
(342,688,qs),
(342,738,o),
(293,789,o),
(231,789,q),
(231,789,o),
(209,789,o),
(179,789,o),
(157,789,o),
(157,789,q),
(157,789,o),
(152,762,o),
(144,726,o),
(139,699,o),
(139,699,q),
(139,699,o),
(148,699,o),
(156,699,o),
(156,699,q),
(183,699,o),
(201,681,o),
(201,659,qs),
(201,636,o),
(186,568,o),
(165,492,o),
(150,420,o),
(150,391,qs),
(150,354,o),
(184,318,o),
(218,310,q),
(218,310,o),
(217,305,o),
(217,305,q),
(171,295,o),
(116,234,o),
(102,166,qs),
(92,117,o),
(79,31,o),
(71,-13,qs),
(62,-58,o),
(33,-92,o),
(0,-92,q),
(0,-92,o),
(-9,-92,o),
(-19,-92,o),
(-19,-92,q),
(-19,-92,o),
(-25,-119,o),
(-32,-156,o),
(-38,-183,o),
(-38,-183,q),
(-38,-183,o)
);
}
);
width = 384;
}
);
note = uni007D;
unicode = 125;
}
{
glyphname = asciitilde;
layers = (
{
layerId = m01;
shapes = (
{
closed = 1;
nodes = (
(441,328,o),
(462,371,q),
(462,371,o),
(455,375,o),
(445,380,o),
(438,384,o),
(438,384,q),
(419,346,o),
(378,314,o),
(353,314,qs),
(331,314,o),
(288,344,o),
(243,384,o),
(193,414,o),
(164,414,qs),
(134,414,o),
(76,372,o),
(55,329,q),
(55,329,o),
(62,325,o),
(71,320,o),
(78,316,o),
(78,316,q),
(98,354,o),
(139,386,o),
(164,386,qs),
(186,386,o),
(228,355,o),
(274,316,o),
(324,285,o),
(353,285,qs),
(382,285,o)
);
}
);
width = 497;
},
{
layerId = "0C2271EE-6BB0-42BD-9F3A-E5D7E2C847CD";
shapes = (
{
closed = 1;
nodes = (
(519,316,o),
(557,382,q),
(557,382,o),
(531,400,o),
(497,422,o),
(471,440,o),
(471,440,q),
(455,409,o),
(418,378,o),
(396,378,qs),
(374,378,o),
(334,404,o),
(291,438,o),
(241,464,o),
(209,464,qs),
(168,464,o),
(80,410,o),
(42,344,q),
(42,344,o),
(68,326,o),
(102,304,o),
(128,286,o),
(128,286,q),
(143,318,o),
(181,348,o),
(203,348,qs),
(225,348,o),
(265,322,o),
(307,288,o),
(357,262,o),
(389,262,qs),
(430,262,o)
);
}
);
width = 582;
}
);
note = uni007E;
unicode = 126;
}
{
glyphname = exclamdown;
kernLeft = exclamdown;
kernRight = exclamdown;
layers = (
{
layerId = m01;
shapes = (
{
closed = 1;
nodes = (
(32,-222,o),
(42,-222,o),
(51,-222,o),
(57,-222,o),
(57,-222,q),
(57,-222,o),
(68,-163,o),
(87,-66,o),
(109,51,o),
(131,167,o),
(150,264,o),
(161,323,o),
(161,323,q),
(161,323,o),
(153,323,o),
(143,323,o),
(135,323,o),
(135,323,q),
(135,323,o),
(125,271,o),
(107,187,o),
(87,85,o),
(67,-17,o),
(49,-101,o),
(39,-153,o),
(39,-153,q),
(39,-153,o),
(36,-167,o),
(33,-187,o),
(29,-208,o),
(26,-222,o),
(26,-222,q),
(26,-222,o)
);
},
{
closed = 1;
nodes = (
(203,455,o),
(216,478,o),
(216,490,qs),
(216,504,o),
(200,523,o),
(185,523,qs),
(173,523,o),
(153,509,o),
(142,487,o),
(142,475,qs),
(142,461,o),
(155,440,o),
(170,440,qs),
(182,440,o)
);
}
);
width = 264;
},
{
layerId = "0C2271EE-6BB0-42BD-9F3A-E5D7E2C847CD";
shapes = (
{
closed = 1;
nodes = (
(53,-205,o),
(104,-205,o),
(155,-205,o),
(189,-205,o),
(189,-205,q),
(189,-205,o),
(196.404,-151.835,o),
(209.192,-64.429,o),
(224,41,o),
(238,147,o),
(250.667,234.673,o),
(258,288,o),
(258,288,q),
(258,288,o),
(223.846,288,o),
(181.154,288,o),
(147,288,o),
(147,288,q),
(147,288,o),
(137,251,o),
(120,190,o),
(100,117.5,o),
(80,45,o),
(63,-16,o),
(53,-53,o),
(53,-53,q),
(53,-53,o),
(46,-84,o),
(36,-129,o),
(26,-174,o),
(19,-205,o),
(19,-205,q),
(19,-205,o)
);
},
{
closed = 1;
nodes = (
(310,390,o),
(339,445.857,o),
(339,475,qs),
(339,516,o),
(292,565,o),
(253,565,qs),
(218,565,o),
(163.806,530,o),
(134,475,o),
(134,444,qs),
(134,405,o),
(181,354,o),
(220,354,qs),
(256,354,o)
);
}
);
width = 386;
}
);
note = uni00A1;
unicode = 161;
}
{
glyphname = cent;
layers = (
{
layerId = m01;
shapes = (
{
closed = 1;
nodes = (
(403,140,o),
(434,159,q),
(434,159,o),
(429,166,o),
(424,174,o),
(419,181,o),
(419,181,q),
(389,162,o),
(314,129,o),
(268,129,qs),
(195,129,o),
(122,226,o),
(122,309,qs),
(122,368,o),
(162,464,o),
(228,532,o),
(305,569,o),
(342,569,qs),
(388,569,o),
(444,536,o),
(467,510,q),
(467,510,o),
(473,515,o),
(480,522,o),
(486,527,o),
(486,527,q),
(465,556,o),
(395,597,o),
(344,597,qs),
(300,597,o),
(210,557,o),
(135,480,o),
(89,372,o),
(89,303,qs),
(89,237,o),
(132,147,o),
(212,100,o),
(266,100,qs),
(325,100,o)
);
},
{
closed = 1;
nodes = (
(223,-22,o),
(235,-22,o),
(244,-22,o),
(244,-22,q),
(244,-22,o),
(256,40,o),
(277,145,o),
(303,277,o),
(331,416,o),
(357,548,o),
(378,653,o),
(390,715,o),
(390,715,q),
(390,715,o),
(381,715,o),
(369,715,o),
(360,715,o),
(360,715,q),
(360,715,o),
(348,653,o),
(327,548,o),
(301,416,o),
(273,277,o),
(247,145,o),
(226,40,o),
(214,-22,o),
(214,-22,q),
(214,-22,o)
);
}
);
width = 497;
},
{
layerId = "0C2271EE-6BB0-42BD-9F3A-E5D7E2C847CD";
shapes = (
{
closed = 1;
nodes = (
(469,105,o),
(516,136,q),
(516,136,o),
(501,169,o),
(481,211,o),
(466,244,o),
(466,244,q),
(440,226,o),
(385,207,o),
(351,207,qs),
(302,207,o),
(246,278,o),
(246,338,qs),
(246,376,o),
(270,441,o),
(314,488,o),
(373,514,o),
(409,514,qs),
(436,514,o),
(476,494,o),
(496,475,q),
(496,475,o),
(526,502,o),
(564,539,o),
(594,566,o),
(594,566,q),
(563,601,o),
(485,651,o),
(426,651,qs),
(364,651,o),
(241,605,o),
(140,518,o),
(80,392,o),
(80,312,qs),
(80,236,o),
(138,128,o),
(241,70,o),
(310,70,qs),
(366,70,o)
);
},
{
closed = 1;
nodes = (
(270,-32,o),
(307,-32,o),
(334,-32,o),
(334,-32,q),
(334,-32,o),
(347,34,o),
(369,147,o),
(397,286,o),
(427,436,o),
(455,575,o),
(477,688,o),
(490,754,o),
(490,754,q),
(490,754,o),
(462,754,o),
(426,754,o),
(398,754,o),
(398,754,q),
(398,754,o),
(385,688,o),
(363,575,o),
(335,436,o),
(306,286,o),
(278,147,o),
(256,34,o),
(243,-32,o),
(243,-32,q),
(243,-32,o)
);
}
);
width = 582;
}
);
note = uni00A2;
unicode = 162;
}
{
glyphname = sterling;
layers = (
{
layerId = m01;
shapes = (
{
closed = 1;
nodes = (
(50,-11,o),
(117,-11,o),
(197,-11,o),
(278,-11,o),
(345,-11,o),
(386,-11,o),
(386,-11,q),
(386,-11,o),
(387,-5,o),
(388,3,o),
(389,11,o),
(390,17,o),
(390,17,q),
(390,17,o),
(346,17,o),
(277,17,o),
(200,17,o),
(131,17,o),
(87,17,o),
(87,17,q),
(87,17,o),
(87,22,o),
(87,22,q),
(146,72,o),
(205,201,o),
(205,288,qs),
(205,335,o),
(194,436,o),
(194,477,qs),
(194,534,o),
(236,622,o),
(310,671,o),
(358,671,qs),
(400,671,o),
(457,628,o),
(473,595,q),
(473,595,o),
(480,600,o),
(490,605,o),
(497,610,o),
(497,610,q),
(481,646,o),
(410,700,o),
(360,700,qs),
(301,700,o),
(213,646,o),
(164,543,o),
(164,471,qs),
(164,428,o),
(174,323,o),
(174,281,qs),
(174,198,o),
(96,50,o),
(13,6,q),
(13,6,o),
(12,1,o),
(10,-6,o),
(9,-11,o),
(9,-11,q),
(9,-11,o)
);
},
{
closed = 1;
nodes = (
(114,312,o),
(184,312,o),
(261,312,o),
(331,312,o),
(375,312,o),
(375,312,q),
(375,312,o),
(377,320,o),
(380,332,o),
(382,340,o),
(382,340,q),
(382,340,o),
(352,340,o),
(305,340,o),
(251,340,o),
(204,340,o),
(174,340,o),
(174,340,q),
(174,340,o),
(144,339,o),
(106,337,o),
(76,336,o),
(76,336,q),
(76,336,o),
(74,329,o),
(72,319,o),
(70,312,o),
(70,312,q),
(70,312,o)
);
}
);
width = 497;
},
{
layerId = "0C2271EE-6BB0-42BD-9F3A-E5D7E2C847CD";
shapes = (
{
closed = 1;
nodes = (
(61.085,-11,o),
(149.468,-11,o),
(255,-11,o),
(361.286,-11,o),
(449.201,-11,o),
(503,-11,o),
(503,-11,q),
(503,-11,o),
(508,18,o),
(516,60,o),
(524,102,o),
(529,131,o),
(529,131,q),
(529,131,o),
(491,131,o),
(431.857,131,o),
(365.857,131,o),
(306.714,131,o),
(269,131,o),
(269,131,q),
(269,131,o),
(269,136,o),
(269,136,q),
(304,177,o),
(337,263,o),
(337,321,qs),
(337,347.358,o),
(327,404,o),
(327,429,qs),
(327,483,o),
(356,551,o),
(405,583,o),
(434.333,583,qs),
(460,583,o),
(505,558,o),
(524,534,q),
(524,534,o),
(553,561,o),
(591,596,o),
(620,623,o),
(620,623,q),
(591,668,o),
(498,719,o),
(442,719,qs),
(366,719,o),
(243,653,o),
(170,533,o),
(170,452,qs),
(170,418.297,o),
(183,336,o),
(183,302,qs),
(183,230,o),
(99,124,o),
(28,93,q),
(28,93,o),
(22,62,o),
(13,20,o),
(7,-11,o),
(7,-11,q),
(7,-11,o)
);
},
{
closed = 1;
nodes = (
(131.839,287,o),
(222.266,287,o),
(321.734,287,o),
(412.161,287,o),
(469,287,o),
(469,287,q),
(469,287,o),
(476,324,o),
(485,372,o),
(492,409,o),
(492,409,q),
(492,409,o),
(446.805,409,o),
(376,409,o),
(297,409,o),
(226.195,409,o),
(181,409,o),
(181,409,q),
(181,409,o),
(155,407,o),
(122,405,o),
(96,403,o),
(96,403,q),
(96,403,o),
(90,368,o),
(81,322,o),
(75,287,o),
(75,287,q),
(75,287,o)
);
}
);
width = 582;
}
);
note = uni00A3;
unicode = 163;
}
{
glyphname = currency;
layers = (
{
layerId = m01;
shapes = (
{
closed = 1;
nodes = (
(57,154,o),
(87,181,o),
(111,202,o),
(111,202,q),
(148,148,o),
(222,148,qs),
(260,148,o),
(332,179,o),
(360,206,q),
(360,206,o),
(378,183,o),
(401,152,o),
(419,129,o),
(419,129,q),
(419,129,o),
(425,134,o),
(434,141,o),
(440,146,o),
(440,146,q),
(440,146,o),
(422,170,o),
(397,203,o),
(379,227,o),
(379,227,q),
(407,259,o),
(440,345,o),
(440,392,qs),
(440,417,o),
(432,460,o),
(424,477,q),
(424,477,o),
(449,499,o),
(483,529,o),
(508,551,o),
(508,551,q),
(508,551,o),
(503,558,o),
(496,566,o),
(491,573,o),
(491,573,q),
(491,573,o),
(467,552,o),
(434,523,o),
(410,502,o),
(410,502,q),
(391,527,o),
(336,554,o),
(301,554,qs),
(265,554,o),
(199,526,o),
(171,502,q),
(171,502,o),
(156,523,o),
(135,550,o),
(120,571,o),
(120,571,q),
(120,571,o),
(113,566,o),
(105,559,o),
(98,554,o),
(98,554,q),
(98,554,o),
(114,533,o),
(134,504,o),
(150,483,o),
(150,483,q),
(119,449,o),
(83,359,o),
(83,309,qs),
(83,285,o),
(90,244,o),
(97,227,q),
(97,227,o),
(72,205,o),
(40,177,o),
(15,155,o),
(15,155,q),
(15,155,o),
(20,148,o),
(28,140,o),
(33,133,o),
(33,133,q),
(33,133,o)
);
},
{
closed = 1;
nodes = (
(113,249,o),
(113,316,qs),
(113,375,o),
(168,470,o),
(254,525,o),
(299,525,qs),
(353,525,o),
(410,454,o),
(410,386,qs),
(410,327,o),
(355,232,o),
(270,176,o),
(225,176,qs),
(171,176,o)
);
}
);
width = 497;
},
{
layerId = "0C2271EE-6BB0-42BD-9F3A-E5D7E2C847CD";
shapes = (
{
closed = 1;
nodes = (
(105.231,111.304,o),
(136.769,138.696,o),
(162,160,o),
(162,160,q),
(206,135,o),
(270,135,qs),
(302,135,o),
(365,149,o),
(393,163,q),
(393,163,o),
(411.305,141.195,o),
(434.695,111.805,o),
(453,90,o),
(453,90,q),
(453,90,o),
(480,113,o),
(515,143,o),
(542,166,o),
(542,166,q),
(542,166,o),
(526.066,185.556,o),
(503.934,212.444,o),
(488,232,o),
(488,232,q),
(517.836,264.271,o),
(553,351,o),
(553,400,qs),
(553,423.897,o),
(543,465,o),
(534,484,q),
(534,484,o),
(556.024,502.73,o),
(585.976,528.27,o),
(608,547,o),
(608,547,q),
(608,547,o),
(586,573,o),
(558,606,o),
(536,632,o),
(536,632,q),
(536,632,o),
(512,611,o),
(479,584,o),
(455,563,o),
(455,563,q),
(432,575,o),
(375,589,o),
(344.437,589,qs),
(313,589,o),
(250,575,o),
(221,561,q),
(221,561,o),
(204,582,o),
(181,611,o),
(164,632,o),
(164,632,q),
(164,632,o),
(137,609,o),
(102,578,o),
(75,555,o),
(75,555,q),
(75,555,o),
(90,536,o),
(110,512,o),
(125,493,o),
(125,493,q),
(96,459,o),
(61,374,o),
(61,323,qs),
(61,300,o),
(71,256,o),
(79,238,q),
(79,238,o),
(58,219,o),
(29,194,o),
(8,175,o),
(8,175,q),
(8,175,o),
(30,149,o),
(58,116,o),
(80,90,o),
(80,90,q),
(80,90,o)
);
},
{
closed = 1;
nodes = (
(216,298,o),
(216,336,qs),
(216,375,o),
(247,435,o),
(297,469,o),
(324,469,qs),
(359,469,o),
(398,427.626,o),
(398,388,qs),
(398,349,o),
(367,289,o),
(317,255,o),
(288.818,255,qs),
(255,255,o)
);
}
);
width = 582;
}
);
note = uni00A4;
unicode = 164;
}
{
glyphname = yen;
layers = (
{
layerId = m01;
shapes = (
{
closed = 1;
nodes = (
(185,-11,o),
(194,-11,o),
(203,-11,o),
(209,-11,o),
(209,-11,q),
(209,-11,o),
(216,25,o),
(227,79,o),
(237,132,o),
(244,168,o),
(244,168,q),
(244,168,o),
(280,168,o),
(333,168,o),
(385,168,o),
(421,168,o),
(421,168,q),
(421,168,o),
(423,176,o),
(425,186,o),
(427,194,o),
(427,194,q),
(427,194,o),
(391,194,o),
(339,194,o),
(287,194,o),
(251,194,o),
(251,194,q),
(251,194,o),
(256,221,o),
(263,258,o),
(268,285,o),
(268,285,q),
(268,285,o),
(304,285,o),
(357,285,o),
(409,285,o),
(445,285,o),
(445,285,q),
(445,285,o),
(447,293,o),
(449,304,o),
(451,312,o),
(451,312,q),
(451,312,o),
(418,312,o),
(370,312,o),
(321,312,o),
(288,312,o),
(288,312,q),
(288,312,o),
(315,353,o),
(360,420,o),
(413,500,o),
(466,579,o),
(511,646,o),
(538,687,o),
(538,687,q),
(538,687,o),
(532,687,o),
(522,687,o),
(512,687,o),
(506,687,o),
(506,687,q),
(506,687,o),
(485,655,o),
(452,604,o),
(416,547,o),
(383,496,o),
(362,464,o),
(362,464,q),
(336,428,o),
(287,354,o),
(259,312,q),
(259,312,o),
(255,312,o),
(255,312,q),
(245,354,o),
(226,428,o),
(216,464,q),
(216,464,o),
(204,509,o),
(186,576,o),
(167,642,o),
(155,687,o),
(155,687,q),
(155,687,o),
(149,687,o),
(140,687,o),
(130,687,o),
(124,687,o),
(124,687,q),
(124,687,o),
(139,633,o),
(164,547,o),
(191,452,o),
(216,366,o),
(231,312,o),
(231,312,q),
(231,312,o),
(198,312,o),
(150,312,o),
(101,312,o),
(68,312,o),
(68,312,q),
(68,312,o),
(66,304,o),
(63,293,o),
(61,285,o),
(61,285,q),
(61,285,o),
(97,285,o),
(150,285,o),
(202,285,o),
(238,285,o),
(238,285,q),
(238,285,o),
(233,258,o),
(225,221,o),
(220,194,o),
(220,194,q),
(220,194,o),
(184,194,o),
(132,194,o),
(80,194,o),
(44,194,o),
(44,194,q),
(44,194,o),
(42,186,o),
(39,176,o),
(37,168,o),
(37,168,q),
(37,168,o),
(73,168,o),
(126,168,o),
(178,168,o),
(214,168,o),
(214,168,q),
(214,168,o),
(207,132,o),
(197,79,o),
(186,25,o),
(179,-11,o),
(179,-11,q),
(179,-11,o)
);
}
);
width = 497;
},
{
layerId = "0C2271EE-6BB0-42BD-9F3A-E5D7E2C847CD";
shapes = (
{
closed = 1;
nodes = (
(183.6,-11,o),
(234,-11,o),
(284.4,-11,o),
(318,-11,o),
(318,-11,q),
(318,-11,o),
(324.222,21.8,o),
(334,71,o),
(344,120,o),
(350.349,153,o),
(350.349,153,q),
(350.349,153,o),
(383,153,o),
(432.971,153,o),
(482,153,o),
(515,153,o),
(515,153,q),
(515,153,o),
(520,177,o),
(527,210,o),
(532,234,o),
(532,234,q),
(532,234,o),
(499,234,o),
(449.5,234,o),
(400,234,o),
(367,234,o),
(367,234,q),
(367,234,o),
(371,253,o),
(376,277,o),
(380,296,o),
(380,296,q),
(380,296,o),
(413,296,o),
(462.971,296,o),
(512,296,o),
(545,296,o),
(545,296,q),
(545,296,o),
(550,321,o),
(557,354,o),
(562,379,o),
(562,379,q),
(562,379,o),
(535.883,379,o),
(497.896,379,o),
(459.117,379,o),
(433,379,o),
(433,379,q),
(433,379,o),
(456.625,414.685,o),
(496,473,o),
(544,543,o),
(591,613,o),
(630.375,671.315,o),
(654,707,o),
(654,707,q),
(654,707,o),
(620,707,o),
(569,707,o),
(518,707,o),
(484,707,o),
(484,707,q),
(484,707,o),
(472,685,o),
(453.559,651,o),
(433.441,613,o),
(415,579,o),
(403,557,o),
(403,557,q),
(383,521,o),
(342,446,o),
(321,408,q),
(321,408,o),
(318.143,408,o),
(318.143,408,q),
(311,446,o),
(300,520,o),
(295,557,q),
(295,557,o),
(291.066,587.269,o),
(285.164,632.336,o),
(278.934,676.731,o),
(275,707,o),
(275,707,q),
(275,707,o),
(240.2,707,o),
(188,707,o),
(136,707,o),
(101,707,o),
(101,707,q),
(101,707,o),
(113.75,659.943,o),
(135,585,o),
(158,501,o),
(178,426,o),
(191,379,o),
(191,379,q),
(191,379,o),
(164.519,379,o),
(126,379,o),
(87.756,379,o),
(62,379,o),
(62,379,q),
(62,379,o),
(57.143,354.407,o),
(49.857,320.593,o),
(45,296,o),
(45,296,q),
(45,296,o),
(78.763,296,o),
(128.469,296,o),
(177.237,296,o),
(211,296,o),
(211,296,q),
(211,296,o),
(207,277,o),
(203,253,o),
(199,234,o),
(199,234,q),
(199,234,o),
(166,234,o),
(116.5,234,o),
(67,234,o),
(34,234,o),
(34,234,q),
(34,234,o),
(29,210,o),
(22,177,o),
(17,153,o),
(17,153,q),
(17,153,o),
(50,153,o),
(99.971,153,o),
(149,153,o),
(182,153,o),
(182,153,q),
(182,153,o),
(176,120,o),
(166,71,o),
(156.222,21.8,o),
(150,-11,o),
(150,-11,q),
(150,-11,o)
);
}
);
width = 582;
}
);
note = uni00A5;
unicode = 165;
}
{
glyphname = brokenbar;
layers = (
{
layerId = m01;
shapes = (
{
closed = 1;
nodes = (
(117,288,o),
(129,288,o),
(137,288,o),
(137,288,q),
(137,288,o),
(137,344,o),
(137,437,o),
(137,548,o),
(137,658,o),
(137,751,o),
(137,807,o),
(137,807,q),
(137,807,o),
(129,807,o),
(117,807,o),
(109,807,o),
(109,807,q),
(109,807,o),
(109,751,o),
(109,658,o),
(109,548,o),
(109,437,o),
(109,344,o),
(109,288,o),
(109,288,q),
(109,288,o)
);
},
{
closed = 1;
nodes = (
(117,-283,o),
(129,-283,o),
(137,-283,o),
(137,-283,q),
(137,-283,o),
(137,-228,o),
(137,-136,o),
(137,-27,o),
(137,82,o),
(137,174,o),
(137,229,o),
(137,229,q),
(137,229,o),
(129,229,o),
(117,229,o),
(109,229,o),
(109,229,q),
(109,229,o),
(109,174,o),
(109,82,o),
(109,-27,o),
(109,-136,o),
(109,-228,o),
(109,-283,o),
(109,-283,q),
(109,-283,o)
);
}
);
width = 231;
},
{
layerId = "0C2271EE-6BB0-42BD-9F3A-E5D7E2C847CD";
shapes = (
{
closed = 1;
nodes = (
(130,343,o),
(171,343,o),
(203,343,o),
(203,343,q),
(203,343,o),
(203,397,o),
(203,485.201,o),
(203,590.474,o),
(203,694.799,o),
(203,783,o),
(203,837,o),
(203,837,q),
(203,837,o),
(171,837,o),
(130,837,o),
(98,837,o),
(98,837,q),
(98,837,o),
(98,783,o),
(98,694.799,o),
(98,590.474,o),
(98,485.201,o),
(98,397,o),
(98,343,o),
(98,343,q),
(98,343,o)
);
},
{
closed = 1;
nodes = (
(130,-293,o),
(171,-293,o),
(203,-293,o),
(203,-293,q),
(203,-293,o),
(203,-238.374,o),
(203,-147,o),
(203,-37.5,o),
(203,72,o),
(203,163.374,o),
(203,218,o),
(203,218,q),
(203,218,o),
(171,218,o),
(130,218,o),
(98,218,o),
(98,218,q),
(98,218,o),
(98,163.374,o),
(98,72,o),
(98,-37.5,o),
(98,-147,o),
(98,-238.374,o),
(98,-293,o),
(98,-293,q),
(98,-293,o)
);
}
);
width = 294;
}
);
note = uni00A6;
unicode = 166;
}
{
glyphname = section;
layers = (
{
layerId = m01;
shapes = (
{
closed = 1;
nodes = (
(411,199,o),
(445,259,o),
(445,307,qs),
(445,348,o),
(410,405,o),
(355,447,o),
(293,482,o),
(238,519,o),
(203,565,o),
(203,597,qs),
(203,630,o),
(235,677,o),
(285,702,o),
(312,702,qs),
(350,702,o),
(413,664,o),
(438,634,q),
(438,634,o),
(445,641,o),
(455,649,o),
(462,656,o),
(462,656,q),
(434,685,o),
(360,730,o),
(314,730,qs),
(275,730,o),
(210,697,o),
(172,635,o),
(172,591,qs),
(172,556,o),
(207,505,o),
(262,466,o),
(324,431,o),
(379,391,o),
(414,338,o),
(414,301,qs),
(414,242,o),
(351,188,o),
(290,168,q),
(290,168,o),
(293,161,o),
(298,151,o),
(301,144,o),
(301,144,q),
(347,160,o)
);
},
{
closed = 1;
nodes = (
(303,-18,o),
(344,49,o),
(344,89,qs),
(344,128,o),
(308,180,o),
(252,218,o),
(190,251,o),
(134,287,o),
(98,337,o),
(98,373,qs),
(98,427,o),
(165,493,o),
(220,512,q),
(220,512,o),
(217,519,o),
(214,529,o),
(211,536,o),
(211,536,q),
(150,517,o),
(68,434,o),
(68,366,qs),
(68,326,o),
(104,272,o),
(160,234,o),
(222,202,o),
(278,166,o),
(314,118,o),
(314,83,qs),
(314,50,o),
(280,-2,o),
(225,-31,o),
(192,-31,qs),
(153,-31,o),
(79,7,o),
(50,39,q),
(50,39,o),
(43,32,o),
(35,22,o),
(28,15,o),
(28,15,q),
(63,-19,o),
(144,-59,o),
(190,-59,qs),
(234,-59,o)
);
}
);
width = 495;
},
{
layerId = "0C2271EE-6BB0-42BD-9F3A-E5D7E2C847CD";
shapes = (
{
closed = 1;
nodes = (
(511,201,o),
(547,273,o),
(547,319,qs),
(547,361,o),
(512,425,o),
(457,475,o),
(395,515,o),
(340,548,o),
(305,580,o),
(305,597,qs),
(305,612,o),
(319,632,o),
(343,642,o),
(357,642,qs),
(389,642,o),
(447,606,o),
(469,585,q),
(469,585,o),
(495,613,o),
(529,650,o),
(555,678,o),
(555,678,q),
(513,722,o),
(410,770,o),
(357,770,qs),
(296,770,o),
(203,720,o),
(151,634,o),
(151,579,qs),
(151,539,o),
(187,479,o),
(244,433,o),
(307,395,o),
(364,360,o),
(400,323,o),
(400,300,qs),
(400,261,o),
(355,220,o),
(318,210,q),
(318,210,o),
(343,185,o),
(377,153,o),
(402,128,o),
(402,128,q),
(446,147,o)
);
},
{
closed = 1;
nodes = (
(386,-59,o),
(441,28,o),
(441,86,qs),
(441,126,o),
(406,186,o),
(351,231,o),
(288,268,o),
(233,303,o),
(198,340,o),
(198,364,qs),
(198,402,o),
(251,444,o),
(283,451,q),
(283,451,o),
(261,474,o),
(233,504,o),
(211,527,o),
(211,527,q),
(145,507,o),
(53,412,o),
(53,344,qs),
(53,301,o),
(87,236,o),
(140,187,o),
(201,149,o),
(254,117,o),
(288,85,o),
(288,67,qs),
(288,53,o),
(274,31,o),
(248,20,o),
(228,20,qs),
(188,20,o),
(109,68,o),
(81,95,q),
(81,95,o),
(56,64,o),
(23,22,o),
(-2,-9,o),
(-2,-9,q),
(45,-55,o),
(164,-107,o),
(219,-107,qs),
(286,-107,o)
);
}
);
width = 579;
}
);
note = uni00A7;
unicode = 167;
}
{
glyphname = dieresis;
layers = (
{
layerId = m01;
shapes = (
{
closed = 1;
nodes = (
(312,668,o),
(312,684,qs),
(312,699,o),
(297,715,o),
(283,715,qs),
(270,715,o),
(249,692,o),
(249,674,qs),
(249,661,o),
(264,645,o),
(277,645,qs),
(290,645,o)
);
},
{
closed = 1;
nodes = (
(493,668,o),
(493,684,qs),
(493,699,o),
(478,715,o),
(464,715,qs),
(451,715,o),
(429,692,o),
(429,674,qs),
(429,661,o),
(445,645,o),
(458,645,qs),
(471,645,o)
);
}
);
width = 549;
},
{
layerId = "0C2271EE-6BB0-42BD-9F3A-E5D7E2C847CD";
shapes = (
{
closed = 1;
nodes = (
(349,683,o),
(349,720,qs),
(349,754,o),
(308,792,o),
(278,792,qs),
(239,792,o),
(186,738,o),
(186,703,qs),
(186,669,o),
(228,632,o),
(258,632,qs),
(297,632,o)
);
},
{
closed = 1;
nodes = (
(593,683,o),
(593,720,qs),
(593,754,o),
(552,792,o),
(522,792,qs),
(483,792,o),
(431,738,o),
(431,703,qs),
(431,669,o),
(472,632,o),
(503,632,qs),
(541,632,o)
);
}
);
width = 607;
}
);
note = uni00A8;
unicode = 168;
}
{
glyphname = copyright;
layers = (
{
layerId = m01;
shapes = (
{
closed = 1;
nodes = (
(555,50,o),
(657,173,o),
(711,323,o),
(711,399,qs),
(711,489,o),
(640,624,o),
(513,700,o),
(429,700,qs),
(341,700,o),
(199,626,o),
(98,503,o),
(44,353,o),
(44,277,qs),
(44,188,o),
(115,52,o),
(241,-24,o),
(325,-24,qs),
(413,-24,o)
);
},
{
closed = 1;
nodes = (
(135,71,o),
(72,196,o),
(72,281,qs),
(72,349,o),
(122,487,o),
(215,603,o),
(346,674,o),
(427,674,qs),
(505,674,o),
(619,605,o),
(682,480,o),
(682,394,qs),
(682,327,o),
(632,188,o),
(539,73,o),
(408,2,o),
(327,2,qs),
(249,2,o)
);
},
{
closed = 1;
nodes = (
(460,163,o),
(493,187,q),
(493,187,o),
(488,194,o),
(482,202,o),
(477,209,o),
(477,209,q),
(448,188,o),
(387,159,o),
(349,159,qs),
(295,159,o),
(231,229,o),
(231,299,qs),
(231,347,o),
(264,428,o),
(319,488,o),
(383,521,o),
(414,521,qs),
(443,521,o),
(481,501,o),
(497,480,q),
(497,480,o),
(504,485,o),
(512,490,o),
(519,495,o),
(519,495,q),
(503,521,o),
(456,549,o),
(416,549,qs),
(379,549,o),
(304,514,o),
(240,447,o),
(201,352,o),
(201,292,qs),
(201,210,o),
(283,131,o),
(347,131,qs),
(394,131,o)
);
}
);
width = 719;
},
{
layerId = "0C2271EE-6BB0-42BD-9F3A-E5D7E2C847CD";
shapes = (
{
closed = 1;
nodes = (
(585,48,o),
(699,169,o),
(762,326,o),
(762,416,qs),
(762,508,o),
(684,649,o),
(547,730,o),
(458,730,qs),
(365,730,o),
(210,662,o),
(96,542,o),
(33,384,o),
(33,294,qs),
(33,202,o),
(110,60,o),
(247,-20,o),
(337,-20,qs),
(429,-20,o)
);
},
{
closed = 1;
nodes = (
(163,122,o),
(111,234,o),
(111,300,qs),
(111,374,o),
(163,503,o),
(255,601,o),
(379,657,o),
(451,657,qs),
(529,657,o),
(633,588,o),
(685,476,o),
(685,409,qs),
(685,336,o),
(633,207,o),
(540,109,o),
(416,53,o),
(344,53,qs),
(267,53,o)
);
},
{
closed = 1;
nodes = (
(490,160,o),
(525,188,q),
(525,188,o),
(511,210,o),
(492,239,o),
(478,261,o),
(478,261,q),
(455,246,o),
(424,232,o),
(401,232,qs),
(361,232,o),
(318,282,o),
(318,325,qs),
(318,358,o),
(339,412,o),
(373,452,o),
(414,474,o),
(434,474,qs),
(450,474,o),
(481,461,o),
(494,446,q),
(494,446,o),
(515,466,o),
(544,493,o),
(565,513,o),
(565,513,q),
(548,535,o),
(488,572,o),
(449,572,qs),
(404,572,o),
(315,535,o),
(240,467,o),
(195,370,o),
(195,310,qs),
(195,228,o),
(294,134,o),
(374,134,qs),
(413,134,o)
);
}
);
width = 760;
}
);
note = uni00A9;
unicode = 169;
}
{
glyphname = ordfeminine;
layers = (
{
layerId = m01;
shapes = (
{
closed = 1;
nodes = (
(306,463,o),
(334,493,q),
(334,493,o),
(338,493,o),
(338,493,q),
(338,493,o),
(333,465,o),
(327,436,o),
(327,436,q),
(327,436,o),
(334,436,o),
(344,436,o),
(351,436,o),
(351,436,q),
(351,436,o),
(361,486,o),
(376,564,o),
(394,652,o),
(409,730,o),
(419,780,o),
(419,780,q),
(419,780,o),
(412,780,o),
(404,780,o),
(397,780,o),
(397,780,q),
(397,780,o),
(391,757,o),
(384,735,o),
(384,735,q),
(384,735,o),
(379,735,o),
(379,735,q),
(365,764,o),
(318,789,o),
(292,789,qs),
(243,789,o),
(155,726,o),
(100,619,o),
(100,554,qs),
(100,492,o),
(157,427,o),
(203,427,qs),
(241,427,o)
);
},
{
closed = 1;
nodes = (
(129,504,o),
(129,558,qs),
(129,596,o),
(156,669,o),
(202,728,o),
(260,763,o),
(290,763,qs),
(313,763,o),
(356,736,o),
(375,700,q),
(375,700,o),
(368,666,o),
(359,617,o),
(349,568,o),
(342,534,o),
(342,534,q),
(311,500,o),
(238,453,o),
(205,453,qs),
(172,453,o)
);
}
);
width = 377;
},
{
layerId = "0C2271EE-6BB0-42BD-9F3A-E5D7E2C847CD";
shapes = (
{
closed = 1;
nodes = (
(279,429,o),
(304.375,455,q),
(304.375,455,o),
(308,455,o),
(308,455,q),
(308,455,o),
(307.545,431.912,o),
(307,408,o),
(307,408,q),
(307,408,o),
(336,408,o),
(374,408,o),
(403,408,o),
(403,408,q),
(403,408,o),
(414.029,462.36,o),
(430.574,547.163,o),
(450.426,642.837,o),
(466.971,727.64,o),
(478,782,o),
(478,782,q),
(478,782,o),
(449,782,o),
(411,782,o),
(382,782,o),
(382,782,q),
(382,782,o),
(373,763,o),
(364,743,o),
(364,743,q),
(364,743,o),
(359,743,o),
(359,743,q),
(349,764,o),
(310,791,o),
(286,791,qs),
(234,791,o),
(142.308,723.182,o),
(85,608,o),
(85,537,qs),
(85,471,o),
(142,399,o),
(191,399,qs),
(219,399,o)
);
},
{
closed = 1;
nodes = (
(207,522,o),
(207,552,qs),
(207,583,o),
(222,635,o),
(247,674,o),
(277.977,695,o),
(294,695,qs),
(305.5,695,o),
(327,680,o),
(334,665,q),
(334,665,o),
(330,641,o),
(323,606,o),
(317,570,o),
(313,546,o),
(313,546,q),
(296,517,o),
(259,495,o),
(242.5,495,qs),
(226,495,o)
);
}
);
width = 415;
}
);
note = uni00AA;
unicode = 170;
}
{
glyphname = logicalnot;
layers = (
{
layerId = m01;
shapes = (
{
closed = 1;
nodes = (
(454,109,o),
(466,109,o),
(475,109,o),
(475,109,q),
(475,109,o),
(475,146,o),
(475,204,o),
(475,269,o),
(475,327,o),
(475,364,o),
(475,364,q),
(475,364,o),
(429,364,o),
(354,364,o),
(264,364,o),
(173,364,o),
(98,364,o),
(52,364,o),
(52,364,q),
(52,364,o),
(52,356,o),
(52,344,o),
(52,336,o),
(52,336,q),
(52,336,o),
(109,336,o),
(198,336,o),
(299,336,o),
(388,336,o),
(445,336,o),
(445,336,q),
(445,336,o),
(445,290,o),
(445,223,o),
(445,155,o),
(445,109,o),
(445,109,q),
(445,109,o)
);
}
);
width = 497;
},
{
layerId = "0C2271EE-6BB0-42BD-9F3A-E5D7E2C847CD";
shapes = (
{
closed = 1;
nodes = (
(470.6,94,o),
(519.4,94,o),
(556,94,o),
(556,94,q),
(556,94,o),
(556,141,o),
(556,215.983,o),
(556,300.017,o),
(556,375,o),
(556,422,o),
(556,422,q),
(556,422,o),
(502,422,o),
(412.455,422,o),
(305,422,o),
(198,422,o),
(108,422,o),
(54,422,o),
(54,422,q),
(54,422,o),
(54,386,o),
(54,338,o),
(54,302,o),
(54,302,q),
(54,302,o),
(109.115,302,o),
(195.17,302,o),
(292.83,302,o),
(378.885,302,o),
(434,302,o),
(434,302,q),
(434,302,o),
(434,259.85,o),
(434,198.458,o),
(434,136.15,o),
(434,94,o),
(434,94,q),
(434,94,o)
);
}
);
width = 582;
}
);
note = uni00AC;
unicode = 172;
}
{
glyphname = registered;
kernLeft = registered;
layers = (
{
layerId = m01;
shapes = (
{
closed = 1;
nodes = (
(359,389,o),
(416,454,o),
(449,537,o),
(449,582,qs),
(449,635,o),
(403,714,o),
(327,759,o),
(281,759,qs),
(223,759,o),
(128,693,o),
(72,587,o),
(72,527,qs),
(72,474,o),
(118,395,o),
(194,351,o),
(240,351,qs),
(283,351,o)
);
},
{
closed = 1;
nodes = (
(100,465,o),
(100,532,qs),
(100,586,o),
(149,677,o),
(230,732,o),
(279,732,qs),
(344,732,o),
(421,645,o),
(421,578,qs),
(421,524,o),
(372,432,o),
(290,377,o),
(242,377,qs),
(175,377,o)
);
},
{
closed = 1;
nodes = (
(185,445,o),
(197,445,o),
(205,445,o),
(205,445,q),
(205,445,o),
(210,470,o),
(217,502,o),
(222,527,o),
(222,527,q),
(222,527,o),
(244,527,o),
(266,527,o),
(266,527,q),
(266,527,o),
(274,502,o),
(286,470,o),
(294,445,o),
(294,445,q),
(294,445,o),
(303,445,o),
(316,445,o),
(325,445,o),
(325,445,q),
(325,445,o),
(315,472,o),
(302,507,o),
(292,534,o),
(292,534,q),
(315,542,o),
(347,580,o),
(347,606,qs),
(347,637,o),
(313,669,o),
(281,669,q),
(281,669,o),
(263,669,o),
(240,669,o),
(222,669,o),
(222,669,q),
(222,669,o),
(213,624,o),
(200,557,o),
(186,490,o),
(177,445,o),
(177,445,q),
(177,445,o)
);
},
{
closed = 1;
nodes = (
(234,581,o),
(239,616,o),
(244,643,o),
(244,643,q),
(244,643,o),
(261,643,o),
(277,643,o),
(277,643,q),
(318,643,o),
(318,604,qs),
(318,579,o),
(285,554,o),
(257,554,q),
(257,554,o),
(243,554,o),
(229,554,o),
(229,554,q),
(229,554,o)
);
}
);
width = 410;
},
{
layerId = "0C2271EE-6BB0-42BD-9F3A-E5D7E2C847CD";
shapes = (
{
closed = 1;
nodes = (
(433,382,o),
(497,455,o),
(531,547,o),
(531,596,qs),
(530,654,o),
(474,745,o),
(384,797,o),
(331,797,qs),
(260,797,o),
(153,724,o),
(94,606,o),
(94,540.159,qs),
(94,482,o),
(149,391,o),
(238.705,339,o),
(293,339,qs),
(346,339,o)
);
},
{
closed = 1;
nodes = (
(155,482,o),
(155,545,qs),
(155,597.51,o),
(198,686,o),
(276,740,o),
(327,740,qs),
(392.458,740,o),
(470,654,o),
(470,591,qs),
(470,538.849,o),
(426,450,o),
(348,396,o),
(297,396,qs),
(232,396,o)
);
},
{
closed = 1;
nodes = (
(222,459,o),
(247,459,o),
(267,459,o),
(267,459,q),
(267,459,o),
(271.118,479.427,o),
(276.882,505.573,o),
(281,526,o),
(281,526,q),
(281,526,o),
(296,526,o),
(310.08,526,o),
(310.08,526,q),
(310.08,526,o),
(315.2,505.573,o),
(322.88,479.427,o),
(328,459,o),
(328,459,q),
(328,459,o),
(348,459,o),
(373,459,o),
(393,459,o),
(393,459,q),
(393,459,o),
(384.818,484.18,o),
(374.182,516.82,o),
(366,542,o),
(366,542,q),
(392,552,o),
(420,592,o),
(420,614,qs),
(420,645,o),
(378,679,o),
(344,679,q),
(344,679,o),
(315,679,o),
(276,679,o),
(247,679,o),
(247,679,q),
(247,679,o),
(238,634.804,o),
(225,569,o),
(211,503.196,o),
(202,459,o),
(202,459,q),
(202,459,o)
);
},
{
closed = 1;
nodes = (
(293.333,589.899,o),
(297.667,613.101,o),
(302,631,o),
(302,631,q),
(302,631,o),
(311.788,631,o),
(321,631,o),
(321,631,q),
(349,631,o),
(349,607,qs),
(349,593,o),
(327,572,o),
(306,572,q),
(306,572,o),
(297.5,572,o),
(289,572,o),
(289,572,q),
(289,572,o)
);
}
);
width = 511;
}
);
note = uni00AE;
unicode = 174;
}
{
glyphname = macron;
layers = (
{
layerId = m01;
shapes = (
{
closed = 1;
nodes = (
(275,654,o),
(332,654,o),
(397,654,o),
(454,654,o),
(491,654,o),
(491,654,q),
(491,654,o),
(492,662,o),
(494,674,o),
(495,682,o),
(495,682,q),
(495,682,o),
(458,682,o),
(401,682,o),
(336,682,o),
(279,682,o),
(242,682,o),
(242,682,q),
(242,682,o),
(241,674,o),
(239,662,o),
(238,654,o),
(238,654,q),
(238,654,o)
);
}
);
width = 549;
},
{
layerId = "0C2271EE-6BB0-42BD-9F3A-E5D7E2C847CD";
shapes = (
{
closed = 1;
nodes = (
(263,657,o),
(336.877,657,o),
(421.123,657,o),
(495,657,o),
(542,657,o),
(542,657,q),
(542,657,o),
(549,689,o),
(557,732,o),
(564,764,o),
(564,764,q),
(564,764,o),
(517,764,o),
(442.486,764,o),
(357.514,764,o),
(283,764,o),
(236,764,o),
(236,764,q),
(236,764,o),
(230,732,o),
(222,689,o),
(216,657,o),
(216,657,q),
(216,657,o)
);
}
);
width = 607;
}
);
note = uni00AF;
unicode = 175;
}
{
glyphname = degree;
layers = (
{
layerId = m01;
shapes = (
{
closed = 1;
nodes = (
(307,525,o),
(340,590,o),
(340,628,qs),
(340,675,o),
(282,735,o),
(240,735,qs),
(205,735,o),
(149,696,o),
(116,631,o),
(116,593,qs),
(116,546,o),
(173,486,o),
(216,486,qs),
(251,486,o)
);
},
{
closed = 1;
nodes = (
(144,561,o),
(144,597,qs),
(144,625,o),
(167,675,o),
(210,708,o),
(238,708,qs),
(272,708,o),
(312,659,o),
(312,623,qs),
(312,596,o),
(289,545,o),
(247,512,o),
(218,512,qs),
(184,512,o)
);
}
);
width = 310;
},
{
layerId = "0C2271EE-6BB0-42BD-9F3A-E5D7E2C847CD";
shapes = (
{
closed = 1;
nodes = (
(379,486,o),
(428,568,o),
(428,617,qs),
(428,685,o),
(347,764,o),
(283,764,qs),
(236,764,o),
(155,716,o),
(105,634,o),
(105,583,qs),
(105,517,o),
(187,438,o),
(251,438,qs),
(298,438,o)
);
},
{
closed = 1;
nodes = (
(195,557,o),
(195,583,qs),
(195,610,o),
(215,655,o),
(252,683,o),
(276,683,qs),
(306,683,o),
(338,643,o),
(338,617,qs),
(338,591,o),
(318,546,o),
(282,519,o),
(258,519,qs),
(227,519,o)
);
}
);
width = 402;
}
);
note = uni00B0;
unicode = 176;
}
{
glyphname = plusminus;
layers = (
{
layerId = m01;
shapes = (
{
closed = 1;
nodes = (
(258,109,o),
(270,109,o),
(279,109,o),
(279,109,q),
(279,109,o),
(279,155,o),
(279,223,o),
(279,290,o),
(279,336,o),
(279,336,q),
(279,336,o),
(319,336,o),
(377,336,o),
(435,336,o),
(475,336,o),
(475,336,q),
(475,336,o),
(475,344,o),
(475,356,o),
(475,364,o),
(475,364,q),
(475,364,o),
(435,364,o),
(377,364,o),
(319,364,o),
(279,364,o),
(279,364,q),
(279,364,o),
(279,408,o),
(279,474,o),
(279,540,o),
(279,584,o),
(279,584,q),
(279,584,o),
(270,584,o),
(258,584,o),
(249,584,o),
(249,584,q),
(249,584,o),
(249,540,o),
(249,474,o),
(249,408,o),
(249,364,o),
(249,364,q),
(249,364,o),
(209,364,o),
(151,364,o),
(92,364,o),
(52,364,o),
(52,364,q),
(52,364,o),
(52,356,o),
(52,344,o),
(52,336,o),
(52,336,q),
(52,336,o),
(92,336,o),
(151,336,o),
(209,336,o),
(249,336,o),
(249,336,q),
(249,336,o),
(249,290,o),
(249,223,o),
(249,155,o),
(249,109,o),
(249,109,q),
(249,109,o)
);
},
{
closed = 1;
nodes = (
(98,-11,o),
(173,-11,o),
(264,-11,o),
(354,-11,o),
(429,-11,o),
(475,-11,o),
(475,-11,q),
(475,-11,o),
(475,-3,o),
(475,9,o),
(475,17,o),
(475,17,q),
(475,17,o),
(429,17,o),
(354,17,o),
(264,17,o),
(173,17,o),
(98,17,o),
(52,17,o),
(52,17,q),
(52,17,o),
(52,9,o),
(52,-3,o),
(52,-11,o),
(52,-11,q),
(52,-11,o)
);
}
);
width = 497;
},
{
layerId = "0C2271EE-6BB0-42BD-9F3A-E5D7E2C847CD";
shapes = (
{
closed = 1;
nodes = (
(278.2,170,o),
(327.8,170,o),
(365,170,o),
(365,170,q),
(365,170,o),
(365,204.449,o),
(365,255.374,o),
(365,305.551,o),
(365,340,o),
(365,340,q),
(365,340,o),
(403.98,340,o),
(460.5,340,o),
(517.02,340,o),
(556,340,o),
(556,340,q),
(556,340,o),
(556,376,o),
(556,423,o),
(556,459,o),
(556,459,q),
(556,459,o),
(518,459,o),
(461.5,459,o),
(405,459,o),
(367,459,o),
(367,459,q),
(367,459,o),
(367,493,o),
(367,544,o),
(367,595,o),
(367,629,o),
(367,629,q),
(367,629,o),
(329.8,629,o),
(280.2,629,o),
(243,629,o),
(243,629,q),
(243,629,o),
(243,595,o),
(243,544,o),
(243,493,o),
(243,459,o),
(243,459,q),
(243,459,o),
(205,459,o),
(148,459,o),
(91.98,459,o),
(54,459,o),
(54,459,q),
(54,459,o),
(54,423,o),
(54,376,o),
(54,340,o),
(54,340,q),
(54,340,o),
(91.962,340,o),
(147.955,340,o),
(203,340,o),
(241,340,o),
(241,340,q),
(241,340,o),
(241,305.551,o),
(241,255.374,o),
(241,204.449,o),
(241,170,o),
(241,170,q),
(241,170,o)
);
},
{
closed = 1;
nodes = (
(108,-11,o),
(198,-11,o),
(305,-11,o),
(412.455,-11,o),
(502,-11,o),
(556,-11,o),
(556,-11,q),
(556,-11,o),
(556,25,o),
(556,73,o),
(556,109,o),
(556,109,q),
(556,109,o),
(502,109,o),
(412.455,109,o),
(305,109,o),
(198,109,o),
(108,109,o),
(54,109,o),
(54,109,q),
(54,109,o),
(54,73,o),
(54,25,o),
(54,-11,o),
(54,-11,q),
(54,-11,o)
);
}
);
width = 582;
}
);
note = uni00B1;
unicode = 177;
}
{
glyphname = twosuperior;
layers = (
{
layerId = m01;
shapes = (
{
closed = 1;
nodes = (
(136,436,o),
(196,436,o),
(264,436,o),
(324,436,o),
(362,436,o),
(362,436,q),
(362,436,o),
(363,444,o),
(365,454,o),
(366,462,o),
(366,462,q),
(366,462,o),
(322,462,o),
(257,462,o),
(192,462,o),
(148,462,o),
(148,462,q),
(237,527,o),
(350,627,o),
(405,717,o),
(405,767,qs),
(405,817,o),
(345,874,o),
(292,874,qs),
(255,874,o),
(190,833,o),
(166,807,q),
(166,807,o),
(172,801,o),
(179,793,o),
(185,787,o),
(185,787,q),
(208,813,o),
(262,848,o),
(290,848,qs),
(334,848,o),
(375,804,o),
(375,765,qs),
(375,720,o),
(322,636,o),
(202,535,o),
(102,462,q),
(102,462,o),
(101,454,o),
(99,444,o),
(98,436,o),
(98,436,q),
(98,436,o)
);
}
);
width = 375;
},
{
layerId = "0C2271EE-6BB0-42BD-9F3A-E5D7E2C847CD";
shapes = (
{
closed = 1;
nodes = (
(113.629,408,o),
(185.674,408,o),
(267.326,408,o),
(339.371,408,o),
(385,408,o),
(385,408,q),
(385,408,o),
(392,440,o),
(400,481,o),
(407,513,o),
(407,513,q),
(407,513,o),
(382.578,513,o),
(346.5,513,o),
(310.422,513,o),
(286,513,o),
(286,513,q),
(330,550,o),
(397,621,o),
(435,694,o),
(435,733,qs),
(435,793.28,o),
(354,862,o),
(284,862,qs),
(237,862,o),
(167,825,o),
(128,790,q),
(128,790,o),
(148,768,o),
(175,740,o),
(195,718,o),
(195,718,q),
(213,734,o),
(243.951,755,o),
(260,755,qs),
(286.4,755,o),
(311,730,o),
(311,710,qs),
(311,679,o),
(259,607,o),
(156,524,o),
(80,475,q),
(80,475,o),
(76,455,o),
(72,428,o),
(68,408,o),
(68,408,q),
(68,408,o)
);
}
);
width = 414;
}
);
note = uni00B2;
unicode = 178;
}
{
glyphname = threesuperior;
layers = (
{
layerId = m01;
shapes = (
{
closed = 1;
nodes = (
(333,454,o),
(373,513,o),
(373,554,qs),
(373,582,o),
(333,640,o),
(290,652,q),
(339,665,o),
(399,732,o),
(399,772,qs),
(399,821,o),
(337,874,o),
(288,874,qs),
(255,874,o),
(194,851,o),
(166,828,q),
(166,828,o),
(171,821,o),
(176,812,o),
(181,805,o),
(181,805,q),
(206,826,o),
(261,848,o),
(286,848,qs),
(325,848,o),
(368,806,o),
(368,772,qs),
(368,748,o),
(337,701,o),
(270,669,o),
(214,669,q),
(214,669,o),
(212,661,o),
(209,651,o),
(207,643,o),
(207,643,q),
(274,643,o),
(342,585,o),
(342,547,qs),
(342,500,o),
(275,449,o),
(231,449,qs),
(187,449,o),
(135,494,o),
(118,525,q),
(118,525,o),
(111,520,o),
(101,515,o),
(94,510,o),
(94,510,q),
(111,477,o),
(180,423,o),
(229,423,qs),
(267,423,o)
);
}
);
width = 375;
},
{
layerId = "0C2271EE-6BB0-42BD-9F3A-E5D7E2C847CD";
shapes = (
{
closed = 1;
nodes = (
(369,429,o),
(416,492,o),
(416,537,qs),
(416,566,o),
(382,615,o),
(353,632,q),
(400,651,o),
(441,709,o),
(441,752,qs),
(441,801,o),
(363,862,o),
(301,862,qs),
(260,862,o),
(190,845,o),
(150,822,q),
(150,822,o),
(166,797,o),
(186,765,o),
(202,740,o),
(202,740,q),
(225,756,o),
(253,766,o),
(272,766,qs),
(292,766,o),
(316,747,o),
(316,730,qs),
(316,715,o),
(301,688,o),
(259,670,o),
(219,670,q),
(219,670,o),
(214,648,o),
(208,618,o),
(203,596,o),
(203,596,q),
(260,596,o),
(296,567,o),
(296,543,qs),
(296,524,o),
(261,493,o),
(229,493,qs),
(205,493,o),
(167,518,o),
(151,543,q),
(151,543,o),
(127,525,o),
(95,503,o),
(71,485,o),
(71,485,q),
(97,445,o),
(179,395,o),
(241,395,qs),
(289,395,o)
);
}
);
width = 410;
}
);
note = uni00B3;
unicode = 179;
}
{
glyphname = acute;
layers = (
{
layerId = m01;
shapes = (
{
closed = 1;
nodes = (
(284,610,o),
(294,610,o),
(303,610,o),
(310,610,o),
(310,610,q),
(310,610,o),
(337,633,o),
(379,669,o),
(426,710,o),
(468,746,o),
(495,769,o),
(495,769,q),
(495,769,o),
(493,774,o),
(493,774,q),
(493,774,o),
(485,774,o),
(472,774,o),
(459,774,o),
(451,774,o),
(451,774,q),
(451,774,o),
(426,750,o),
(386,713,o),
(342,671,o),
(302,634,o),
(277,610,o),
(277,610,q),
(277,610,o)
);
}
);
width = 549;
},
{
layerId = "0C2271EE-6BB0-42BD-9F3A-E5D7E2C847CD";
shapes = (
{
closed = 1;
nodes = (
(290,633,o),
(332,633,o),
(373,633,o),
(401,633,o),
(401,633,q),
(401,633,o),
(435.151,660.774,o),
(488.276,704.245,o),
(547.724,753.755,o),
(600.849,797.226,o),
(635,825,o),
(635,825,q),
(635,825,o),
(625.2,844,o),
(625.2,844,q),
(625.2,844,o),
(586,844,o),
(529,844,o),
(472,844,o),
(433,844,o),
(433,844,q),
(433,844,o),
(408,814,o),
(369,765,o),
(326,712,o),
(287,663,o),
(262,633,o),
(262,633,q),
(262,633,o)
);
}
);
width = 607;
}
);
note = uni00B4;
unicode = 180;
}
{
glyphname = micro;
kernLeft = micro;
kernRight = iota;
layers = (
{
layerId = m01;
shapes = (
{
closed = 1;
nodes = (
(13,-207,o),
(22,-207,o),
(31,-207,o),
(37,-207,o),
(37,-207,q),
(43,-172,o),
(52,-114,o),
(63,-55,o),
(77,16,o),
(87,65,q),
(101,13,o),
(164,-24,o),
(205,-24,qs),
(249,-24,o),
(342,34,o),
(386,96,q),
(386,96,o),
(390,96,o),
(390,96,q),
(386,70,o),
(382,46,o),
(382,35,qs),
(382,6,o),
(407,-20,o),
(432,-20,qs),
(440,-20,o),
(452,-17,o),
(460,-13,q),
(460,-13,o),
(459,-5,o),
(457,5,o),
(456,13,o),
(456,13,q),
(451,12,o),
(441,9,o),
(434,9,qs),
(423,9,o),
(410,20,o),
(410,39,qs),
(410,54,o),
(425,138,o),
(452,265,o),
(486,423,o),
(504,510,q),
(504,510,o),
(498,510,o),
(489,510,o),
(479,510,o),
(473,510,o),
(473,510,q),
(473,510,o),
(463,458,o),
(446,377,o),
(428,286,o),
(411,205,o),
(401,153,o),
(401,153,q),
(358,91,o),
(288,26,o),
(232,4,o),
(207,4,qs),
(167,4,o),
(107,49,o),
(107,111,qs),
(107,128,o),
(113,174,o),
(118,196,q),
(118,196,o),
(127,241,o),
(142,313,o),
(159,393,o),
(174,465,o),
(183,510,o),
(183,510,q),
(183,510,o),
(177,510,o),
(168,510,o),
(159,510,o),
(153,510,o),
(153,510,q),
(153,510,o),
(141,450,o),
(120,347,o),
(94,220,o),
(66,83,o),
(40,-44,o),
(19,-147,o),
(7,-207,o),
(7,-207,q),
(7,-207,o)
);
}
);
width = 534;
},
{
layerId = "0C2271EE-6BB0-42BD-9F3A-E5D7E2C847CD";
shapes = (
{
closed = 1;
nodes = (
(5.6,-210,o),
(57.5,-210,o),
(109.4,-210,o),
(144,-210,o),
(144,-210,q),
(146,-182,o),
(151,-130,o),
(159,-77,o),
(168,-21,o),
(174,9,q),
(186,-8,o),
(225,-22,o),
(244,-22,qs),
(276,-22,o),
(347,15,o),
(371,64,q),
(371,64,o),
(375,64,o),
(375,64,q),
(375,62,o),
(374,59.943,o),
(374,59,qs),
(376,21,o),
(432,-25,o),
(494,-25,qs),
(520,-25,o),
(559,-16,o),
(572,-11,q),
(572,-11,o),
(574,27,o),
(575,76,o),
(577,114,o),
(577,114,q),
(570,113,o),
(555,112,o),
(550,112,qs),
(538,112,o),
(521,125,o),
(521,142,qs),
(521,153,o),
(534,220,o),
(559,327,o),
(595,468,o),
(617,552,q),
(617,552,o),
(582,552,o),
(531,552,o),
(479,552,o),
(444,552,o),
(444,552,q),
(444,552,o),
(434.278,500,o),
(417.75,419,o),
(400.25,328,o),
(383.722,247,o),
(374,195,o),
(374,195,q),
(356,167,o),
(321,133,o),
(287,118,o),
(270,118,qs),
(246,118,o),
(220,141,o),
(220,170.038,qs),
(220,178,o),
(224,209,o),
(227,225,q),
(227,225,o),
(237,272,o),
(252.319,346.893,o),
(269.681,430.107,o),
(285,505,o),
(295,552,o),
(295,552,q),
(295,552,o),
(260,552,o),
(209.5,552,o),
(159,552,o),
(124,552,o),
(124,552,q),
(124,552,o),
(111.273,488.319,o),
(89,379,o),
(62,243,o),
(33,99,o),
(6,-37,o),
(-16.273,-146.319,o),
(-29,-210,o),
(-29,-210,q),
(-29,-210,o)
);
}
);
width = 635;
}
);
note = uni00B5;
unicode = (181,956);
}
{
glyphname = paragraph;
layers = (
{
layerId = m01;
shapes = (
{
closed = 1;
nodes = (
(320,-98,o),
(329,-98,o),
(338,-98,o),
(344,-98,o),
(344,-98,q),
(344,-98,o),
(358,-30,o),
(381,85,o),
(410,229,o),
(440,381,o),
(469,525,o),
(492,640,o),
(506,708,o),
(506,708,q),
(506,708,o),
(500,708,o),
(491,708,o),
(481,708,o),
(475,708,o),
(475,708,q),
(475,708,o),
(461,640,o),
(438,525,o),
(410,381,o),
(379,229,o),
(351,85,o),
(328,-30,o),
(314,-98,o),
(314,-98,q),
(314,-98,o)
);
},
{
closed = 1;
nodes = (
(328,259,o),
(329,259,o),
(329,259,q),
(329,259,o),
(339,308,o),
(355,388,o),
(375,483,o),
(395,579,o),
(411,659,o),
(421,708,o),
(421,708,q),
(421,708,o),
(393,708,o),
(364,708,o),
(364,708,q),
(311,708,o),
(210,675,o),
(130,609,o),
(83,510,o),
(83,445,qs),
(83,384,o),
(150,301,o),
(261,259,o),
(327,259,q),
(327,259,o)
);
}
);
width = 519;
},
{
layerId = "0C2271EE-6BB0-42BD-9F3A-E5D7E2C847CD";
shapes = (
{
closed = 1;
nodes = (
(393,-101,o),
(444,-101,o),
(495,-101,o),
(529,-101,o),
(529,-101,q),
(529,-101,o),
(543,-31,o),
(566.207,86.694,o),
(595.468,234.067,o),
(625.739,389.627,o),
(655,537,o),
(678,655.142,o),
(692,725,o),
(692,725,q),
(692,725,o),
(658,725,o),
(607,725,o),
(556,725,o),
(522,725,o),
(522,725,q),
(522,725,o),
(508,655,o),
(484.654,537.254,o),
(456.233,389.815,o),
(424.767,234.185,o),
(396.346,86.746,o),
(373,-31,o),
(359,-101,o),
(359,-101,q),
(359,-101,o)
);
},
{
closed = 1;
nodes = (
(339,208,o),
(358,208,o),
(358,208,q),
(358,208,o),
(369,264,o),
(388,356,o),
(410,467,o),
(431,577,o),
(450,669,o),
(461,725,o),
(461,725,q),
(461,725,o),
(437.912,725,o),
(414,725,o),
(414,725,q),
(348,725,o),
(227,690,o),
(132,615,o),
(78,498,o),
(78,417,qs),
(78,350,o),
(145,257,o),
(256,208,o),
(320,208,q),
(320,208,o)
);
}
);
width = 705;
}
);
note = uni00B6;
unicode = 182;
}
{
glyphname = periodcentered;
kernLeft = periodcentered;
kernRight = periodcentered;
layers = (
{
layerId = m01;
shapes = (
{
closed = 1;
nodes = (
(152,321,o),
(164,343,o),
(164,355,qs),
(164,370,o),
(150,390,o),
(135,390,qs),
(123,390,o),
(102,375,o),
(89,352,o),
(89,340,qs),
(89,327,o),
(105,307,o),
(120,307,qs),
(132,307,o)
);
}
);
width = 220;
},
{
layerId = "0C2271EE-6BB0-42BD-9F3A-E5D7E2C847CD";
shapes = (
{
closed = 1;
nodes = (
(260,287,o),
(289,343,o),
(289,373,qs),
(289,412,o),
(242,464,o),
(203,464,qs),
(168,464,o),
(114,428,o),
(85,372,o),
(85,343,qs),
(85,303,o),
(132,252,o),
(171,252,qs),
(207,252,o)
);
}
);
width = 341;
}
);
note = uni00B7;
unicode = 183;
}
{
glyphname = cedilla;
layers = (
{
layerId = m01;
shapes = (
{
closed = 1;
nodes = (
(266,-192,o),
(266,-146,qs),
(266,-123,o),
(243,-95,o),
(205,-85,q),
(205,-85,o),
(219,-62,o),
(237,-32,o),
(251,-9,o),
(251,-9,q),
(251,-9,o),
(242,-9,o),
(229,-9,o),
(220,-9,o),
(220,-9,q),
(220,-9,o),
(202,-38,o),
(177,-76,o),
(159,-105,o),
(159,-105,q),
(196,-108,o),
(233,-130,o),
(233,-155,qs),
(233,-182,o),
(165,-218,o),
(98,-220,q),
(98,-220,o),
(99,-228,o),
(99,-238,o),
(100,-246,o),
(100,-246,q),
(174,-244,o)
);
}
);
width = 549;
},
{
layerId = "0C2271EE-6BB0-42BD-9F3A-E5D7E2C847CD";
shapes = (
{
closed = 1;
nodes = (
(324,-224,o),
(334,-164,qs),
(339,-129,o),
(304,-90,o),
(261,-80,q),
(261,-80,o),
(275,-58,o),
(292,-28,o),
(306,-6,o),
(306,-6,q),
(306,-6,o),
(274,-6,o),
(233,-6,o),
(201,-6,o),
(201,-6,q),
(201,-6,o),
(178,-40,o),
(148,-84,o),
(125,-118,o),
(125,-118,q),
(175,-125,o),
(207,-148,o),
(205,-165,qs),
(200,-188,o),
(146,-210,o),
(81,-213,q),
(81,-213,o),
(81,-234,o),
(81,-263,o),
(81,-284,o),
(81,-284,q),
(192,-281,o)
);
}
);
width = 607;
}
);
note = uni00B8;
unicode = 184;
}
{
glyphname = onesuperior;
layers = (
{
layerId = m01;
shapes = (
{
closed = 1;
nodes = (
(233,436,o),
(245,436,o),
(253,436,o),
(253,436,q),
(253,436,o),
(262,482,o),
(277,558,o),
(295,649,o),
(314,739,o),
(329,815,o),
(338,861,o),
(338,861,q),
(338,861,o),
(331,861,o),
(321,861,o),
(314,861,o),
(314,861,q),
(291,845,o),
(242,828,o),
(201,822,q),
(201,822,o),
(199,815,o),
(198,807,o),
(196,800,o),
(196,800,q),
(196,800,o),
(226,800,o),
(266,800,o),
(296,800,o),
(296,800,q),
(296,800,o),
(286,747,o),
(270,665,o),
(251,571,o),
(235,489,o),
(225,436,o),
(225,436,q),
(225,436,o)
);
}
);
width = 371;
},
{
layerId = "0C2271EE-6BB0-42BD-9F3A-E5D7E2C847CD";
shapes = (
{
closed = 1;
nodes = (
(245,408,o),
(295,408,o),
(333,408,o),
(333,408,q),
(333,408,o),
(342,456,o),
(358,534,o),
(375.514,629.022,o),
(394,723,o),
(410,801,o),
(419,849,o),
(419,849,q),
(419,849,o),
(390,849,o),
(352,849,o),
(323,849,o),
(323,849,q),
(292,829,o),
(236,807,o),
(189,800,q),
(189,800,o),
(184,776,o),
(179,746,o),
(174,722,o),
(174,722,q),
(174,722,o),
(203.1,722,o),
(241.9,722,o),
(271,722,o),
(271,722,q),
(271,722,o),
(262,677,o),
(247,605,o),
(231,525,o),
(216,453,o),
(207,408,o),
(207,408,q),
(207,408,o)
);
}
);
width = 431;
}
);
note = uni00B9;
unicode = 185;
}
{
glyphname = guillemetright;
kernLeft = guilsinglright;
kernRight = guilsinglright;
layers = (
{
layerId = m01;
shapes = (
{
closed = 1;
nodes = (
(74,104,o),
(125,155,o),
(176,206,o),
(211,240,o),
(211,240,q),
(211,240,o),
(213,251,o),
(216,264,o),
(218,275,o),
(218,275,q),
(218,275,o),
(196,312,o),
(163,366,o),
(129,419,o),
(107,456,o),
(107,456,q),
(107,456,o),
(100,452,o),
(92,446,o),
(85,442,o),
(85,442,q),
(85,442,o),
(105,406,o),
(134,352,o),
(163,298,o),
(183,262,o),
(183,262,q),
(183,262,o),
(150,227,o),
(102,174,o),
(55,122,o),
(22,87,o),
(22,87,q),
(22,87,o),
(27,82,o),
(34,75,o),
(39,70,o),
(39,70,q),
(39,70,o)
);
},
{
closed = 1;
nodes = (
(222,104,o),
(274,155,o),
(325,206,o),
(360,240,o),
(360,240,q),
(360,240,o),
(362,251,o),
(364,264,o),
(366,275,o),
(366,275,q),
(366,275,o),
(344,312,o),
(311,366,o),
(277,419,o),
(255,456,o),
(255,456,q),
(255,456,o),
(248,452,o),
(240,446,o),
(233,442,o),
(233,442,q),
(233,442,o),
(253,406,o),
(282,352,o),
(311,298,o),
(331,262,o),
(331,262,q),
(331,262,o),
(298,227,o),
(250,174,o),
(203,122,o),
(170,87,o),
(170,87,q),
(170,87,o),
(175,82,o),
(182,75,o),
(187,70,o),
(187,70,q),
(187,70,o)
);
}
);
width = 405;
},
{
layerId = "0C2271EE-6BB0-42BD-9F3A-E5D7E2C847CD";
shapes = (
{
closed = 1;
nodes = (
(117,83,o),
(168.5,129,o),
(220,175,o),
(255,207,o),
(255,207,q),
(255,207,o),
(262,243,o),
(270,291,o),
(277,327,o),
(277,327,q),
(277,327,o),
(253.4,361.154,o),
(218,411,o),
(183,460,o),
(159,494,o),
(159,494,q),
(159,494,o),
(139,481,o),
(113,464,o),
(93,451,o),
(93,451,q),
(93,451,o),
(111,416,o),
(137,365,o),
(162.449,312.8,o),
(180,278,o),
(180,278,q),
(180,278,o),
(150,244,o),
(105.032,192.514,o),
(61,142,o),
(31,108,o),
(31,108,q),
(31,108,o),
(46,91.235,o),
(67,67.765,o),
(82,51,o),
(82,51,q),
(82,51,o)
);
},
{
closed = 1;
nodes = (
(338,83,o),
(390,129,o),
(441,175,o),
(476,207,o),
(476,207,q),
(476,207,o),
(482,243,o),
(491,291,o),
(497,327,o),
(497,327,q),
(497,327,o),
(473.4,361.154,o),
(438,411,o),
(404,460,o),
(380,494,o),
(380,494,q),
(380,494,o),
(360,481,o),
(333,464,o),
(313,451,o),
(313,451,q),
(313,451,o),
(331,416,o),
(357,365,o),
(382.449,312.8,o),
(400,278,o),
(400,278,q),
(400,278,o),
(369.852,244.193,o),
(326,193,o),
(281,142,o),
(251,108,o),
(251,108,q),
(251,108,o),
(267,91,o),
(287,68,o),
(303,51,o),
(303,51,q),
(303,51,o)
);
}
);
width = 533;
}
);
note = uni00BB;
unicode = 187;
}
{
glyphname = onequarter;
layers = (
{
layerId = m01;
shapes = (
{
closed = 1;
nodes = (
(178,283,o),
(190,283,o),
(198,283,o),
(198,283,q),
(198,283,o),
(207,329,o),
(222,405,o),
(241,495,o),
(259,586,o),
(274,662,o),
(283,708,o),
(283,708,q),
(283,708,o),
(276,708,o),
(266,708,o),
(259,708,o),
(259,708,q),
(237,692,o),
(187,676,o),
(146,669,q),
(146,669,o),
(145,662,o),
(143,654,o),
(142,647,o),
(142,647,q),
(142,647,o),
(172,647,o),
(212,647,o),
(242,647,o),
(242,647,q),
(242,647,o),
(232,594,o),
(215,512,o),
(197,418,o),
(180,336,o),
(170,283,o),
(170,283,q),
(170,283,o)
);
},
{
closed = 1;
nodes = (
(141,-24,o),
(154,-24,o),
(164,-24,o),
(164,-24,q),
(164,-24,o),
(209,39,o),
(286,145,o),
(381,278,o),
(483,419,o),
(578,552,o),
(655,658,o),
(700,721,o),
(700,721,q),
(700,721,o),
(690,721,o),
(677,721,o),
(667,721,o),
(667,721,q),
(667,721,o),
(622,658,o),
(545,552,o),
(450,419,o),
(348,278,o),
(253,145,o),
(176,39,o),
(131,-24,o),
(131,-24,q),
(131,-24,o)
);
},
{
closed = 1;
nodes = (
(601,-11,o),
(613,-11,o),
(621,-11,o),
(621,-11,q),
(621,-11,o),
(630,35,o),
(645,111,o),
(664,202,o),
(682,292,o),
(697,368,o),
(706,414,o),
(706,414,q),
(706,414,o),
(702,414,o),
(697,414,o),
(691,414,o),
(687,414,o),
(687,414,q),
(687,414,o),
(651,374,o),
(594,312,o),
(531,241,o),
(474,179,o),
(438,139,o),
(438,139,q),
(438,139,o),
(437,133,o),
(435,126,o),
(434,120,o),
(434,120,q),
(434,120,o),
(474,120,o),
(536,120,o),
(607,120,o),
(669,120,o),
(709,120,o),
(709,120,q),
(709,120,o),
(711,128,o),
(713,138,o),
(715,146,o),
(715,146,q),
(715,146,o),
(681,146,o),
(626,146,o),
(566,146,o),
(511,146,o),
(477,146,o),
(477,146,q),
(477,146,o),
(500,171,o),
(533,208,o),
(566,245,o),
(589,270,o),
(589,270,q),
(589,270,o),
(613,297,o),
(643,333,o),
(667,360,o),
(667,360,q),
(667,360,o),
(671,360,o),
(671,360,q),
(671,360,o),
(666,338,o),
(658,307,o),
(650,275,o),
(645,253,o),
(645,253,q),
(645,253,o),
(637,215,o),
(626,155,o),
(612,87,o),
(601,27,o),
(593,-11,o),
(593,-11,q),
(593,-11,o)
);
}
);
width = 789;
},
{
layerId = "0C2271EE-6BB0-42BD-9F3A-E5D7E2C847CD";
shapes = (
{
closed = 1;
nodes = (
(186,294,o),
(237,294,o),
(275,294,o),
(275,294,q),
(275,294,o),
(284,341.508,o),
(299,420,o),
(317,515,o),
(336,609,o),
(351,687.492,o),
(360,735,o),
(360,735,q),
(360,735,o),
(331,735,o),
(293,735,o),
(264,735,o),
(264,735,q),
(233,715,o),
(177,693,o),
(130,686,q),
(130,686,o),
(125,662,o),
(120,632,o),
(115,608,o),
(115,608,q),
(115,608,o),
(144.1,608,o),
(182.9,608,o),
(212,608,o),
(212,608,q),
(212,608,o),
(203,563,o),
(188,491,o),
(172,411,o),
(157,339,o),
(148,294,o),
(148,294,q),
(148,294,o)
);
},
{
closed = 1;
nodes = (
(169.091,-25,o),
(206.909,-25,o),
(236,-25,o),
(236,-25,q),
(236,-25,o),
(281,40,o),
(357,151,o),
(452,288,o),
(554,435,o),
(649,572,o),
(725,683,o),
(770,748,o),
(770,748,q),
(770,748,o),
(740.303,748,o),
(701.697,748,o),
(672,748,o),
(672,748,q),
(672,748,o),
(627,683,o),
(551,572,o),
(456,435,o),
(356,288,o),
(261,151,o),
(185,40,o),
(140,-25,o),
(140,-25,q),
(140,-25,o)
);
},
{
closed = 1;
nodes = (
(683,-11,o),
(725,-11,o),
(757,-11,o),
(757,-11,q),
(757,-11,o),
(766,37,o),
(782,115,o),
(801,210.022,o),
(819,304,o),
(835,382,o),
(844,430,o),
(844,430,q),
(844,430,o),
(813,430,o),
(766,430,o),
(719.8,430,o),
(689,430,o),
(689,430,q),
(689,430,o),
(658.032,388.824,o),
(609,325,o),
(553,254,o),
(503.968,190.176,o),
(473,149,o),
(473,149,q),
(473,149,o),
(469,130,o),
(464,104,o),
(460,85,o),
(460,85,q),
(460,85,o),
(515.273,85,o),
(600.945,85,o),
(699.055,85,o),
(784.727,85,o),
(840,85,o),
(840,85,q),
(840,85,o),
(845,109,o),
(852,142,o),
(857,166,o),
(857,166,q),
(857,166,o),
(818,166,o),
(757,166,o),
(688,166,o),
(627,166,o),
(588,166,o),
(588,166,q),
(588,166,o),
(602.17,184.145,o),
(622.5,211,o),
(642.83,237.855,o),
(657,256,o),
(657,256,q),
(657,256,o),
(677.308,284.8,o),
(702.692,323.2,o),
(723,352,o),
(723,352,q),
(723,352,o),
(728,352,o),
(728,352,q),
(728,352,o),
(722,324,o),
(712,283,o),
(702.154,242.111,o),
(696,214,o),
(696,214,q),
(696,214,o),
(688.842,181.429,o),
(679,130,o),
(668,73,o),
(657,21,o),
(651,-11,o),
(651,-11,q),
(651,-11,o)
);
}
);
width = 885;
}
);
note = uni00BC;
unicode = 188;
}
{
glyphname = onehalf;
layers = (
{
layerId = m01;
shapes = (
{
closed = 1;
nodes = (
(174,283,o),
(186,283,o),
(194,283,o),
(194,283,q),
(194,283,o),
(203,329,o),
(218,405,o),
(237,495,o),
(255,586,o),
(270,662,o),
(279,708,o),
(279,708,q),
(279,708,o),
(272,708,o),
(262,708,o),
(255,708,o),
(255,708,q),
(233,692,o),
(183,676,o),
(142,669,q),
(142,669,o),
(140,662,o),
(139,654,o),
(137,647,o),
(137,647,q),
(137,647,o),
(168,647,o),
(207,647,o),
(238,647,o),
(238,647,q),
(238,647,o),
(228,594,o),
(211,512,o),
(193,418,o),
(176,336,o),
(166,283,o),
(166,283,q),
(166,283,o)
);
},
{
closed = 1;
nodes = (
(108,-24,o),
(121,-24,o),
(131,-24,o),
(131,-24,q),
(131,-24,o),
(176,39,o),
(253,145,o),
(348,278,o),
(450,419,o),
(545,552,o),
(622,658,o),
(667,721,o),
(667,721,q),
(667,721,o),
(657,721,o),
(644,721,o),
(634,721,o),
(634,721,q),
(634,721,o),
(589,658,o),
(512,552,o),
(417,419,o),
(315,278,o),
(220,145,o),
(143,39,o),
(98,-24,o),
(98,-24,q),
(98,-24,o)
);
},
{
closed = 1;
nodes = (
(476,-11,o),
(536,-11,o),
(604,-11,o),
(664,-11,o),
(702,-11,o),
(702,-11,q),
(702,-11,o),
(703,-3,o),
(705,7,o),
(706,15,o),
(706,15,q),
(706,15,o),
(662,15,o),
(597,15,o),
(532,15,o),
(488,15,o),
(488,15,q),
(577,80,o),
(691,180,o),
(746,270,o),
(746,320,qs),
(746,370,o),
(685,427,o),
(632,427,qs),
(595,427,o),
(530,386,o),
(506,360,q),
(506,360,o),
(512,354,o),
(519,346,o),
(525,340,o),
(525,340,q),
(548,366,o),
(602,401,o),
(630,401,qs),
(674,401,o),
(715,358,o),
(715,318,qs),
(715,273,o),
(662,189,o),
(543,88,o),
(443,15,q),
(443,15,o),
(441,7,o),
(440,-3,o),
(438,-11,o),
(438,-11,q),
(438,-11,o)
);
}
);
width = 807;
},
{
layerId = "0C2271EE-6BB0-42BD-9F3A-E5D7E2C847CD";
shapes = (
{
closed = 1;
nodes = (
(182,294,o),
(232,294,o),
(270,294,o),
(270,294,q),
(270,294,o),
(279,342,o),
(295,420,o),
(313,515,o),
(331,609,o),
(347,687,o),
(356,735,o),
(356,735,q),
(356,735,o),
(327,735,o),
(289,735,o),
(260,735,o),
(260,735,q),
(229,715,o),
(173,693,o),
(125,686,q),
(125,686,o),
(121,662,o),
(115,632,o),
(111,608,o),
(111,608,q),
(111,608,o),
(140,608,o),
(179,608,o),
(208,608,o),
(208,608,q),
(208,608,o),
(199,563,o),
(184,491,o),
(168,411,o),
(153,339,o),
(144,294,o),
(144,294,q),
(144,294,o)
);
},
{
closed = 1;
nodes = (
(157.091,-25,o),
(194.909,-25,o),
(224,-25,o),
(224,-25,q),
(224,-25,o),
(269,40,o),
(345,151,o),
(440,288,o),
(541,435,o),
(636,572,o),
(712,683,o),
(757,748,o),
(757,748,q),
(757,748,o),
(727.606,748,o),
(689.394,748,o),
(660,748,o),
(660,748,q),
(660,748,o),
(615,683,o),
(539,572,o),
(444,435,o),
(344,288,o),
(249,151,o),
(173,40,o),
(128,-25,o),
(128,-25,q),
(128,-25,o)
);
},
{
closed = 1;
nodes = (
(551.773,-11,o),
(624.045,-11,o),
(705.955,-11,o),
(778.227,-11,o),
(824,-11,o),
(824,-11,q),
(824,-11,o),
(830,21,o),
(839,62,o),
(845,94,o),
(845,94,q),
(845,94,o),
(820.578,94,o),
(784.5,94,o),
(748.422,94,o),
(724,94,o),
(724,94,q),
(768,131,o),
(835,202,o),
(873,274,o),
(873,313,qs),
(873,373.748,o),
(793,443,o),
(722,443,qs),
(676,443,o),
(605,406,o),
(566,371,q),
(566,371,o),
(587,349,o),
(613,321,o),
(634,299,o),
(634,299,q),
(652,315,o),
(682.293,336,o),
(698,336,qs),
(724.4,336,o),
(749,311,o),
(749,291,qs),
(749,260,o),
(697,188,o),
(595,105,o),
(519,56,q),
(519,56,o),
(515,36,o),
(510,9,o),
(506,-11,o),
(506,-11,q),
(506,-11,o)
);
}
);
width = 929;
}
);
note = uni00BD;
unicode = 189;
}
{
glyphname = threequarters;
layers = (
{
layerId = m01;
shapes = (
{
closed = 1;
nodes = (
(296,301,o),
(336,360,o),
(336,401,qs),
(336,429,o),
(296,488,o),
(253,499,q),
(302,513,o),
(362,580,o),
(362,619,qs),
(362,668,o),
(300,721,o),
(251,721,qs),
(218,721,o),
(157,699,o),
(129,676,q),
(129,676,o),
(134,669,o),
(139,660,o),
(144,653,o),
(144,653,q),
(169,673,o),
(224,695,o),
(249,695,qs),
(288,695,o),
(331,654,o),
(331,619,qs),
(331,595,o),
(300,548,o),
(233,517,o),
(177,517,q),
(177,517,o),
(175,509,o),
(172,498,o),
(170,490,o),
(170,490,q),
(237,490,o),
(305,432,o),
(305,394,qs),
(305,347,o),
(238,296,o),
(194,296,qs),
(150,296,o),
(97,342,o),
(81,373,q),
(81,373,o),
(74,368,o),
(64,362,o),
(57,357,o),
(57,357,q),
(73,325,o),
(143,270,o),
(192,270,qs),
(230,270,o)
);
},
{
closed = 1;
nodes = (
(187,-24,o),
(199,-24,o),
(209,-24,o),
(209,-24,q),
(209,-24,o),
(254,39,o),
(331,145,o),
(427,278,o),
(528,419,o),
(624,552,o),
(701,658,o),
(746,721,o),
(746,721,q),
(746,721,o),
(736,721,o),
(723,721,o),
(713,721,o),
(713,721,q),
(713,721,o),
(668,658,o),
(591,552,o),
(496,419,o),
(394,278,o),
(299,145,o),
(222,39,o),
(177,-24,o),
(177,-24,q),
(177,-24,o)
);
},
{
closed = 1;
nodes = (
(625,-11,o),
(637,-11,o),
(645,-11,o),
(645,-11,q),
(645,-11,o),
(654,35,o),
(669,111,o),
(688,202,o),
(706,292,o),
(721,368,o),
(730,414,o),
(730,414,q),
(730,414,o),
(726,414,o),
(721,414,o),
(715,414,o),
(711,414,o),
(711,414,q),
(711,414,o),
(675,374,o),
(618,312,o),
(555,241,o),
(498,179,o),
(462,139,o),
(462,139,q),
(462,139,o),
(461,133,o),
(459,126,o),
(458,120,o),
(458,120,q),
(458,120,o),
(498,120,o),
(560,120,o),
(630,120,o),
(692,120,o),
(732,120,o),
(732,120,q),
(732,120,o),
(734,128,o),
(737,138,o),
(739,146,o),
(739,146,q),
(739,146,o),
(705,146,o),
(650,146,o),
(590,146,o),
(535,146,o),
(501,146,o),
(501,146,q),
(501,146,o),
(524,171,o),
(557,208,o),
(590,245,o),
(613,270,o),
(613,270,q),
(613,270,o),
(637,297,o),
(667,333,o),
(691,360,o),
(691,360,q),
(691,360,o),
(695,360,o),
(695,360,q),
(695,360,o),
(690,338,o),
(682,307,o),
(674,275,o),
(669,253,o),
(669,253,q),
(669,253,o),
(661,215,o),
(650,155,o),
(636,87,o),
(625,27,o),
(617,-11,o),
(617,-11,q),
(617,-11,o)
);
}
);
width = 811;
},
{
layerId = "0C2271EE-6BB0-42BD-9F3A-E5D7E2C847CD";
shapes = (
{
closed = 1;
nodes = (
(339,315,o),
(386,378,o),
(386,423,qs),
(386,452,o),
(353,501,o),
(323,518,q),
(370,537,o),
(411,595,o),
(411,638,qs),
(411,687,o),
(332.802,748,o),
(271,748,qs),
(231,748,o),
(161,731,o),
(121,708,q),
(121,708,o),
(137,683,o),
(157,651,o),
(173,626,o),
(173,626,q),
(195,642,o),
(224,652,o),
(243,652,qs),
(263,652,o),
(287,632.579,o),
(287,616,qs),
(287,601,o),
(272,574,o),
(230,556,o),
(190,556,q),
(190,556,o),
(185.429,534.074,o),
(178.571,503.926,o),
(174,482,o),
(174,482,q),
(231,482,o),
(267,453,o),
(267,429,qs),
(267,410,o),
(232,379,o),
(200,379,qs),
(175,379,o),
(137,404,o),
(122,429,q),
(122,429,o),
(98,411,o),
(66,389,o),
(42,371,o),
(42,371,q),
(68,331,o),
(150,281,o),
(211.391,281,qs),
(259,281,o)
);
},
{
closed = 1;
nodes = (
(194,-25,o),
(232,-25,o),
(261,-25,o),
(261,-25,q),
(261,-25,o),
(306,40,o),
(382,151,o),
(477,288,o),
(578,435,o),
(673,572,o),
(749,683,o),
(794,748,o),
(794,748,q),
(794,748,o),
(764.606,748,o),
(726.394,748,o),
(697,748,o),
(697,748,q),
(697,748,o),
(652,683,o),
(576,572,o),
(481,435,o),
(381,288,o),
(286,151,o),
(210,40,o),
(165,-25,o),
(165,-25,q),
(165,-25,o)
);
},
{
closed = 1;
nodes = (
(695,-11,o),
(738,-11,o),
(770,-11,o),
(770,-11,q),
(770,-11,o),
(779,37,o),
(795,115,o),
(814,210.022,o),
(832,304,o),
(848,382,o),
(857,430,o),
(857,430,q),
(857,430,o),
(826,430,o),
(779,430,o),
(732.8,430,o),
(702,430,o),
(702,430,q),
(702,430,o),
(671.032,388.824,o),
(622,325,o),
(566,254,o),
(516.968,190.176,o),
(486,149,o),
(486,149,q),
(486,149,o),
(482,130,o),
(476,104,o),
(472,85,o),
(472,85,q),
(472,85,o),
(527.474,85,o),
(613.46,85,o),
(710.54,85,o),
(796.526,85,o),
(852,85,o),
(852,85,q),
(852,85,o),
(857,109,o),
(864,142,o),
(869,166,o),
(869,166,q),
(869,166,o),
(830,166,o),
(769,166,o),
(700,166,o),
(639,166,o),
(600,166,o),
(600,166,q),
(600,166,o),
(614.17,184.145,o),
(634.5,211,o),
(654.83,237.855,o),
(669,256,o),
(669,256,q),
(669,256,o),
(689,285,o),
(716,323,o),
(736,352,o),
(736,352,q),
(736,352,o),
(740,352,o),
(740,352,q),
(740,352,o),
(734,324,o),
(725,283,o),
(715.154,242.111,o),
(709,214,o),
(709,214,q),
(709,214,o),
(702,181,o),
(692.32,130.375,o),
(680,73,o),
(670,21,o),
(663,-11,o),
(663,-11,q),
(663,-11,o)
);
}
);
width = 897;
}
);
note = uni00BE;
unicode = 190;
}
{
glyphname = questiondown;
kernLeft = questiondown;
kernRight = questiondown;
layers = (
{
layerId = m01;
shapes = (
{
closed = 1;
nodes = (
(268,-186,o),
(294,-157,q),
(294,-157,o),
(288,-150,o),
(281,-142,o),
(275,-135,o),
(275,-135,q),
(249,-164,o),
(174,-203,o),
(135,-203,qs),
(83,-203,o),
(24,-140,o),
(24,-85,qs),
(24,-45,o),
(57,20,o),
(109,77,o),
(168,134,o),
(221,197,o),
(256,272,o),
(257,320,q),
(257,320,o),
(251,321,o),
(243,322,o),
(235,322,o),
(229,323,o),
(229,323,q),
(227,278,o),
(191,207,o),
(137,145,o),
(78,87,o),
(26,26,o),
(-7,-47,o),
(-7,-92,qs),
(-7,-157,o),
(68,-231,o),
(133,-231,qs),
(182,-231,o)
);
},
{
closed = 1;
nodes = (
(295,458,o),
(307,481,o),
(307,493,qs),
(307,506,o),
(291,525,o),
(277,525,qs),
(265,525,o),
(245,511,o),
(233,489,o),
(233,477,qs),
(233,463,o),
(247,442,o),
(262,442,qs),
(274,442,o)
);
}
);
width = 414;
},
{
layerId = "0C2271EE-6BB0-42BD-9F3A-E5D7E2C847CD";
shapes = (
{
closed = 1;
nodes = (
(356,-178,o),
(398,-138,q),
(398,-138,o),
(372,-109,o),
(338,-71,o),
(312,-42,o),
(312,-42,q),
(292,-63,o),
(253,-82,o),
(233,-82,qs),
(202,-82,o),
(165,-47,o),
(165,-19,qs),
(165,6,o),
(191,46,o),
(232,83,o),
(279,122,o),
(324,172,o),
(357,238,o),
(362,282,q),
(362,282,o),
(333,285,o),
(289,289,o),
(245,292,o),
(216,295,o),
(216,295,q),
(210,258,o),
(174,202,o),
(125,156,o),
(73,113,o),
(28,63,o),
(0,0,o),
(0,-44,qs),
(0,-126,o),
(117,-218,o),
(211,-218,qs),
(262,-218,o)
);
},
{
closed = 1;
nodes = (
(396,390,o),
(426,446,o),
(426,475,qs),
(426,516,o),
(378,566,o),
(339,566,qs),
(304,566,o),
(250,530,o),
(220,475,o),
(220,444,qs),
(220,407,o),
(268,354,o),
(307,354,qs),
(342,354,o)
);
}
);
width = 511;
}
);
note = uni00BF;
unicode = 191;
}
{
glyphname = Agrave;
kernLeft = A;
kernRight = A;
layers = (
{
layerId = m01;
shapes = (
{
closed = 1;
nodes = (
(-39,-11,o),
(-29,-11,o),
(-20,-11,o),
(-13,-11,o),
(-13,-11,q),
(-13,-11,o),
(12,36,o),
(54,113,o),
(104,205,o),
(155,297,o),
(197,374,o),
(222,421,o),
(222,421,q),
(257,485,o),
(323,604,o),
(355,671,q),
(355,671,o),
(360,671,o),
(360,671,q),
(366,606,o),
(381,481,o),
(388,421,q),
(388,421,o),
(394,374,o),
(403,297,o),
(414,205,o),
(425,113,o),
(434,36,o),
(440,-11,o),
(440,-11,q),
(440,-11,o),
(447,-11,o),
(457,-11,o),
(466,-11,o),
(473,-11,o),
(473,-11,q),
(473,-11,o),
(465,50,o),
(452,152,o),
(436,280,o),
(419,417,o),
(403,545,o),
(390,647,o),
(382,708,o),
(382,708,q),
(382,708,o),
(375,708,o),
(366,708,o),
(356,708,o),
(349,708,o),
(349,708,q),
(349,708,o),
(316,647,o),
(259,545,o),
(189,417,o),
(114,280,o),
(44,152,o),
(-13,50,o),
(-46,-11,o),
(-46,-11,q),
(-46,-11,o)
);
},
{
closed = 1;
nodes = (
(157,248,o),
(228,248,o),
(306,248,o),
(377,248,o),
(421,248,o),
(421,248,q),
(421,248,o),
(423,257,o),
(425,268,o),
(427,277,o),
(427,277,q),
(427,277,o),
(383,277,o),
(313,277,o),
(236,277,o),
(166,277,o),
(122,277,o),
(122,277,q),
(122,277,o),
(119,268,o),
(116,257,o),
(113,248,o),
(113,248,q),
(113,248,o)
);
},
{
closed = 1;
nodes = (
(421,763,o),
(431,763,o),
(440,763,o),
(447,763,o),
(447,763,q),
(447,763,o),
(419,789,o),
(379,829,o),
(338,868,o),
(310,894,o),
(310,894,q),
(310,894,o),
(301,894,o),
(287,894,o),
(273,894,o),
(264,894,o),
(264,894,q),
(264,894,o),
(262,889,o),
(262,889,q),
(262,889,o),
(293,864,o),
(338,826,o),
(383,788,o),
(414,763,o),
(414,763,q),
(414,763,o)
);
}
);
width = 523;
},
{
layerId = "0C2271EE-6BB0-42BD-9F3A-E5D7E2C847CD";
shapes = (
{
closed = 1;
nodes = (
(-33.706,-11,o),
(21,-11,o),
(76,-11,o),
(114,-11,o),
(114,-11,q),
(114,-11,o),
(134,32,o),
(166.413,102.166,o),
(205,186,o),
(243.935,269.29,o),
(276,339,o),
(296,382,o),
(296,382,q),
(321,435,o),
(363,541,o),
(385,596,q),
(385,596,o),
(390,596,o),
(390,596,q),
(390,539,o),
(394,435,o),
(396,382,q),
(396,382,o),
(397.615,339.243,o),
(400.038,269.194,o),
(403,185.5,o),
(405.962,101.806,o),
(408.385,31.757,o),
(410,-11,o),
(410,-11,q),
(410,-11,o),
(446,-11,o),
(500,-11,o),
(553,-11,o),
(589,-11,o),
(589,-11,q),
(589,-11,o),
(583,51,o),
(572.69,155.661,o),
(560,287,o),
(546.778,427.201,o),
(534.333,558.192,o),
(524.222,662.575,o),
(518,725,o),
(518,725,q),
(518,725,o),
(477,725,o),
(416,725,o),
(354,725,o),
(313,725,o),
(313,725,q),
(313,725,o),
(281,663,o),
(226,558,o),
(157.302,427.069,o),
(83.698,286.931,o),
(15,156,o),
(-40,51,o),
(-72,-11,o),
(-72,-11,q),
(-72,-11,o)
);
},
{
closed = 1;
nodes = (
(173,163,o),
(250,163,o),
(337,163,o),
(414,163,o),
(463,163,o),
(463,163,q),
(463,163,o),
(472,202,o),
(485,253,o),
(494,292,o),
(494,292,q),
(494,292,o),
(444.951,292,o),
(366.918,292,o),
(281.082,292,o),
(203.049,292,o),
(154,292,o),
(154,292,q),
(154,292,o),
(145,253,o),
(133,202,o),
(124,163,o),
(124,163,q),
(124,163,o)
);
},
{
closed = 1;
nodes = (
(394,781,o),
(436,781,o),
(477,781,o),
(505,781,o),
(505,781,q),
(505,781,o),
(484,817,o),
(452,870,o),
(421.101,923.4,o),
(400,959,o),
(400,959,q),
(400,959,o),
(361,959,o),
(304,959,o),
(247,959,o),
(208,959,o),
(208,959,q),
(208,959,o),
(198,939,o),
(198,939,q),
(198,939,o),
(232,907,o),
(282,860,o),
(332,813,o),
(366,781,o),
(366,781,q),
(366,781,o)
);
}
);
width = 628;
}
);
note = uni00C0;
unicode = 192;
}
{
glyphname = Acircumflex;
kernLeft = A;
kernRight = A;
layers = (
{
layerId = m01;
shapes = (
{
closed = 1;
nodes = (
(-39,-11,o),
(-29,-11,o),
(-20,-11,o),
(-13,-11,o),
(-13,-11,q),
(-13,-11,o),
(12,36,o),
(54,113,o),
(104,205,o),
(155,297,o),
(197,374,o),
(222,421,o),
(222,421,q),
(257,485,o),
(323,604,o),
(355,671,q),
(355,671,o),
(360,671,o),
(360,671,q),
(366,606,o),
(381,481,o),
(388,421,q),
(388,421,o),
(394,374,o),
(403,297,o),
(414,205,o),
(425,113,o),
(434,36,o),
(440,-11,o),
(440,-11,q),
(440,-11,o),
(447,-11,o),
(457,-11,o),
(466,-11,o),
(473,-11,o),
(473,-11,q),
(473,-11,o),
(465,50,o),
(452,152,o),
(436,280,o),
(419,417,o),
(403,545,o),
(390,647,o),
(382,708,o),
(382,708,q),
(382,708,o),
(375,708,o),
(366,708,o),
(356,708,o),
(349,708,o),
(349,708,q),
(349,708,o),
(316,647,o),
(259,545,o),
(189,417,o),
(114,280,o),
(44,152,o),
(-13,50,o),
(-46,-11,o),
(-46,-11,q),
(-46,-11,o)
);
},
{
closed = 1;
nodes = (
(157,248,o),
(228,248,o),
(306,248,o),
(377,248,o),
(421,248,o),
(421,248,q),
(421,248,o),
(423,257,o),
(425,268,o),
(427,277,o),
(427,277,q),
(427,277,o),
(383,277,o),
(313,277,o),
(236,277,o),
(166,277,o),
(122,277,o),
(122,277,q),
(122,277,o),
(119,268,o),
(116,257,o),
(113,248,o),
(113,248,q),
(113,248,o)
);
},
{
closed = 1;
nodes = (
(214,765,o),
(226,765,o),
(237,765,o),
(244,765,o),
(244,765,q),
(244,765,o),
(273,785,o),
(316,814,o),
(359,843,o),
(388,863,o),
(388,863,q),
(388,863,o),
(392,863,o),
(392,863,q),
(392,863,o),
(412,843,o),
(442,814,o),
(471,785,o),
(491,765,o),
(491,765,q),
(491,765,o),
(497,765,o),
(507,765,o),
(517,765,o),
(523,765,o),
(523,765,q),
(523,765,o),
(499,791,o),
(463,831,o),
(427,870,o),
(403,896,o),
(403,896,q),
(403,896,o),
(399,896,o),
(392,896,o),
(386,896,o),
(382,896,o),
(382,896,q),
(382,896,o),
(347,870,o),
(294,831,o),
(242,791,o),
(207,765,o),
(207,765,q),
(207,765,o)
);
}
);
width = 523;
},
{
layerId = "0C2271EE-6BB0-42BD-9F3A-E5D7E2C847CD";
shapes = (
{
closed = 1;
nodes = (
(-33.706,-11,o),
(21,-11,o),
(76,-11,o),
(114,-11,o),
(114,-11,q),
(114,-11,o),
(134,32,o),
(166.413,102.166,o),
(205,186,o),
(243.935,269.29,o),
(276,339,o),
(296,382,o),
(296,382,q),
(321,435,o),
(363,541,o),
(385,596,q),
(385,596,o),
(390,596,o),
(390,596,q),
(390,539,o),
(394,435,o),
(396,382,q),
(396,382,o),
(397.615,339.243,o),
(400.038,269.194,o),
(403,185.5,o),
(405.962,101.806,o),
(408.385,31.757,o),
(410,-11,o),
(410,-11,q),
(410,-11,o),
(446,-11,o),
(500,-11,o),
(553,-11,o),
(589,-11,o),
(589,-11,q),
(589,-11,o),
(583,51,o),
(572.69,155.661,o),
(560,287,o),
(546.778,427.201,o),
(534.333,558.192,o),
(524.222,662.575,o),
(518,725,o),
(518,725,q),
(518,725,o),
(477,725,o),
(416,725,o),
(354,725,o),
(313,725,o),
(313,725,q),
(313,725,o),
(281,663,o),
(226,558,o),
(157.302,427.069,o),
(83.698,286.931,o),
(15,156,o),
(-40,51,o),
(-72,-11,o),
(-72,-11,q),
(-72,-11,o)
);
},
{
closed = 1;
nodes = (
(173,163,o),
(250,163,o),
(337,163,o),
(414,163,o),
(463,163,o),
(463,163,q),
(463,163,o),
(472,202,o),
(485,253,o),
(494,292,o),
(494,292,q),
(494,292,o),
(444.951,292,o),
(366.918,292,o),
(281.082,292,o),
(203.049,292,o),
(154,292,o),
(154,292,q),
(154,292,o),
(145,253,o),
(133,202,o),
(124,163,o),
(124,163,q),
(124,163,o)
);
},
{
closed = 1;
nodes = (
(233,781,o),
(275,781,o),
(316,781,o),
(344,781,o),
(344,781,q),
(344,781,o),
(363.333,794.878,o),
(392,815,o),
(420.667,835.122,o),
(440,849,o),
(440,849,q),
(440,849,o),
(444,849,o),
(444,849,q),
(444,849,o),
(457.131,835.122,o),
(476.828,815,o),
(495.869,794.878,o),
(509,781,o),
(509,781,q),
(509,781,o),
(537,781,o),
(578,781,o),
(619,781,o),
(647,781,o),
(647,781,q),
(647,781,o),
(624,817,o),
(590,870,o),
(555.8,923.4,o),
(533,959,o),
(533,959,q),
(533,959,o),
(501,959,o),
(453,959,o),
(405.6,959,o),
(374,959,o),
(374,959,q),
(374,959,o),
(340,923,o),
(290,870,o),
(239,817,o),
(205,781,o),
(205,781,q),
(205,781,o)
);
}
);
width = 628;
}
);
note = uni00C2;
unicode = 194;
}
{
glyphname = Ccedilla;
kernLeft = C;
kernRight = C;
layers = (
{
layerId = m01;
shapes = (
{
closed = 1;
nodes = (
(455,17,o),
(499,57,q),
(499,57,o),
(494,62,o),
(489,69,o),
(484,74,o),
(484,74,q),
(447,43,o),
(358,4,o),
(305,4,qs),
(232,4,o),
(140,73,o),
(96,191,o),
(96,264,qs),
(96,319,o),
(124,438,o),
(178,550,o),
(257,640,o),
(360,693,o),
(423,693,qs),
(476,693,o),
(548,647,o),
(567,606,q),
(567,606,o),
(574,609,o),
(584,614,o),
(591,617,o),
(591,617,q),
(573,661,o),
(486,721,o),
(425,721,qs),
(356,721,o),
(243,666,o),
(155,571,o),
(94,450,o),
(63,320,o),
(63,257,qs),
(63,178,o),
(116,50,o),
(223,-24,o),
(303,-24,qs),
(362,-24,o)
);
},
{
closed = 1;
nodes = (
(331,-192,o),
(331,-146,qs),
(331,-123,o),
(308,-95,o),
(270,-85,q),
(270,-85,o),
(284,-62,o),
(302,-32,o),
(316,-9,o),
(316,-9,q),
(316,-9,o),
(307,-9,o),
(295,-9,o),
(286,-9,o),
(286,-9,q),
(286,-9,o),
(268,-38,o),
(243,-76,o),
(225,-105,o),
(225,-105,q),
(262,-108,o),
(299,-130,o),
(299,-155,qs),
(299,-182,o),
(231,-218,o),
(164,-220,q),
(164,-220,o),
(165,-228,o),
(165,-238,o),
(166,-246,o),
(166,-246,q),
(240,-244,o)
);
}
);
width = 584;
},
{
layerId = "0C2271EE-6BB0-42BD-9F3A-E5D7E2C847CD";
shapes = (
{
closed = 1;
nodes = (
(535,32,o),
(572,67,q),
(572,67,o),
(551,99,o),
(523,141,o),
(502,173,o),
(502,173,q),
(476,151,o),
(412,122,o),
(375,122,qs),
(328,122,o),
(266,164,o),
(237,242,o),
(237,296,qs),
(237,344,o),
(259,432,o),
(297,506,o),
(349,561,o),
(410,591,o),
(443,591,qs),
(477,591,o),
(535,567,o),
(558,535,q),
(558,535,o),
(586,564,o),
(622,603,o),
(650,632,o),
(650,632,q),
(620,684,o),
(518,738,o),
(453,738,qs),
(389,738,o),
(272,694,o),
(174,613,o),
(102,501,o),
(63,364,o),
(63,286,qs),
(63,188,o),
(134,49,o),
(260,-25,o),
(344,-25,qs),
(425,-25,o)
);
},
{
closed = 1;
nodes = (
(392,-224,o),
(402,-164,qs),
(407,-129,o),
(371,-90,o),
(329,-80,q),
(329,-80,o),
(343,-58,o),
(360,-28,o),
(374,-6,o),
(374,-6,q),
(374,-6,o),
(342,-6,o),
(301,-6,o),
(269,-6,o),
(269,-6,q),
(269,-6,o),
(246,-40,o),
(216,-84,o),
(193,-118,o),
(193,-118,q),
(243,-125,o),
(274,-148,o),
(272,-165,qs),
(268,-188,o),
(214,-210,o),
(149,-213,q),
(149,-213,o),
(149,-234,o),
(149,-263,o),
(149,-284,o),
(149,-284,q),
(260,-281,o)
);
}
);
width = 645;
}
);
note = uni00C7;
unicode = 199;
}
{
glyphname = Ecircumflex;
kernRight = E;
layers = (
{
layerId = m01;
shapes = (
{
closed = 1;
nodes = (
(85,-11,o),
(153,-11,o),
(235,-11,o),
(316,-11,o),
(384,-11,o),
(425,-11,o),
(425,-11,q),
(425,-11,o),
(426,-5,o),
(429,3,o),
(431,11,o),
(432,17,o),
(432,17,q),
(432,17,o),
(381,17,o),
(301,17,o),
(212,17,o),
(132,17,o),
(81,17,o),
(81,17,q),
(81,17,o),
(91,66,o),
(107,144,o),
(124,230,o),
(140,308,o),
(150,357,o),
(150,357,q),
(150,357,o),
(191,357,o),
(256,357,o),
(330,357,o),
(395,357,o),
(436,357,o),
(436,357,q),
(436,357,o),
(437,363,o),
(440,372,o),
(442,380,o),
(443,386,o),
(443,386,q),
(443,386,o),
(401,386,o),
(336,386,o),
(262,386,o),
(197,386,o),
(155,386,o),
(155,386,q),
(155,386,o),
(164,428,o),
(177,495,o),
(192,571,o),
(205,638,o),
(214,680,o),
(214,680,q),
(214,680,o),
(263,680,o),
(341,680,o),
(427,680,o),
(505,680,o),
(554,680,o),
(554,680,q),
(554,680,o),
(555,686,o),
(557,694,o),
(559,702,o),
(560,708,o),
(560,708,q),
(560,708,o),
(520,708,o),
(453,708,o),
(374,708,o),
(294,708,o),
(227,708,o),
(187,708,o),
(187,708,q),
(187,708,o),
(175,647,o),
(155,545,o),
(129,417,o),
(102,280,o),
(76,152,o),
(56,50,o),
(44,-11,o),
(44,-11,q),
(44,-11,o)
);
},
{
closed = 1;
nodes = (
(236,765,o),
(248,765,o),
(259,765,o),
(266,765,o),
(266,765,q),
(266,765,o),
(295,785,o),
(338,814,o),
(381,843,o),
(410,863,o),
(410,863,q),
(410,863,o),
(414,863,o),
(414,863,q),
(414,863,o),
(434,843,o),
(463,814,o),
(492,785,o),
(512,765,o),
(512,765,q),
(512,765,o),
(519,765,o),
(529,765,o),
(538,765,o),
(545,765,o),
(545,765,q),
(545,765,o),
(521,791,o),
(485,831,o),
(449,870,o),
(425,896,o),
(425,896,q),
(425,896,o),
(421,896,o),
(414,896,o),
(407,896,o),
(403,896,o),
(403,896,q),
(403,896,o),
(368,870,o),
(316,831,o),
(264,791,o),
(229,765,o),
(229,765,q),
(229,765,o)
);
}
);
width = 528;
},
{
layerId = "0C2271EE-6BB0-42BD-9F3A-E5D7E2C847CD";
shapes = (
{
closed = 1;
nodes = (
(79.728,-11,o),
(160.545,-11,o),
(258,-11,o),
(354.774,-11,o),
(436.016,-11,o),
(485,-11,o),
(485,-11,q),
(485,-11,o),
(491,18,o),
(499,60,o),
(507,102,o),
(513,131,o),
(513,131,q),
(513,131,o),
(471.59,131,o),
(406.632,131,o),
(334.368,131,o),
(269.41,131,o),
(228,131,o),
(228,131,q),
(228,131,o),
(233.072,154.924,o),
(241.188,193.006,o),
(249.812,234.994,o),
(257.928,273.076,o),
(263,297,o),
(263,297,q),
(263,297,o),
(297,297,o),
(349.574,297,o),
(409.426,297,o),
(462,297,o),
(496,297,o),
(496,297,q),
(496,297,o),
(502,326,o),
(510,369,o),
(518,411,o),
(524,440,o),
(524,440,q),
(524,440,o),
(489.875,440,o),
(437.062,440,o),
(376.938,440,o),
(324.125,440,o),
(290,440,o),
(290,440,q),
(290,440,o),
(294,460,o),
(300.341,492.224,o),
(307.659,528.776,o),
(314,561,o),
(318,581,o),
(318,581,q),
(318,581,o),
(358,581,o),
(420,581,o),
(491,581,o),
(553,581,o),
(593,581,o),
(593,581,q),
(593,581,o),
(598,610,o),
(606.5,653,o),
(615,696,o),
(620,725,o),
(620,725,q),
(620,725,o),
(572.493,725,o),
(492.92,725,o),
(399.094,725,o),
(304.08,725,o),
(224.507,725,o),
(177,725,o),
(177,725,q),
(177,725,o),
(165,663,o),
(144,558,o),
(117.532,427.007,o),
(90.045,286.804,o),
(63.577,155.811,o),
(43.216,51.426,o),
(31,-11,o),
(31,-11,q),
(31,-11,o)
);
},
{
closed = 1;
nodes = (
(223,781,o),
(265,781,o),
(306,781,o),
(334,781,o),
(334,781,q),
(334,781,o),
(353.535,794.878,o),
(382.5,815,o),
(411.465,835.122,o),
(431,849,o),
(431,849,q),
(431,849,o),
(435,849,o),
(435,849,q),
(435,849,o),
(448.061,835.122,o),
(467,815,o),
(485.939,794.878,o),
(499,781,o),
(499,781,q),
(499,781,o),
(527,781,o),
(569,781,o),
(610,781,o),
(638,781,o),
(638,781,q),
(638,781,o),
(615,817,o),
(581,870,o),
(546.8,923.4,o),
(524,959,o),
(524,959,q),
(524,959,o),
(492,959,o),
(444.5,959,o),
(397,959,o),
(365,959,o),
(365,959,q),
(365,959,o),
(330.805,923.4,o),
(280,870,o),
(229,817,o),
(195,781,o),
(195,781,q),
(195,781,o)
);
}
);
width = 599;
}
);
note = uni00CA;
unicode = 202;
}
{
glyphname = Igrave;
layers = (
{
layerId = m01;
shapes = (
{
closed = 1;
nodes = (
(50,-11,o),
(60,-11,o),
(70,-11,o),
(76,-11,o),
(76,-11,q),
(76,-11,o),
(88,50,o),
(109,152,o),
(134,280,o),
(162,417,o),
(187,545,o),
(208,647,o),
(220,708,o),
(220,708,q),
(220,708,o),
(213,708,o),
(204,708,o),
(194,708,o),
(187,708,o),
(187,708,q),
(187,708,o),
(175,647,o),
(155,545,o),
(129,417,o),
(102,280,o),
(76,152,o),
(56,50,o),
(44,-11,o),
(44,-11,q),
(44,-11,o)
);
},
{
closed = 1;
nodes = (
(268,763,o),
(278,763,o),
(288,763,o),
(294,763,o),
(294,763,q),
(294,763,o),
(266,789,o),
(226,829,o),
(185,868,o),
(157,894,o),
(157,894,q),
(157,894,o),
(148,894,o),
(134,894,o),
(120,894,o),
(111,894,o),
(111,894,q),
(111,894,o),
(109,889,o),
(109,889,q),
(109,889,o),
(140,864,o),
(186,826,o),
(231,788,o),
(262,763,o),
(262,763,q),
(262,763,o)
);
}
);
width = 231;
},
{
layerId = "0C2271EE-6BB0-42BD-9F3A-E5D7E2C847CD";
shapes = (
{
closed = 1;
nodes = (
(65,-11,o),
(116,-11,o),
(167,-11,o),
(201,-11,o),
(201,-11,q),
(201,-11,o),
(213,51.497,o),
(234,156,o),
(261,287,o),
(288,427,o),
(315,558,o),
(336,662.503,o),
(348,725,o),
(348,725,q),
(348,725,o),
(313,725,o),
(263,725,o),
(212.412,725,o),
(177,725,o),
(177,725,q),
(177,725,o),
(165,663,o),
(144,558,o),
(117.532,427.007,o),
(90.045,286.804,o),
(63.577,155.811,o),
(43.216,51.426,o),
(31,-11,o),
(31,-11,q),
(31,-11,o)
);
},
{
closed = 1;
nodes = (
(246,781,o),
(287.5,781,o),
(329,781,o),
(357,781,o),
(357,781,q),
(357,781,o),
(336,817,o),
(304,870,o),
(273.101,923.4,o),
(252,959,o),
(252,959,q),
(252,959,o),
(213,959,o),
(156,959,o),
(99,959,o),
(60,959,o),
(60,959,q),
(60,959,o),
(50,939,o),
(50,939,q),
(50,939,o),
(84,907,o),
(134,860,o),
(184,813,o),
(218,781,o),
(218,781,q),
(218,781,o)
);
}
);
width = 345;
}
);
note = uni00CC;
unicode = 204;
}
{
glyphname = Iacute;
layers = (
{
layerId = m01;
shapes = (
{
closed = 1;
nodes = (
(50,-11,o),
(60,-11,o),
(70,-11,o),
(76,-11,o),
(76,-11,q),
(76,-11,o),
(88,50,o),
(109,152,o),
(134,280,o),
(162,417,o),
(187,545,o),
(208,647,o),
(220,708,o),
(220,708,q),
(220,708,o),
(213,708,o),
(204,708,o),
(194,708,o),
(187,708,o),
(187,708,q),
(187,708,o),
(175,647,o),
(155,545,o),
(129,417,o),
(102,280,o),
(76,152,o),
(56,50,o),
(44,-11,o),
(44,-11,q),
(44,-11,o)
);
},
{
closed = 1;
nodes = (
(138,763,o),
(150,763,o),
(161,763,o),
(168,763,o),
(168,763,q),
(168,763,o),
(196,781,o),
(239,810,o),
(289,842,o),
(332,871,o),
(360,889,o),
(360,889,q),
(360,889,o),
(358,894,o),
(358,894,q),
(358,894,o),
(347,894,o),
(332,894,o),
(316,894,o),
(305,894,o),
(305,894,q),
(305,894,o),
(270,868,o),
(218,829,o),
(166,789,o),
(131,763,o),
(131,763,q),
(131,763,o)
);
}
);
width = 231;
},
{
layerId = "0C2271EE-6BB0-42BD-9F3A-E5D7E2C847CD";
shapes = (
{
closed = 1;
nodes = (
(65,-11,o),
(116,-11,o),
(167,-11,o),
(201,-11,o),
(201,-11,q),
(201,-11,o),
(213,51.497,o),
(234,156,o),
(261,287,o),
(288,427,o),
(315,558,o),
(336,662.503,o),
(348,725,o),
(348,725,q),
(348,725,o),
(313,725,o),
(263,725,o),
(212.412,725,o),
(177,725,o),
(177,725,q),
(177,725,o),
(165,663,o),
(144,558,o),
(117.532,427.007,o),
(90.045,286.804,o),
(63.577,155.811,o),
(43.216,51.426,o),
(31,-11,o),
(31,-11,q),
(31,-11,o)
);
},
{
closed = 1;
nodes = (
(184,781,o),
(225,781,o),
(267,781,o),
(295,781,o),
(295,781,q),
(295,781,o),
(329,804,o),
(381.801,840.089,o),
(443.199,879.911,o),
(496,916,o),
(530,939,o),
(530,939,q),
(530,939,o),
(519,959,o),
(519,959,q),
(519,959,o),
(478,959,o),
(418,959,o),
(357,959,o),
(316,959,o),
(316,959,q),
(316,959,o),
(283.816,923.4,o),
(236,870,o),
(188,817,o),
(156,781,o),
(156,781,q),
(156,781,o)
);
}
);
width = 345;
}
);
note = uni00CD;
unicode = 205;
}
{
glyphname = Icircumflex;
layers = (
{
layerId = m01;
shapes = (
{
closed = 1;
nodes = (
(50,-11,o),
(60,-11,o),
(70,-11,o),
(76,-11,o),
(76,-11,q),
(76,-11,o),
(88,50,o),
(109,152,o),
(134,280,o),
(162,417,o),
(187,545,o),
(208,647,o),
(220,708,o),
(220,708,q),
(220,708,o),
(213,708,o),
(204,708,o),
(194,708,o),
(187,708,o),
(187,708,q),
(187,708,o),
(175,647,o),
(155,545,o),
(129,417,o),
(102,280,o),
(76,152,o),
(56,50,o),
(44,-11,o),
(44,-11,q),
(44,-11,o)
);
},
{
closed = 1;
nodes = (
(62,765,o),
(74,765,o),
(85,765,o),
(92,765,o),
(92,765,q),
(92,765,o),
(121,785,o),
(164,814,o),
(206,843,o),
(235,863,o),
(235,863,q),
(235,863,o),
(240,863,o),
(240,863,q),
(240,863,o),
(260,843,o),
(289,814,o),
(318,785,o),
(338,765,o),
(338,765,q),
(338,765,o),
(345,765,o),
(355,765,o),
(364,765,o),
(371,765,o),
(371,765,q),
(371,765,o),
(347,791,o),
(311,831,o),
(275,870,o),
(251,896,o),
(251,896,q),
(251,896,o),
(247,896,o),
(240,896,o),
(233,896,o),
(229,896,o),
(229,896,q),
(229,896,o),
(194,870,o),
(142,831,o),
(90,791,o),
(55,765,o),
(55,765,q),
(55,765,o)
);
}
);
width = 231;
},
{
layerId = "0C2271EE-6BB0-42BD-9F3A-E5D7E2C847CD";
shapes = (
{
closed = 1;
nodes = (
(65,-11,o),
(116,-11,o),
(167,-11,o),
(201,-11,o),
(201,-11,q),
(201,-11,o),
(213,51.497,o),
(234,156,o),
(261,287,o),
(288,427,o),
(315,558,o),
(336,662.503,o),
(348,725,o),
(348,725,q),
(348,725,o),
(313,725,o),
(263,725,o),
(212.412,725,o),
(177,725,o),
(177,725,q),
(177,725,o),
(165,663,o),
(144,558,o),
(117.532,427.007,o),
(90.045,286.804,o),
(63.577,155.811,o),
(43.216,51.426,o),
(31,-11,o),
(31,-11,q),
(31,-11,o)
);
},
{
closed = 1;
nodes = (
(85,781,o),
(126,781,o),
(167,781,o),
(195,781,o),
(195,781,q),
(195,781,o),
(214.588,794.846,o),
(243.632,814.923,o),
(272,835,o),
(292.471,849,o),
(292.471,849,q),
(292.471,849,o),
(296,849,o),
(296,849,q),
(296,849,o),
(309.061,835.122,o),
(328,815,o),
(346.939,794.878,o),
(360,781,o),
(360,781,q),
(360,781,o),
(388,781,o),
(430,781,o),
(471,781,o),
(499,781,o),
(499,781,q),
(499,781,o),
(476,817,o),
(442,870,o),
(407.8,923.4,o),
(385,959,o),
(385,959,q),
(385,959,o),
(353,959,o),
(305.5,959,o),
(258,959,o),
(226,959,o),
(226,959,q),
(226,959,o),
(192.207,923.4,o),
(142,870,o),
(91,817,o),
(57,781,o),
(57,781,q),
(57,781,o)
);
}
);
width = 345;
}
);
note = uni00CE;
unicode = 206;
}
{
glyphname = Eth;
kernLeft = Bstroke;
kernRight = D;
layers = (
{
layerId = m01;
shapes = (
{
closed = 1;
nodes = (
(102,357,o),
(169,357,o),
(245,357,o),
(312,357,o),
(355,357,o),
(355,357,q),
(355,357,o),
(357,366,o),
(360,377,o),
(362,386,o),
(362,386,q),
(362,386,o),
(331,386,o),
(282,386,o),
(226,386,o),
(177,386,o),
(146,386,o),
(146,386,q),
(146,386,o),
(122,384,o),
(89,383,o),
(65,381,o),
(65,381,q),
(65,381,o),
(63,374,o),
(61,364,o),
(59,357,o),
(59,357,q),
(59,357,o)
);
},
{
closed = 1;
nodes = (
(99,-11,o),
(149,-11,o),
(199,-11,o),
(233,-11,o),
(233,-11,q),
(328,-11,o),
(472,57,o),
(568,178,o),
(617,338,o),
(617,429,qs),
(617,512,o),
(552,638,o),
(422,708,o),
(323,708,q),
(323,708,o),
(300,708,o),
(266,708,o),
(232,708,o),
(209,708,o),
(209,708,q),
(209,708,o),
(197,647,o),
(176,545,o),
(151,417,o),
(123,280,o),
(98,152,o),
(77,50,o),
(65,-11,o),
(65,-11,q),
(65,-11,o)
);
},
{
closed = 1;
nodes = (
(113,73,o),
(132,168,o),
(156,286,o),
(181,411,o),
(205,529,o),
(224,624,o),
(235,680,o),
(235,680,q),
(235,680,o),
(261,680,o),
(294,680,o),
(320,680,o),
(320,680,q),
(410,680,o),
(527,615,o),
(584,501,o),
(584,427,qs),
(584,345,o),
(538,198,o),
(449,83,o),
(319,17,o),
(235,17,q),
(235,17,o),
(195,17,o),
(142,17,o),
(102,17,o),
(102,17,q),
(102,17,o)
);
}
);
width = 645;
},
{
layerId = "0C2271EE-6BB0-42BD-9F3A-E5D7E2C847CD";
shapes = (
{
closed = 1;
nodes = (
(92,316,o),
(181.958,316,o),
(284,316,o),
(373.536,316,o),
(431,316,o),
(431,316,q),
(431,316,o),
(437,348,o),
(445,389,o),
(451,421,o),
(451,421,q),
(451,421,o),
(406,421,o),
(336,421,o),
(256,421,o),
(185.562,421,o),
(141,421,o),
(141,421,q),
(141,421,o),
(115,419,o),
(81,416,o),
(55,414,o),
(55,414,q),
(55,414,o),
(49,384,o),
(41,346,o),
(35,316,o),
(35,316,q),
(35,316,o)
);
},
{
closed = 1;
nodes = (
(102.179,-11,o),
(174.5,-11,o),
(246.821,-11,o),
(296,-11,o),
(296,-11,q),
(380,-11,o),
(527,46,o),
(639,157,o),
(703,320,o),
(703,426,qs),
(703,529,o),
(620,661,o),
(472,725,o),
(374,725,q),
(374,725,o),
(338.895,725,o),
(287,725,o),
(235.105,725,o),
(200,725,o),
(200,725,q),
(200,725,o),
(188,662.503,o),
(167,558,o),
(140,427,o),
(113,287,o),
(86,156,o),
(65,51.497,o),
(53,-11,o),
(53,-11,q),
(53,-11,o)
);
},
{
closed = 1;
nodes = (
(259,165,o),
(271.838,231.207,o),
(288.054,313.443,o),
(304.946,400.557,o),
(321.162,482.793,o),
(334,549,o),
(342,588,o),
(342,588,q),
(342,588,o),
(350,588,o),
(362,588,o),
(370,588,o),
(370,588,q),
(411,588,o),
(483,555,o),
(528,480,o),
(528,416,qs),
(528,341,o),
(488,231,o),
(421,160,o),
(337,126,o),
(293,126,q),
(293,126,o),
(280.368,126,o),
(263.632,126,o),
(251,126,o),
(251,126,q),
(251,126,o)
);
}
);
width = 732;
}
);
note = uni00D0;
unicode = 208;
}
{
glyphname = Ocircumflex;
kernLeft = C;
kernRight = D;
layers = (
{
layerId = m01;
shapes = (
{
closed = 1;
nodes = (
(470,31,o),
(552,125,o),
(608,241,o),
(637,365,o),
(637,423,qs),
(637,510,o),
(586,645,o),
(484,721,o),
(405,721,qs),
(341,721,o),
(234,666,o),
(153,572,o),
(97,456,o),
(68,332,o),
(68,275,qs),
(68,188,o),
(118,53,o),
(221,-24,o),
(299,-24,qs),
(364,-24,o)
);
},
{
closed = 1;
nodes = (
(141,74,o),
(100,199,o),
(100,279,qs),
(100,330,o),
(125,444,o),
(175,552,o),
(248,640,o),
(344,693,o),
(403,693,qs),
(474,693,o),
(563,623,o),
(604,499,o),
(604,418,qs),
(604,367,o),
(579,253,o),
(529,145,o),
(456,57,o),
(360,4,o),
(301,4,qs),
(230,4,o)
);
},
{
closed = 1;
nodes = (
(290,765,o),
(302,765,o),
(313,765,o),
(320,765,o),
(320,765,q),
(320,765,o),
(349,785,o),
(392,814,o),
(435,843,o),
(464,863,o),
(464,863,q),
(464,863,o),
(469,863,o),
(469,863,q),
(469,863,o),
(489,843,o),
(518,814,o),
(547,785,o),
(567,765,o),
(567,765,q),
(567,765,o),
(574,765,o),
(584,765,o),
(593,765,o),
(600,765,o),
(600,765,q),
(600,765,o),
(576,791,o),
(540,831,o),
(504,870,o),
(480,896,o),
(480,896,q),
(480,896,o),
(476,896,o),
(469,896,o),
(462,896,o),
(458,896,o),
(458,896,q),
(458,896,o),
(423,870,o),
(370,831,o),
(318,791,o),
(283,765,o),
(283,765,q),
(283,765,o)
);
}
);
width = 667;
},
{
layerId = "0C2271EE-6BB0-42BD-9F3A-E5D7E2C847CD";
shapes = (
{
closed = 1;
nodes = (
(515,17,o),
(611,96,o),
(683,208,o),
(723,346,o),
(723,426,qs),
(723,525,o),
(653,665,o),
(526,738,o),
(442,738,qs),
(383,738,o),
(271,696,o),
(176,617,o),
(104,506,o),
(63,367,o),
(63,287,qs),
(63,189,o),
(134,49,o),
(261,-25,o),
(346,-25,qs),
(405,-25,o)
);
},
{
closed = 1;
nodes = (
(265,164,o),
(238,243,o),
(238,297,qs),
(238,348,o),
(260,438,o),
(299,511,o),
(349,563,o),
(405,591,o),
(433,591,qs),
(470,591,o),
(521,549,o),
(548,471,o),
(548,415,qs),
(548,364,o),
(526,275,o),
(487,203,o),
(437,150,o),
(382,122,o),
(354,122,qs),
(317,122,o)
);
},
{
closed = 1;
nodes = (
(280,781,o),
(322,781,o),
(363,781,o),
(391,781,o),
(391,781,q),
(391,781,o),
(410,795,o),
(439,815,o),
(468,835,o),
(487,849,o),
(487,849,q),
(487,849,o),
(492,849,o),
(492,849,q),
(492,849,o),
(505,835,o),
(524,815,o),
(543,795,o),
(556,781,o),
(556,781,q),
(556,781,o),
(584,781,o),
(626,781,o),
(667,781,o),
(695,781,o),
(695,781,q),
(695,781,o),
(672,817,o),
(638,870,o),
(604,923,o),
(581,959,o),
(581,959,q),
(581,959,o),
(549,959,o),
(501,959,o),
(453,959,o),
(421,959,o),
(421,959,q),
(421,959,o),
(387,923,o),
(337,870,o),
(286,817,o),
(252,781,o),
(252,781,q),
(252,781,o)
);
}
);
width = 753;
}
);
note = uni00D4;
unicode = 212;
}
{
glyphname = multiply;
layers = (
{
layerId = m01;
shapes = (
{
closed = 1;
nodes = (
(127,187,o),
(178,241,o),
(229,294,o),
(264,331,o),
(264,331,q),
(264,331,o),
(299,294,o),
(350,240,o),
(401,187,o),
(436,150,o),
(436,150,q),
(436,150,o),
(442,156,o),
(450,164,o),
(456,170,o),
(456,170,q),
(456,170,o),
(421,207,o),
(370,261,o),
(318,314,o),
(283,351,o),
(283,351,q),
(283,351,o),
(318,387,o),
(370,441,o),
(421,494,o),
(456,530,o),
(456,530,q),
(456,530,o),
(450,536,o),
(442,543,o),
(436,549,o),
(436,549,q),
(436,549,o),
(401,513,o),
(350,460,o),
(299,407,o),
(264,371,o),
(264,371,q),
(264,371,o),
(229,407,o),
(178,460,o),
(127,513,o),
(92,549,o),
(92,549,q),
(92,549,o),
(86,543,o),
(78,536,o),
(72,530,o),
(72,530,q),
(72,530,o),
(107,494,o),
(158,440,o),
(209,387,o),
(244,351,o),
(244,351,q),
(244,351,o),
(209,314,o),
(158,261,o),
(107,207,o),
(72,170,o),
(72,170,q),
(72,170,o),
(78,164,o),
(86,156,o),
(92,150,o),
(92,150,q),
(92,150,o)
);
}
);
width = 497;
},
{
layerId = "0C2271EE-6BB0-42BD-9F3A-E5D7E2C847CD";
shapes = (
{
closed = 1;
nodes = (
(184.93,152.121,o),
(230,199,o),
(274,246,o),
(305,278,o),
(305,278,q),
(305,278,o),
(335.93,245.702,o),
(381,198.564,o),
(426.07,152.298,o),
(457,120,o),
(457,120,q),
(457,120,o),
(481.6,145.2,o),
(514.4,178.8,o),
(539,204,o),
(539,204,q),
(539,204,o),
(509,236,o),
(464,283,o),
(419,330,o),
(389,362,o),
(389,362,q),
(389,362,o),
(419.172,393.6,o),
(464,441,o),
(509,488,o),
(539,520,o),
(539,520,q),
(539,520,o),
(514,545,o),
(482,579,o),
(457,604,o),
(457,604,q),
(457,604,o),
(426.07,572.045,o),
(381,525,o),
(335.93,477.955,o),
(305,446,o),
(305,446,q),
(305,446,o),
(274.273,477.955,o),
(229.5,525,o),
(184.727,572.045,o),
(154,604,o),
(154,604,q),
(154,604,o),
(129,579,o),
(95,545,o),
(70,520,o),
(70,520,q),
(70,520,o),
(100.93,488.4,o),
(146,441,o),
(190.477,393.955,o),
(221,362,o),
(221,362,q),
(221,362,o),
(190.07,329.522,o),
(145,283,o),
(100.523,236.121,o),
(70,204,o),
(70,204,q),
(70,204,o),
(95.2,178.8,o),
(128.8,145.2,o),
(154,120,o),
(154,120,q),
(154,120,o)
);
}
);
width = 582;
}
);
note = uni00D7;
unicode = 215;
}
{
glyphname = Ugrave;
kernLeft = U;
kernRight = U;
layers = (
{
layerId = m01;
shapes = (
{
closed = 1;
nodes = (
(448,22,o),
(525,137,o),
(545,240,q),
(545,240,o),
(555,291,o),
(572,374,o),
(592,474,o),
(612,574,o),
(629,657,o),
(639,708,o),
(639,708,q),
(639,708,o),
(632,708,o),
(623,708,o),
(613,708,o),
(606,708,o),
(606,708,q),
(606,708,o),
(596,658,o),
(580,576,o),
(560,478,o),
(540,380,o),
(524,298,o),
(514,248,o),
(514,248,q),
(496,155,o),
(430,48,o),
(344,4,o),
(296,4,qs),
(210,4,o),
(122,104,o),
(122,194,qs),
(122,214,o),
(126,257,o),
(133,283,q),
(133,283,o),
(142,329,o),
(157,405,o),
(176,495,o),
(194,586,o),
(209,662,o),
(218,708,o),
(218,708,q),
(218,708,o),
(211,708,o),
(202,708,o),
(192,708,o),
(185,708,o),
(185,708,q),
(185,708,o),
(176,661,o),
(160,584,o),
(142,491,o),
(123,399,o),
(107,322,o),
(98,275,o),
(98,275,q),
(94,249,o),
(89,207,o),
(89,185,qs),
(89,85,o),
(198,-24,o),
(292,-24,qs),
(348,-24,o)
);
},
{
closed = 1;
nodes = (
(475,763,o),
(485,763,o),
(495,763,o),
(501,763,o),
(501,763,q),
(501,763,o),
(473,789,o),
(433,829,o),
(392,868,o),
(364,894,o),
(364,894,q),
(364,894,o),
(355,894,o),
(341,894,o),
(327,894,o),
(318,894,o),
(318,894,q),
(318,894,o),
(316,889,o),
(316,889,q),
(316,889,o),
(347,864,o),
(392,826,o),
(438,788,o),
(469,763,o),
(469,763,q),
(469,763,o)
);
}
);
width = 647;
},
{
layerId = "0C2271EE-6BB0-42BD-9F3A-E5D7E2C847CD";
shapes = (
{
closed = 1;
nodes = (
(553,42,o),
(634,189,o),
(658,308,q),
(658,308,o),
(667,353,o),
(682,428,o),
(700,516.5,o),
(718,605,o),
(733,680,o),
(742,725,o),
(742,725,q),
(742,725,o),
(708,725,o),
(659,725,o),
(610.176,725,o),
(576,725,o),
(576,725,q),
(576,725,o),
(566.87,679.239,o),
(552.261,604.191,o),
(534,514.5,o),
(515.739,424.809,o),
(501.13,349.761,o),
(492,304,o),
(492,304,q),
(478,233,o),
(440.658,154.344,o),
(392,122,o),
(358,122,qs),
(300,122,o),
(254,183,o),
(254,241,qs),
(254,260.683,o),
(260,303,o),
(263,326,q),
(263,326,o),
(271.625,368.984,o),
(286,440,o),
(304,526,o),
(321.143,611.019,o),
(335.429,682.023,o),
(344,725,o),
(344,725,q),
(344,725,o),
(309,725,o),
(259,725,o),
(208.412,725,o),
(173,725,o),
(173,725,q),
(173,725,o),
(165.306,685.301,o),
(151.629,620.262,o),
(136.242,541.709,o),
(120,464,o),
(106.56,398.798,o),
(99,359,o),
(99,359,q),
(95,330,o),
(85,262,o),
(85,236,qs),
(85,103,o),
(219,-25,o),
(354.36,-25,qs),
(435,-25,o)
);
},
{
closed = 1;
nodes = (
(440,781,o),
(481.5,781,o),
(523,781,o),
(551,781,o),
(551,781,q),
(551,781,o),
(530,817,o),
(499,870,o),
(467,923,o),
(446,959,o),
(446,959,q),
(446,959,o),
(407,959,o),
(350,959,o),
(293,959,o),
(254,959,o),
(254,959,q),
(254,959,o),
(244,939,o),
(244,939,q),
(244,939,o),
(278,907,o),
(328,860,o),
(378,813,o),
(412,781,o),
(412,781,q),
(412,781,o)
);
}
);
width = 735;
}
);
note = uni00D9;
unicode = 217;
}
{
glyphname = Uacute;
kernLeft = U;
kernRight = U;
layers = (
{
layerId = m01;
shapes = (
{
closed = 1;
nodes = (
(448,22,o),
(525,137,o),
(545,240,q),
(545,240,o),
(555,291,o),
(572,374,o),
(592,474,o),
(612,574,o),
(629,657,o),
(639,708,o),
(639,708,q),
(639,708,o),
(632,708,o),
(623,708,o),
(613,708,o),
(606,708,o),
(606,708,q),
(606,708,o),
(596,658,o),
(580,576,o),
(560,478,o),
(540,380,o),
(524,298,o),
(514,248,o),
(514,248,q),
(496,155,o),
(430,48,o),
(344,4,o),
(296,4,qs),
(210,4,o),
(122,104,o),
(122,194,qs),
(122,214,o),
(126,257,o),
(133,283,q),
(133,283,o),
(142,329,o),
(157,405,o),
(176,495,o),
(194,586,o),
(209,662,o),
(218,708,o),
(218,708,q),
(218,708,o),
(211,708,o),
(202,708,o),
(192,708,o),
(185,708,o),
(185,708,q),
(185,708,o),
(176,661,o),
(160,584,o),
(142,491,o),
(123,399,o),
(107,322,o),
(98,275,o),
(98,275,q),
(94,249,o),
(89,207,o),
(89,185,qs),
(89,85,o),
(198,-24,o),
(292,-24,qs),
(348,-24,o)
);
},
{
closed = 1;
nodes = (
(345,763,o),
(357,763,o),
(368,763,o),
(375,763,o),
(375,763,q),
(375,763,o),
(403,781,o),
(446,810,o),
(496,842,o),
(539,871,o),
(567,889,o),
(567,889,q),
(567,889,o),
(565,894,o),
(565,894,q),
(565,894,o),
(554,894,o),
(539,894,o),
(523,894,o),
(512,894,o),
(512,894,q),
(512,894,o),
(477,868,o),
(425,829,o),
(373,789,o),
(338,763,o),
(338,763,q),
(338,763,o)
);
}
);
width = 647;
},
{
layerId = "0C2271EE-6BB0-42BD-9F3A-E5D7E2C847CD";
shapes = (
{
closed = 1;
nodes = (
(553,42,o),
(634,189,o),
(658,308,q),
(658,308,o),
(667,353,o),
(682,428,o),
(700,516.5,o),
(718,605,o),
(733,680,o),
(742,725,o),
(742,725,q),
(742,725,o),
(708,725,o),
(659,725,o),
(610.176,725,o),
(576,725,o),
(576,725,q),
(576,725,o),
(566.87,679.239,o),
(552.261,604.191,o),
(534,514.5,o),
(515.739,424.809,o),
(501.13,349.761,o),
(492,304,o),
(492,304,q),
(478,233,o),
(440.658,154.344,o),
(392,122,o),
(358,122,qs),
(300,122,o),
(254,183,o),
(254,241,qs),
(254,260.683,o),
(260,303,o),
(263,326,q),
(263,326,o),
(271.625,368.984,o),
(286,440,o),
(304,526,o),
(321.143,611.019,o),
(335.429,682.023,o),
(344,725,o),
(344,725,q),
(344,725,o),
(309,725,o),
(259,725,o),
(208.412,725,o),
(173,725,o),
(173,725,q),
(173,725,o),
(165.306,685.301,o),
(151.629,620.262,o),
(136.242,541.709,o),
(120,464,o),
(106.56,398.798,o),
(99,359,o),
(99,359,q),
(95,330,o),
(85,262,o),
(85,236,qs),
(85,103,o),
(219,-25,o),
(354.36,-25,qs),
(435,-25,o)
);
},
{
closed = 1;
nodes = (
(378,781,o),
(420,781,o),
(461,781,o),
(489,781,o),
(489,781,q),
(489,781,o),
(523,804,o),
(575.801,840.089,o),
(637.199,879.911,o),
(690,916,o),
(724,939,o),
(724,939,q),
(724,939,o),
(713,959,o),
(713,959,q),
(713,959,o),
(672,959,o),
(612,959,o),
(552.148,959,o),
(511,959,o),
(511,959,q),
(511,959,o),
(478,923,o),
(430,870,o),
(383,817,o),
(350,781,o),
(350,781,q),
(350,781,o)
);
}
);
width = 735;
}
);
note = uni00DA;
unicode = 218;
}
{
glyphname = Ucircumflex;
kernLeft = U;
kernRight = U;
layers = (
{
layerId = m01;
shapes = (
{
closed = 1;
nodes = (
(448,22,o),
(525,137,o),
(545,240,q),
(545,240,o),
(555,291,o),
(572,374,o),
(592,474,o),
(612,574,o),
(629,657,o),
(639,708,o),
(639,708,q),
(639,708,o),
(632,708,o),
(623,708,o),
(613,708,o),
(606,708,o),
(606,708,q),
(606,708,o),
(596,658,o),
(580,576,o),
(560,478,o),
(540,380,o),
(524,298,o),
(514,248,o),
(514,248,q),
(496,155,o),
(430,48,o),
(344,4,o),
(296,4,qs),
(210,4,o),
(122,104,o),
(122,194,qs),
(122,214,o),
(126,257,o),
(133,283,q),
(133,283,o),
(142,329,o),
(157,405,o),
(176,495,o),
(194,586,o),
(209,662,o),
(218,708,o),
(218,708,q),
(218,708,o),
(211,708,o),
(202,708,o),
(192,708,o),
(185,708,o),
(185,708,q),
(185,708,o),
(176,661,o),
(160,584,o),
(142,491,o),
(123,399,o),
(107,322,o),
(98,275,o),
(98,275,q),
(94,249,o),
(89,207,o),
(89,185,qs),
(89,85,o),
(198,-24,o),
(292,-24,qs),
(348,-24,o)
);
},
{
closed = 1;
nodes = (
(269,765,o),
(281,765,o),
(292,765,o),
(299,765,o),
(299,765,q),
(299,765,o),
(328,785,o),
(371,814,o),
(414,843,o),
(443,863,o),
(443,863,q),
(443,863,o),
(447,863,o),
(447,863,q),
(447,863,o),
(467,843,o),
(496,814,o),
(525,785,o),
(545,765,o),
(545,765,q),
(545,765,o),
(552,765,o),
(562,765,o),
(571,765,o),
(578,765,o),
(578,765,q),
(578,765,o),
(554,791,o),
(518,831,o),
(482,870,o),
(458,896,o),
(458,896,q),
(458,896,o),
(454,896,o),
(447,896,o),
(440,896,o),
(436,896,o),
(436,896,q),
(436,896,o),
(401,870,o),
(349,831,o),
(297,791,o),
(262,765,o),
(262,765,q),
(262,765,o)
);
}
);
width = 647;
},
{
layerId = "0C2271EE-6BB0-42BD-9F3A-E5D7E2C847CD";
shapes = (
{
closed = 1;
nodes = (
(553,42,o),
(634,189,o),
(658,308,q),
(658,308,o),
(667,353,o),
(682,428,o),
(700,516.5,o),
(718,605,o),
(733,680,o),
(742,725,o),
(742,725,q),
(742,725,o),
(708,725,o),
(659,725,o),
(610.176,725,o),
(576,725,o),
(576,725,q),
(576,725,o),
(566.87,679.239,o),
(552.261,604.191,o),
(534,514.5,o),
(515.739,424.809,o),
(501.13,349.761,o),
(492,304,o),
(492,304,q),
(478,233,o),
(440.658,154.344,o),
(392,122,o),
(358,122,qs),
(300,122,o),
(254,183,o),
(254,241,qs),
(254,260.683,o),
(260,303,o),
(263,326,q),
(263,326,o),
(271.625,368.984,o),
(286,440,o),
(304,526,o),
(321.143,611.019,o),
(335.429,682.023,o),
(344,725,o),
(344,725,q),
(344,725,o),
(309,725,o),
(259,725,o),
(208.412,725,o),
(173,725,o),
(173,725,q),
(173,725,o),
(165.306,685.301,o),
(151.629,620.262,o),
(136.242,541.709,o),
(120,464,o),
(106.56,398.798,o),
(99,359,o),
(99,359,q),
(95,330,o),
(85,262,o),
(85,236,qs),
(85,103,o),
(219,-25,o),
(354.36,-25,qs),
(435,-25,o)
);
},
{
closed = 1;
nodes = (
(279,781,o),
(321,781,o),
(362,781,o),
(390,781,o),
(390,781,q),
(390,781,o),
(409.333,794.878,o),
(438,815,o),
(466.667,835.122,o),
(486,849,o),
(486,849,q),
(486,849,o),
(490,849,o),
(490,849,q),
(490,849,o),
(503.265,835.122,o),
(522.5,815,o),
(541.735,794.878,o),
(555,781,o),
(555,781,q),
(555,781,o),
(583,781,o),
(625,781,o),
(666,781,o),
(694,781,o),
(694,781,q),
(694,781,o),
(671,817,o),
(637,870,o),
(602.8,923.4,o),
(580,959,o),
(580,959,q),
(580,959,o),
(548,959,o),
(500,959,o),
(452,959,o),
(420,959,o),
(420,959,q),
(420,959,o),
(386.207,923.4,o),
(336,870,o),
(285,817,o),
(251,781,o),
(251,781,q),
(251,781,o)
);
}
);
width = 735;
}
);
note = uni00DB;
unicode = 219;
}
{
glyphname = Udieresis;
kernLeft = U;
kernRight = U;
layers = (
{
layerId = m01;
shapes = (
{
closed = 1;
nodes = (
(448,22,o),
(525,137,o),
(545,240,q),
(545,240,o),
(555,291,o),
(572,374,o),
(592,474,o),
(612,574,o),
(629,657,o),
(639,708,o),
(639,708,q),
(639,708,o),
(632,708,o),
(623,708,o),
(613,708,o),
(606,708,o),
(606,708,q),
(606,708,o),
(596,658,o),
(580,576,o),
(560,478,o),
(540,380,o),
(524,298,o),
(514,248,o),
(514,248,q),
(496,155,o),
(430,48,o),
(344,4,o),
(296,4,qs),
(210,4,o),
(122,104,o),
(122,194,qs),
(122,214,o),
(126,257,o),
(133,283,q),
(133,283,o),
(142,329,o),
(157,405,o),
(176,495,o),
(194,586,o),
(209,662,o),
(218,708,o),
(218,708,q),
(218,708,o),
(211,708,o),
(202,708,o),
(192,708,o),
(185,708,o),
(185,708,q),
(185,708,o),
(176,661,o),
(160,584,o),
(142,491,o),
(123,399,o),
(107,322,o),
(98,275,o),
(98,275,q),
(94,249,o),
(89,207,o),
(89,185,qs),
(89,85,o),
(198,-24,o),
(292,-24,qs),
(348,-24,o)
);
},
{
closed = 1;
nodes = (
(366,804,o),
(366,820,qs),
(366,834,o),
(351,850,o),
(338,850,qs),
(325,850,o),
(303,827,o),
(303,809,qs),
(303,796,o),
(318,780,o),
(331,780,qs),
(345,780,o)
);
},
{
closed = 1;
nodes = (
(565,804,o),
(565,820,qs),
(565,834,o),
(550,850,o),
(536,850,qs),
(523,850,o),
(501,827,o),
(501,809,qs),
(501,796,o),
(517,780,o),
(530,780,qs),
(543,780,o)
);
}
);
width = 647;
},
{
layerId = "0C2271EE-6BB0-42BD-9F3A-E5D7E2C847CD";
shapes = (
{
closed = 1;
nodes = (
(553,42,o),
(634,189,o),
(658,308,q),
(658,308,o),
(667,353,o),
(682,428,o),
(700,516.5,o),
(718,605,o),
(733,680,o),
(742,725,o),
(742,725,q),
(742,725,o),
(708,725,o),
(659,725,o),
(610.176,725,o),
(576,725,o),
(576,725,q),
(576,725,o),
(566.87,679.239,o),
(552.261,604.191,o),
(534,514.5,o),
(515.739,424.809,o),
(501.13,349.761,o),
(492,304,o),
(492,304,q),
(478,233,o),
(440.658,154.344,o),
(392,122,o),
(358,122,qs),
(300,122,o),
(254,183,o),
(254,241,qs),
(254,260.683,o),
(260,303,o),
(263,326,q),
(263,326,o),
(271.625,368.984,o),
(286,440,o),
(304,526,o),
(321.143,611.019,o),
(335.429,682.023,o),
(344,725,o),
(344,725,q),
(344,725,o),
(309,725,o),
(259,725,o),
(208.412,725,o),
(173,725,o),
(173,725,q),
(173,725,o),
(165.306,685.301,o),
(151.629,620.262,o),
(136.242,541.709,o),
(120,464,o),
(106.56,398.798,o),
(99,359,o),
(99,359,q),
(95,330,o),
(85,262,o),
(85,236,qs),
(85,103,o),
(219,-25,o),
(354.36,-25,qs),
(435,-25,o)
);
},
{
closed = 1;
nodes = (
(436,830,o),
(436,867,qs),
(436,900.133,o),
(396,938,o),
(365,938,qs),
(326,938,o),
(275,884,o),
(275,849,qs),
(275,815,o),
(316,778,o),
(346,778,qs),
(385,778,o)
);
},
{
closed = 1;
nodes = (
(686,830,o),
(686,867,qs),
(686,900.133,o),
(645,938,o),
(615,938,qs),
(576,938,o),
(524,884,o),
(524,849,qs),
(524,815,o),
(566,778,o),
(596,778,qs),
(634,778,o)
);
}
);
width = 735;
}
);
note = uni00DC;
unicode = 220;
}
{
glyphname = Yacute;
kernLeft = Y;
kernRight = Y;
layers = (
{
layerId = m01;
shapes = (
{
closed = 1;
nodes = (
(159,-11,o),
(169,-11,o),
(179,-11,o),
(185,-11,o),
(185,-11,q),
(185,-11,o),
(194,32,o),
(207,100,o),
(223,176,o),
(236,244,o),
(245,287,o),
(245,287,q),
(245,287,o),
(277,333,o),
(330,408,o),
(394,498,o),
(458,587,o),
(511,662,o),
(543,708,o),
(543,708,q),
(543,708,o),
(536,708,o),
(526,708,o),
(515,708,o),
(508,708,o),
(508,708,q),
(508,708,o),
(484,674,o),
(447,621,o),
(404,561,o),
(367,508,o),
(343,474,o),
(343,474,q),
(316,436,o),
(262,356,o),
(235,318,q),
(235,318,o),
(233,318,o),
(233,318,q),
(222,359,o),
(202,435,o),
(191,474,q),
(191,474,o),
(178,521,o),
(159,591,o),
(139,661,o),
(126,708,o),
(126,708,q),
(126,708,o),
(120,708,o),
(110,708,o),
(100,708,o),
(94,708,o),
(94,708,q),
(94,708,o),
(107,662,o),
(128,587,o),
(154,498,o),
(179,408,o),
(200,333,o),
(213,287,o),
(213,287,q),
(213,287,o),
(204,244,o),
(191,176,o),
(175,100,o),
(162,32,o),
(153,-11,o),
(153,-11,q),
(153,-11,o)
);
},
{
closed = 1;
nodes = (
(251,763,o),
(263,763,o),
(274,763,o),
(281,763,o),
(281,763,q),
(281,763,o),
(309,781,o),
(352,810,o),
(402,842,o),
(445,871,o),
(473,889,o),
(473,889,q),
(473,889,o),
(471,894,o),
(471,894,q),
(471,894,o),
(460,894,o),
(445,894,o),
(430,894,o),
(419,894,o),
(419,894,q),
(419,894,o),
(384,868,o),
(331,829,o),
(279,789,o),
(244,763,o),
(244,763,q),
(244,763,o)
);
}
);
width = 460;
},
{
layerId = "0C2271EE-6BB0-42BD-9F3A-E5D7E2C847CD";
shapes = (
{
closed = 1;
nodes = (
(189,-11,o),
(239.5,-11,o),
(290,-11,o),
(324,-11,o),
(324,-11,q),
(324,-11,o),
(332.182,26.577,o),
(344,86,o),
(357,153,o),
(368.818,212.423,o),
(377,250,o),
(377,250,q),
(377,250,o),
(411,301,o),
(466,386,o),
(533,487,o),
(599,589,o),
(654,674,o),
(688,725,o),
(688,725,q),
(688,725,o),
(650.529,725,o),
(597,725,o),
(542,725,o),
(505,725,o),
(505,725,q),
(505,725,o),
(491,701,o),
(470,662,o),
(446,620,o),
(425,581,o),
(411,557,o),
(411,557,q),
(388,516,o),
(347,437,o),
(324,394,q),
(324,394,o),
(320,394,o),
(320,394,q),
(313,437,o),
(301,514,o),
(293,556,q),
(293,556,o),
(287.719,590.145,o),
(280,641,o),
(272.121,691.256,o),
(267,725,o),
(267,725,q),
(267,725,o),
(231,725,o),
(178.5,725,o),
(126,725,o),
(90,725,o),
(90,725,q),
(90,725,o),
(103,674,o),
(123.548,588.97,o),
(148.989,488.067,o),
(173.452,386.03,o),
(194,301,o),
(207,250,o),
(207,250,q),
(207,250,o),
(199.2,212.339,o),
(187.933,152.782,o),
(174.067,86.218,o),
(162.8,26.661,o),
(155,-11,o),
(155,-11,q),
(155,-11,o)
);
},
{
closed = 1;
nodes = (
(308,781,o),
(350,781,o),
(391,781,o),
(419,781,o),
(419,781,q),
(419,781,o),
(453,804,o),
(505.801,840.089,o),
(567.199,879.911,o),
(620,916,o),
(654,939,o),
(654,939,q),
(654,939,o),
(643,959,o),
(643,959,q),
(643,959,o),
(602,959,o),
(542,959,o),
(482,959,o),
(441,959,o),
(441,959,q),
(441,959,o),
(408,923,o),
(360,870,o),
(313,817,o),
(280,781,o),
(280,781,q),
(280,781,o)
);
}
);
width = 588;
}
);
note = uni00DD;
unicode = 221;
}
{
glyphname = Thorn;
kernRight = Thorn;
layers = (
{
layerId = m01;
shapes = (
{
closed = 1;
nodes = (
(50,-11,o),
(60,-11,o),
(70,-11,o),
(76,-11,o),
(76,-11,q),
(76,-11,o),
(83,26,o),
(95,82,o),
(106,137,o),
(113,174,o),
(113,174,q),
(113,174,o),
(141,174,o),
(182,174,o),
(223,174,o),
(251,174,o),
(251,174,q),
(320,174,o),
(432,204,o),
(510,263,o),
(552,351,o),
(552,410,qs),
(552,467,o),
(502,539,o),
(408,573,o),
(342,573,q),
(342,573,o),
(312,573,o),
(268,573,o),
(224,573,o),
(194,573,o),
(194,573,q),
(194,573,o),
(199,600,o),
(207,641,o),
(215,681,o),
(220,708,o),
(220,708,q),
(220,708,o),
(213,708,o),
(204,708,o),
(194,708,o),
(187,708,o),
(187,708,q),
(187,708,o),
(175,647,o),
(155,545,o),
(129,417,o),
(102,280,o),
(76,152,o),
(56,50,o),
(44,-11,o),
(44,-11,q),
(44,-11,o)
);
},
{
closed = 1;
nodes = (
(130,252,o),
(145,330,o),
(162,418,o),
(177,496,o),
(187,545,o),
(187,545,q),
(187,545,o),
(228,545,o),
(282,545,o),
(323,545,o),
(323,545,q),
(419,545,o),
(519,482,o),
(519,408,qs),
(519,306,o),
(380,203,o),
(244,203,q),
(244,203,o),
(207,203,o),
(157,203,o),
(120,203,o),
(120,203,q),
(120,203,o)
);
}
);
width = 584;
},
{
layerId = "0C2271EE-6BB0-42BD-9F3A-E5D7E2C847CD";
shapes = (
{
closed = 1;
nodes = (
(65,-11,o),
(115,-11,o),
(165,-11,o),
(199,-11,o),
(199,-11,q),
(199,-11,o),
(204,16,o),
(212.4,57.243,o),
(220.1,97.75,o),
(225,125,o),
(225,125,q),
(225,125,o),
(241.841,125,o),
(266.5,125,o),
(291.159,125,o),
(308,125,o),
(308,125,q),
(377,125,o),
(501,157,o),
(598,225,o),
(653,336,o),
(653,415,qs),
(653,488,o),
(590,575,o),
(483,614,o),
(416,614,q),
(416,614,o),
(397.186,614,o),
(369.593,614,o),
(342,614,o),
(323,614,o),
(323,614,q),
(323,614,o),
(328,638,o),
(335.619,674.824,o),
(343.238,710.75,o),
(348,735,o),
(348,735,q),
(348,735,o),
(313,735,o),
(263,735,o),
(212.412,735,o),
(177,735,o),
(177,735,q),
(177,735,o),
(164.748,671.709,o),
(144.329,565.879,o),
(117.783,433.072,o),
(90.217,290.928,o),
(63.671,158.121,o),
(43.252,52.291,o),
(31,-11,o),
(31,-11,q),
(31,-11,o)
);
},
{
closed = 1;
nodes = (
(258,291,o),
(267.894,340.869,o),
(279.106,397.131,o),
(289,447,o),
(295.301,479,o),
(295.301,479,q),
(295.301,479,o),
(321.137,479,o),
(355.164,479,o),
(381,479,o),
(381,479,q),
(430,479,o),
(486,436,o),
(486,389.33,qs),
(486,325,o),
(403,259,o),
(327,259,q),
(327,259,o),
(304,259,o),
(275,259,o),
(252,259,o),
(252,259,q),
(252,259,o)
);
}
);
width = 681;
}
);
note = uni00DE;
unicode = 222;
}
{
glyphname = germandbls;
kernRight = germandbls;
layers = (
{
layerId = m01;
shapes = (
{
closed = 1;
nodes = (
(460,18,o),
(501,89,o),
(501,131,qs),
(501,173,o),
(468,229,o),
(418,271,o),
(369,308,o),
(336,353,o),
(336,384,qs),
(336,415,o),
(371,462,o),
(422,505,o),
(473,553,o),
(508,616,o),
(508,660,qs),
(508,702,o),
(476,759,o),
(418,789,o),
(377,789,qs),
(323,789,o),
(236,731,o),
(178,635,o),
(166,578,q),
(166,578,o),
(153,514,o),
(132,409,o),
(107,284,o),
(82,158,o),
(61,53,o),
(48,-11,o),
(48,-11,q),
(48,-11,o),
(54,-11,o),
(63,-11,o),
(72,-11,o),
(78,-11,o),
(78,-11,q),
(78,-11,o),
(91,52,o),
(111,155,o),
(136,278,o),
(161,401,o),
(181,504,o),
(194,567,o),
(194,567,q),
(205,621,o),
(257,709,o),
(331,761,o),
(375,761,qs),
(429,761,o),
(477,703,o),
(477,660,qs),
(477,621,o),
(442,564,o),
(391,517,o),
(340,470,o),
(305,415,o),
(305,377,qs),
(305,344,o),
(339,297,o),
(388,258,o),
(437,216,o),
(471,163,o),
(471,124,qs),
(471,89,o),
(435,35,o),
(375,4,o),
(340,4,qs),
(303,4,o),
(240,30,o),
(211,54,q),
(211,54,o),
(206,48,o),
(199,41,o),
(194,35,o),
(194,35,q),
(223,6,o),
(301,-24,o),
(338,-24,qs),
(386,-24,o)
);
}
);
width = 558;
},
{
layerId = "0C2271EE-6BB0-42BD-9F3A-E5D7E2C847CD";
shapes = (
{
closed = 1;
nodes = (
(590,29,o),
(647,122,o),
(647,178,qs),
(647,217,o),
(621,274,o),
(583,317,o),
(544,350,o),
(518,380,o),
(518,396,qs),
(518,413,o),
(545,445,o),
(585,480,o),
(625,523,o),
(652,580,o),
(652,618,qs),
(652,679,o),
(585,755,o),
(479,791,o),
(420,791,qs),
(338,791,o),
(215,729,o),
(139,623,o),
(125,555,q),
(125,555,o),
(113,494,o),
(93,393,o),
(69,272,o),
(44,151,o),
(24,50,o),
(12,-11,o),
(12,-11,q),
(12,-11,o),
(46,-11,o),
(97,-11,o),
(148,-11,o),
(182,-11,o),
(182,-11,q),
(182,-11,o),
(194,47,o),
(213,142,o),
(236,255,o),
(258,369,o),
(277,464,o),
(289,522,o),
(289,522,q),
(297,560,o),
(331,621,o),
(382,657,o),
(414,657,qs),
(455,657,o),
(488,623,o),
(488,592,qs),
(488,564,o),
(461,521,o),
(421,485,o),
(380,447,o),
(353,402,o),
(353,372,qs),
(353,338,o),
(381,287,o),
(422,248,o),
(462,215,o),
(490,181,o),
(490,161,qs),
(490,144,o),
(476,116,o),
(449,101,o),
(431,101,qs),
(401,101,o),
(351,118,o),
(330,133,q),
(330,133,o),
(312,101,o),
(290,58,o),
(272,26,o),
(272,26,q),
(308,-2,o),
(390,-25,o),
(432,-25,qs),
(493,-25,o)
);
}
);
width = 703;
}
);
note = uni00DF;
unicode = 223;
}
{
glyphname = agrave;
kernLeft = a;
kernRight = a;
layers = (
{
layerId = m01;
shapes = (
{
closed = 1;
nodes = (
(358,31,o),
(399,74,q),
(399,74,o),
(403,74,o),
(403,74,q),
(403,74,o),
(399,48,o),
(394,15,o),
(390,-11,o),
(390,-11,q),
(390,-11,o),
(395,-11,o),
(403,-11,o),
(411,-11,o),
(416,-11,o),
(416,-11,q),
(416,-11,o),
(427,45,o),
(446,138,o),
(468,249,o),
(491,361,o),
(510,454,o),
(521,510,o),
(521,510,q),
(521,510,o),
(516,510,o),
(508,510,o),
(500,510,o),
(495,510,o),
(495,510,q),
(495,510,o),
(489,488,o),
(481,458,o),
(475,436,o),
(475,436,q),
(475,436,o),
(471,436,o),
(471,436,q),
(450,475,o),
(381,523,o),
(334,523,qs),
(280,523,o),
(178,468,o),
(98,369,o),
(50,238,o),
(50,163,qs),
(50,72,o),
(134,-24,o),
(203,-24,qs),
(259,-24,o)
);
},
{
closed = 1;
nodes = (
(81,87,o),
(81,170,qs),
(81,230,o),
(122,346,o),
(193,440,o),
(282,495,o),
(331,495,qs),
(371,495,o),
(438,448,o),
(469,394,q),
(469,394,o),
(461,355,o),
(448,293,o),
(433,223,o),
(420,161,o),
(412,122,o),
(412,122,q),
(363,67,o),
(259,4,o),
(205,4,qs),
(148,4,o)
);
},
{
closed = 1;
nodes = (
(416,610,o),
(428,610,o),
(436,610,o),
(436,610,q),
(436,610,o),
(411,643,o),
(373,692,o),
(335,741,o),
(310,774,o),
(310,774,q),
(310,774,o),
(303,774,o),
(293,774,o),
(282,774,o),
(275,774,o),
(275,774,q),
(275,774,o),
(273,769,o),
(273,769,q),
(273,769,o),
(300,737,o),
(340,690,o),
(381,642,o),
(408,610,o),
(408,610,q),
(408,610,o)
);
}
);
width = 571;
},
{
layerId = "0C2271EE-6BB0-42BD-9F3A-E5D7E2C847CD";
shapes = (
{
closed = 1;
nodes = (
(326,21,o),
(363,60,q),
(363,60,o),
(366,60,o),
(366,60,q),
(366,60,o),
(366,39,o),
(365,10,o),
(365,-11,o),
(365,-11,q),
(365,-11,o),
(393,-11,o),
(434,-11,o),
(475,-11,o),
(503,-11,o),
(503,-11,q),
(503,-11,o),
(515,50,o),
(535,150,o),
(560,270,o),
(584.095,390.741,o),
(604,491,o),
(616,552,o),
(616,552,q),
(616,552,o),
(588,552,o),
(547.5,552,o),
(507,552,o),
(479,552,o),
(479,552,q),
(479,552,o),
(472,534,o),
(462,512,o),
(455,494,o),
(455,494,q),
(455,494,o),
(453,494,o),
(453,494,q),
(437,527,o),
(370,565,o),
(333,565,qs),
(275,565,o),
(167,506,o),
(82,402,o),
(33,263,o),
(33,181.675,qs),
(33,83,o),
(118,-25,o),
(191,-25,qs),
(233,-25,o)
);
},
{
closed = 1;
nodes = (
(209,158.5,o),
(209,204,qs),
(209,253,o),
(232,334,o),
(270,394,o),
(319.014,427,o),
(346,427,qs),
(363,427,o),
(401,405,o),
(412,380,q),
(412,380,o),
(406.807,353.044,o),
(398.368,310.191,o),
(388.632,261.809,o),
(380.193,218.956,o),
(375,192,o),
(375,192,q),
(350,146,o),
(291,113,o),
(266.676,113,qs),
(241,113,o)
);
},
{
closed = 1;
nodes = (
(373,633,o),
(423,633,o),
(462,633,o),
(462,633,q),
(462,633,o),
(445,676,o),
(421,738.5,o),
(397,801,o),
(380,844,o),
(380,844,q),
(380,844,o),
(342.941,844,o),
(290,844,o),
(236,844,o),
(198.667,844,o),
(198.667,844,q),
(198.667,844,o),
(188,825,o),
(188,825,q),
(188,825,o),
(217.418,786.114,o),
(261,729,o),
(305,672,o),
(334,633,o),
(334,633,q),
(334,633,o)
);
}
);
width = 628;
}
);
note = uni00E0;
unicode = 224;
}
